<svg width="208" height="30" viewBox="0 0 208 30" fill="none" xmlns="http://www.w3.org/2000/svg">
<path d="M12.9997 26.3155C14.6835 26.3155 16.2624 25.6301 17.5794 24.6317V14.0524C12.1063 14.5789 8.94651 17.3151 8.94651 21.6847C8.94651 24.367 10.2117 26.3155 12.9997 26.3155ZM30.1036 27.2628V27.7894L19.9459 29.999H19.42L17.8951 25.9487C14.9993 28.6309 11.5805 29.999 8.26316 29.999C3.31661 29.999 0 27.4218 0 23.5275C0 17.4208 6.94618 13.3159 17.5794 12.949V9.52735C17.5794 6 14.6835 3.63279 10.2635 3.63279C7.36767 3.63279 7.47549 3.51447 4.89544 4.40786L4.6875 3.6706C8.36889 1.14516 10.9461 0.0032177 15.3662 0.0032177C21.8405 0.0032177 26.5252 3.37164 26.5252 8.47433V25.579L30.1036 27.2628Z" fill="#53616E"/>
<path d="M27.5259 15.5272C27.5259 6.21103 33.8944 0.00139999 43.2617 0.00139999C47.0509 0.00139999 50.8395 0.948704 53.3117 2.21177L52.9448 8.26526L52.3644 8.15954L43.8422 1.58024C39.3136 1.58024 36.6824 6.05489 36.6824 13.5787C36.6824 21.0542 40.1048 26.0519 45.6829 26.0519C48.5241 26.0519 51.8925 25.2642 54.051 23.9472L54.5776 24.5276C51.471 27.5257 47.4178 30 41.2082 30C32.9989 30 27.5259 24.2119 27.5259 15.5272Z" fill="#53616E"/>
<path d="M84.9819 26.6707V27.2645L75.4179 29.9985H74.8914L73.3125 25.7906C70.1527 28.5786 66.4714 29.9985 63.1036 29.9985C57.9974 29.9985 54.314 26.6301 54.314 21.5267V3.46498L62.734 1.77831H63.2605V20.4744C63.2605 23.8428 65.2062 26.0525 68.1559 26.0525C70.1527 26.0525 71.6798 25.421 73.0514 24.2636V4.57961L69.8398 2.73892V2.21241L81.4686 -6.29425e-05H81.9944V25.5778L84.9819 26.6707Z" fill="#53616E"/>
<path d="M135.992 28.9471V29.4736H120.31V28.9471L123.468 27.3683V9.52707C123.468 6.15935 121.468 3.94898 118.467 3.94898C116.362 3.94898 114.783 4.68624 113.361 6.00322C113.574 6.73698 113.677 7.58136 113.677 8.47475V27.3683L117.099 28.9471V29.4736H101.573V28.9471L104.731 27.3683V9.52707C104.731 6.15935 102.731 3.94898 99.733 3.94898C97.7845 3.94898 96.2568 4.58052 94.9426 5.68465V27.3144L98.3649 28.9471V29.4736H82.6802V28.9471L85.9968 27.3683V4.58052L82.7852 2.73772V2.21121L93.6256 0.000839233H94.1521L94.6779 4.15973C97.8384 1.42354 101.468 0.000839233 104.785 0.000839233C108.52 0.000839233 111.467 1.73651 112.835 4.63443C116.152 1.63359 119.995 0.000839233 123.519 0.000839233C128.676 0.000839233 132.414 3.36926 132.414 8.47475V27.3144L135.992 28.9471Z" fill="#53616E"/>
<path d="M142.678 12.8433L152.836 12.3714C152.836 4.94978 151.254 1.58136 147.886 1.58136C144.518 1.58136 142.888 5.15982 142.678 12.8433ZM157.61 25.133L158.085 25.7106C154.873 28.7114 153.624 29.999 147.152 29.999C138.942 29.999 133.467 24.2102 133.467 15.5283C133.467 6.21284 139.466 0.0032177 148.361 0.0032177C156.414 0.0032177 161.727 5.58131 161.727 13.9495H142.678V14.476C142.678 21.4222 146.151 26.053 151.888 26.053C154.835 26.053 155.399 26.45 157.61 25.133Z" fill="#53616E"/>
<path d="M194.622 28.9471V29.4736H178.781V28.9471L182.098 27.3683V9.52707C182.098 6.15935 180.044 3.94898 176.941 3.94898C174.833 3.94898 173.203 4.63443 171.783 5.78967V27.3683L175.359 28.9471V29.4736H159.518V28.9471L162.835 27.3683V4.58052L159.623 2.73772V2.21121L170.467 0.000839233H170.993L171.519 4.21084C174.782 1.47465 178.52 0.000839233 181.992 0.000839233C187.255 0.000839233 191.044 3.36926 191.044 8.47475V27.3683L194.622 28.9471Z" fill="#53616E"/>
<path d="M203.315 29.9067C200.463 29.9067 198.638 28.1284 198.638 25.4188C198.638 22.7981 200.463 21.0225 203.315 21.0225C206.168 21.0225 207.99 22.7981 207.99 25.4188C207.99 28.1284 206.168 29.9067 203.315 29.9067Z" fill="#53616E"/>
</svg>
