<svg width="144" height="36" viewBox="0 0 144 36" fill="none" xmlns="http://www.w3.org/2000/svg">
<g clip-path="url(#clip0_341_226)">
<path d="M29.4053 13.4221H35.0667V7.68115H29.4053V13.4221Z" fill="#53616E"/>
<path d="M0.310547 27.698H5.66348V21.957H0.310547V27.698Z" fill="#53616E"/>
<path d="M7.21582 35.9998H12.9568V14.9741H7.21582V35.9998Z" fill="#53616E"/>
<path d="M22.1123 35.9999H27.8533V29.25H22.1123V35.9999Z" fill="#53616E"/>
<path d="M0.310547 13.4221H20.5602V7.68115H0.310547V13.4221Z" fill="#53616E"/>
<path d="M22.1123 20.4048H27.8533V0H22.1123V20.4048Z" fill="#53616E"/>
<path d="M14.5088 27.698H35.0669V21.957H14.5088V27.698Z" fill="#53616E"/>
<path d="M63.1071 22.3569L60.5401 16.0906L57.973 22.3569H63.1071ZM58.6357 10.9824H62.5559L70.836 30.446H66.3964L64.6294 26.1119H56.4467L54.6857 30.446H50.3516L58.6357 10.9824Z" fill="#53616E"/>
<path d="M82.3756 20.5062C83.425 20.5062 84.2303 20.2574 84.7914 19.7599C85.0703 19.5113 85.2905 19.2038 85.4361 18.8596C85.5816 18.5155 85.6489 18.1433 85.6332 17.77V17.7103C85.6332 16.7896 85.3386 16.0998 84.7496 15.6408C84.1606 15.1818 83.3414 14.9516 82.2921 14.9503H78.0674V20.4982L82.3756 20.5062ZM73.8189 11.1196H82.6522C85.0999 11.1196 86.977 11.773 88.2838 13.0797C89.3875 14.1835 89.9394 15.656 89.9394 17.4974V17.5531C89.9394 19.1172 89.5573 20.3914 88.7932 21.3758C88.0202 22.3671 86.9817 23.1186 85.7983 23.5428L90.5185 30.4459H85.5436L81.4025 24.2632H78.0674V30.4459H73.8169L73.8189 11.1196Z" fill="#53616E"/>
<path d="M93.9692 30.4439H98.2197V11.1216H93.9692V30.4439Z" fill="#53616E"/>
<path d="M112.364 30.7762C110.953 30.794 109.552 30.5407 108.237 30.03C107.041 29.5631 105.952 28.8592 105.035 27.9605C104.134 27.0642 103.425 25.9937 102.951 24.8144C102.444 23.5495 102.191 22.1972 102.205 20.8345V20.7788C102.187 18.8141 102.755 16.8886 103.837 15.2484C104.919 13.6083 106.465 12.328 108.278 11.5713C109.563 11.0333 110.943 10.7625 112.336 10.7753C113.126 10.7695 113.916 10.8294 114.696 10.9544C115.368 11.065 116.029 11.2362 116.67 11.4659C117.268 11.682 117.841 11.9594 118.381 12.2937C118.924 12.6318 119.441 13.0103 119.928 13.4259L117.249 16.6556C116.899 16.3565 116.53 16.08 116.145 15.8278C115.782 15.5916 115.398 15.3884 114.998 15.2209C114.584 15.05 114.155 14.9207 113.715 14.8348C113.215 14.7394 112.706 14.6934 112.197 14.6975C111.447 14.6922 110.706 14.8576 110.03 15.1811C109.364 15.4994 108.764 15.941 108.263 16.4825C107.747 17.037 107.342 17.6846 107.069 18.3908C106.78 19.1363 106.635 19.9296 106.641 20.729V20.7847C106.632 21.6206 106.777 22.4511 107.069 23.2344C107.339 23.9588 107.752 24.6218 108.282 25.1845C108.804 25.736 109.433 26.1743 110.131 26.472C110.878 26.7837 111.682 26.9388 112.491 26.9277C114.074 26.9277 115.408 26.5383 116.495 25.7596V22.9737H112.217V19.3201H120.608V27.7117C119.539 28.6049 118.343 29.3351 117.06 29.8788C115.573 30.4986 113.974 30.8042 112.364 30.7762Z" fill="#53616E"/>
<path d="M135.792 22.3569L133.225 16.0906L130.658 22.3569H135.792ZM131.32 10.9844H135.248L143.521 30.446H139.077L137.31 26.1119H129.139L127.372 30.446H123.038L131.32 10.9844Z" fill="#53616E"/>
</g>
<defs>
<clipPath id="clip0_341_226">
<rect width="143.21" height="36" fill="white" transform="translate(0.310547)"/>
</clipPath>
</defs>
</svg>
