<svg width="172" height="36" viewBox="0 0 172 36" fill="none" xmlns="http://www.w3.org/2000/svg">
<g clip-path="url(#clip0_341_313)">
<path d="M1.88863 27.3229C1.6577 27.3447 1.42701 27.2788 1.24247 27.1383C1.14463 27.0433 1.06906 26.9278 1.02118 26.8001C0.973294 26.6724 0.954297 26.5357 0.965551 26.3998V2.76905C0.965551 2.49213 0.965551 2.30751 1.24247 2.1229C1.42709 1.93828 1.61171 1.84597 1.88863 1.84597H12.6886C14.7194 1.84597 16.3809 2.1229 17.6732 2.76905C18.9655 3.3229 19.8886 4.15367 20.4425 5.26136C21.0886 6.27674 21.3655 7.56905 21.3655 8.95366C21.3655 9.87674 21.2732 10.6152 20.904 11.3537C20.3647 12.509 19.4551 13.4511 18.3194 14.0306C19.2425 14.3998 20.1656 15.1383 20.8117 16.1537C21.5502 17.169 21.9194 18.369 21.9194 19.7537C21.9194 21.2306 21.5502 22.6152 20.9963 23.7229C20.2706 24.9557 19.1714 25.9256 17.8579 26.4921C16.5655 27.046 14.904 27.4152 13.0579 27.4152H1.88863V27.3229ZM6.78094 23.0767H12.3194C13.5194 23.0767 14.4425 22.7998 15.0886 22.1537C15.6425 21.4152 16.0117 20.6767 16.0117 19.7537C16.0117 18.8306 15.6425 17.9075 14.9963 17.3537C14.3502 16.7075 13.5194 16.4306 12.3194 16.4306H6.78094V23.0767ZM6.78094 12.1844H11.9502C13.1502 12.1844 13.9809 11.9075 14.5348 11.2614C15.0886 10.7998 15.4579 10.0614 15.4579 9.13828C15.4663 8.73875 15.3882 8.34213 15.2288 7.97565C15.0695 7.60918 14.8327 7.28153 14.5348 7.0152C13.9809 6.36905 13.1502 6.09213 11.9502 6.09213H6.78094V12.1844ZM26.904 27.3229C26.7043 27.3229 26.5099 27.2581 26.3502 27.1383C26.2523 27.0433 26.1767 26.9278 26.1289 26.8001C26.081 26.6724 26.062 26.5357 26.0732 26.3998V9.3229C26.0732 9.04597 26.0732 8.86136 26.3502 8.67674C26.4425 8.49213 26.7194 8.39982 26.904 8.39982H30.5963C30.8732 8.39982 31.0579 8.49213 31.2425 8.67674C31.4271 8.86136 31.4271 9.04597 31.4271 9.3229V26.3998C31.4271 26.6767 31.4271 26.9537 31.2425 27.1383C31.0579 27.2788 30.8272 27.3447 30.5963 27.3229H26.904ZM26.8117 5.53828C26.5682 5.53481 26.336 5.43528 26.1655 5.26136C26.025 5.07682 25.9591 4.84613 25.9809 4.6152V1.66136C25.9809 1.38443 25.9809 1.19982 26.1655 1.0152C26.3502 0.830589 26.5348 0.738281 26.8117 0.738281H30.5963C30.8732 0.738281 31.1502 0.830589 31.3348 1.0152C31.5194 1.19982 31.6117 1.38443 31.6117 1.66136V4.6152C31.6117 4.89213 31.5194 5.07674 31.3348 5.26136C31.2398 5.3592 31.1243 5.43477 30.9966 5.48266C30.8689 5.53054 30.7322 5.54953 30.5963 5.53828H26.8117ZM44.904 35.3537C43.0578 35.3537 41.6732 35.0767 40.4732 34.6152C39.4187 34.2566 38.4459 33.6918 37.6117 32.9537C36.9913 32.3798 36.4896 31.6899 36.1348 30.9229C35.8579 30.2767 35.6732 29.8152 35.6732 29.446C35.6732 29.169 35.6732 28.9844 35.9502 28.7998C36.1348 28.6152 36.3194 28.5229 36.5963 28.5229H40.4732C40.6579 28.5229 40.8425 28.5229 41.0271 28.7075C41.2117 28.7075 41.304 28.9844 41.3963 29.2614L41.9502 30.1844L42.8732 31.0152C43.3348 31.1998 43.9809 31.2921 44.7194 31.2921C45.6425 31.2921 46.2886 31.1998 46.8425 30.9229C47.3963 30.7383 47.7655 30.2767 48.0425 29.7229C48.4117 29.169 48.504 28.3383 48.504 27.3229V24.9229C47.9502 25.569 47.2117 26.0306 46.2886 26.4921C44.1825 27.3204 41.8409 27.3204 39.7348 26.4921C38.8185 26.1286 37.9976 25.5602 37.3348 24.8306C36.6651 24.0136 36.1632 23.0726 35.8579 22.0614C35.5127 20.9232 35.3263 19.7428 35.304 18.5537V16.7075C35.304 15.4152 35.5809 14.2152 35.8579 13.1998C36.2271 12.1844 36.7809 11.2614 37.3348 10.4306C37.9809 9.69213 38.8117 9.13828 39.7348 8.67674C40.6579 8.30751 41.7655 8.03059 43.0578 8.03059C44.1613 8.01621 45.2529 8.25897 46.2463 8.73962C47.2396 9.22028 48.1074 9.92563 48.7809 10.7998V9.23059C48.7809 9.04597 48.8732 8.76905 49.0578 8.58443C49.2425 8.39982 49.4271 8.30751 49.704 8.30751H53.2117C53.4886 8.30751 53.6732 8.39982 53.8578 8.58443C54.0425 8.76905 54.1348 9.04597 54.1348 9.23059V26.769C54.1348 28.6152 53.8578 30.0921 53.2117 31.3844C52.4723 32.6624 51.3388 33.6663 49.9809 34.246C48.6886 34.8921 46.9348 35.2614 44.904 35.2614V35.3537ZM44.7194 22.7998C45.6425 22.7998 46.2886 22.6152 46.8425 22.246C47.3963 21.8767 47.7655 21.3229 48.0425 20.769C48.3233 20.1274 48.48 19.4383 48.504 18.7383C48.5709 17.9705 48.5709 17.1984 48.504 16.4306C48.504 15.7844 48.3194 15.1383 48.0425 14.5844C47.8579 13.9383 47.3963 13.3844 46.8425 13.0152C46.2886 12.646 45.6425 12.4614 44.7194 12.4614C43.7963 12.4614 43.0578 12.646 42.5963 13.0152C42.0425 13.4767 41.6732 13.9383 41.3963 14.5844C41.1194 15.2306 41.0271 15.9691 40.9348 16.7998V18.4614C40.9348 19.2921 41.1194 20.0306 41.3963 20.6767C41.6732 21.3229 42.0425 21.8767 42.5963 22.246C43.2315 22.6415 43.9719 22.8346 44.7194 22.7998ZM59.6732 27.3229C59.4423 27.3447 59.2116 27.2788 59.0271 27.1383C58.9292 27.0433 58.8537 26.9278 58.8058 26.8001C58.7579 26.6724 58.7389 26.5357 58.7502 26.3998V9.3229C58.7502 9.04597 58.8425 8.86136 59.0271 8.67674C59.2117 8.49213 59.3963 8.39982 59.6732 8.39982H63.3655C63.5502 8.39982 63.8271 8.49213 63.9194 8.67674C64.104 8.86136 64.1963 9.04597 64.1963 9.3229V26.3998C64.1963 26.6767 64.1963 26.9537 63.9194 27.1383C63.7348 27.2788 63.5042 27.3447 63.2732 27.3229H59.5809H59.6732ZM59.5809 5.53828C59.3374 5.53481 59.1052 5.43528 58.9348 5.26136C58.7609 5.09093 58.6613 4.85868 58.6579 4.6152V1.66136C58.6579 1.38443 58.7502 1.19982 58.9348 1.0152C59.1194 0.830589 59.304 0.738281 59.5809 0.738281H63.3655C63.6425 0.738281 63.8271 0.830589 64.0117 1.0152C64.1963 1.19982 64.2886 1.38443 64.2886 1.66136V4.6152C64.2886 4.89213 64.2886 5.07674 64.0117 5.26136C63.8413 5.43528 63.609 5.53481 63.3655 5.53828H59.5809ZM70.104 27.3229C69.8731 27.3447 69.6424 27.2788 69.4578 27.1383C69.36 27.0433 69.2844 26.9278 69.2365 26.8001C69.1887 26.6724 69.1697 26.5357 69.1809 26.3998V2.76905C69.1809 2.49213 69.1809 2.30751 69.4578 2.1229C69.6425 1.93828 69.8271 1.84597 70.104 1.84597H80.904C82.9348 1.84597 84.5963 2.1229 85.7963 2.76905C87.0886 3.3229 88.104 4.15367 88.6578 5.26136C89.304 6.27674 89.5809 7.56905 89.5809 8.95366C89.5809 9.87674 89.4886 10.6152 89.1194 11.3537C88.5801 12.509 87.6704 13.4511 86.5348 14.0306C87.4578 14.3998 88.3809 15.1383 89.0271 16.1537C89.7655 17.169 90.1348 18.369 90.1348 19.7537C90.1348 21.2306 89.7655 22.6152 89.1194 23.7229C88.4177 24.9411 87.3526 25.9094 86.0732 26.4921C84.7809 27.046 83.1194 27.4152 81.1809 27.4152H70.1963L70.104 27.3229ZM74.9963 23.0767H80.5348C81.7348 23.0767 82.6578 22.7998 83.304 22.1537C83.8578 21.4152 84.1348 20.6767 84.1348 19.7537C84.1348 18.8306 83.8578 17.9075 83.2117 17.3537C82.5655 16.7075 81.7348 16.4306 80.4425 16.4306H74.904V23.0767H74.9963ZM74.9963 12.1844H80.1655C81.3655 12.1844 82.1963 11.9075 82.7502 11.2614C83.304 10.7998 83.6732 10.0614 83.6732 9.13828C83.6817 8.73875 83.6035 8.34213 83.4442 7.97565C83.2849 7.60918 83.0481 7.28153 82.7502 7.0152C82.1963 6.36905 81.3655 6.09213 80.1655 6.09213H74.9963V12.1844ZM94.9348 27.3229C94.7038 27.3447 94.4732 27.2788 94.2886 27.1383C94.2071 27.0354 94.1485 26.9163 94.1166 26.789C94.0848 26.6616 94.0805 26.529 94.104 26.3998V9.3229C94.104 9.13828 94.104 8.86136 94.2886 8.67674C94.4732 8.49213 94.7502 8.39982 94.9348 8.39982H98.5348C98.7194 8.39982 98.9963 8.49213 99.1809 8.67674C99.3655 8.86136 99.4578 9.13828 99.4578 9.3229V10.7998C100.012 10.0614 100.75 9.4152 101.673 9.04597C102.596 8.67674 103.519 8.39982 104.719 8.39982H106.289C106.566 8.39982 106.75 8.49213 106.935 8.67674C107.119 8.86136 107.212 9.04597 107.212 9.3229V12.4614C107.212 12.7383 107.119 12.9229 106.935 13.1075C106.764 13.2814 106.532 13.381 106.289 13.3844H103.15C102.042 13.3844 101.212 13.6614 100.566 14.3075C100.012 14.8614 99.6425 15.6921 99.6425 16.7998V26.3998C99.6425 26.6767 99.6425 26.9537 99.4578 27.1383C99.2733 27.2788 99.0426 27.3447 98.8117 27.3229H94.9348ZM115.15 27.6921C113.858 27.6921 112.75 27.5075 111.642 26.9537C110.687 26.4847 109.863 25.7871 109.242 24.9229C108.596 24.0921 108.319 23.0767 108.319 22.1537C108.319 20.3075 109.058 19.0152 110.442 17.9998C111.827 17.0767 113.673 16.3383 115.981 15.969L120.689 15.3229V14.6767C120.689 13.7537 120.504 13.0152 120.042 12.4614C119.581 11.9998 118.842 11.7229 117.735 11.7229C116.996 11.7229 116.35 11.9075 115.889 12.1844C115.335 12.4614 114.966 12.9229 114.689 13.3844C114.605 13.5295 114.484 13.649 114.337 13.7303C114.191 13.8116 114.025 13.8516 113.858 13.846H110.442C110.166 13.846 109.981 13.846 109.796 13.6614C109.73 13.5864 109.679 13.4987 109.647 13.4035C109.615 13.3082 109.603 13.2075 109.612 13.1075C109.612 12.646 109.796 12.1844 110.073 11.6306C110.442 11.0767 110.904 10.5229 111.55 9.96905C112.196 9.4152 113.027 9.04597 114.042 8.58443C115.058 8.2152 116.35 8.03059 117.735 8.03059C119.304 8.03059 120.596 8.2152 121.704 8.58443C122.629 8.85514 123.478 9.33832 124.183 9.99542C124.888 10.6525 125.43 11.4654 125.766 12.369C126.135 13.2921 126.319 14.2152 126.319 15.1383V26.3998C126.319 26.6767 126.227 26.9537 126.042 27.1383C125.858 27.2788 125.627 27.3447 125.396 27.3229H121.796C121.565 27.3447 121.335 27.2788 121.15 27.1383C121.069 27.0354 121.01 26.9163 120.978 26.789C120.946 26.6616 120.942 26.529 120.966 26.3998V25.1075C120.172 26.1919 119.032 26.9734 117.735 27.3229C116.996 27.5998 116.166 27.6921 115.15 27.6921ZM116.627 23.9998C117.366 23.9998 118.104 23.7229 118.75 23.446C119.396 23.0767 119.858 22.5229 120.227 21.8767C120.596 21.1383 120.781 20.3075 120.781 19.1998V18.5537L117.366 19.1075C116.073 19.3844 115.15 19.6614 114.596 20.0306C113.95 20.5844 113.673 21.046 113.673 21.6921C113.673 22.1537 113.673 22.6152 114.042 22.8921C114.319 23.2614 114.689 23.5383 115.15 23.7229L116.627 23.9075V23.9998ZM131.581 27.3229C131.35 27.3447 131.119 27.2788 130.935 27.1383C130.837 27.0433 130.761 26.9278 130.713 26.8001C130.666 26.6724 130.647 26.5357 130.658 26.3998V9.3229C130.658 9.04597 130.75 8.86136 130.935 8.67674C131.119 8.49213 131.304 8.39982 131.581 8.39982H135.089C135.366 8.39982 135.642 8.49213 135.827 8.67674L136.012 9.3229V10.7998C136.742 9.8967 137.673 9.17624 138.731 8.69555C139.788 8.21487 140.943 7.9872 142.104 8.03059C143.581 8.03059 144.873 8.39982 145.796 9.04597C146.915 9.69012 147.815 10.6547 148.381 11.8152C149.027 13.1075 149.304 14.5844 149.304 16.246V26.3998C149.304 26.6767 149.304 26.9537 149.027 27.1383C148.867 27.2581 148.673 27.3229 148.473 27.3229H144.596C144.365 27.3447 144.135 27.2788 143.95 27.1383C143.852 27.0433 143.777 26.9278 143.729 26.8001C143.681 26.6724 143.662 26.5357 143.673 26.3998V16.6152C143.673 15.3229 143.396 14.3075 142.75 13.6614C142.104 12.9229 141.273 12.5537 139.981 12.5537C138.873 12.5537 137.95 12.9229 137.304 13.6614C136.658 14.3075 136.289 15.3229 136.289 16.6152V26.4921C136.289 26.769 136.289 27.046 136.012 27.2306C135.852 27.3504 135.658 27.4152 135.458 27.4152H131.581V27.3229ZM160.658 27.6921C159.55 27.6921 158.442 27.5075 157.519 27.1383C156.596 26.769 155.673 26.2152 155.119 25.3844C154.45 24.5675 153.948 23.6264 153.642 22.6152C153.166 21.093 152.948 19.5018 152.996 17.9075V16.6152C152.996 15.4152 153.273 14.2152 153.55 13.1998C153.919 12.1844 154.473 11.2614 155.027 10.4306C155.68 9.6674 156.502 9.0669 157.427 8.67674C158.35 8.30751 159.55 8.03059 160.75 8.03059C161.862 7.99992 162.966 8.2208 163.981 8.67674C164.831 9.06398 165.587 9.63084 166.196 10.3383V2.39982C166.196 2.1229 166.289 1.93828 166.473 1.75367C166.658 1.56905 166.842 1.47674 167.119 1.47674H170.812C171.089 1.47674 171.273 1.56905 171.458 1.75367C171.642 1.93828 171.735 2.1229 171.735 2.39982V26.3998C171.735 26.6767 171.735 26.9537 171.458 27.1383C171.298 27.2581 171.104 27.3229 170.904 27.3229H167.396C167.165 27.3447 166.935 27.2788 166.75 27.1383C166.652 27.0433 166.577 26.9278 166.529 26.8001C166.481 26.6724 166.462 26.5357 166.473 26.3998V25.1998C165.836 25.9644 165.051 26.5924 164.166 27.046C163.242 27.5075 162.135 27.6921 160.75 27.6921H160.658ZM162.504 23.3537C163.335 23.3537 164.073 23.169 164.535 22.7075C165.089 22.3383 165.458 21.7844 165.735 21.1383C166.012 20.4921 166.196 19.846 166.196 19.1075C166.292 18.1869 166.292 17.2589 166.196 16.3383C166.196 15.6921 166.012 15.046 165.735 14.4921C165.458 13.9383 165.089 13.3844 164.535 13.0152C163.981 12.646 163.335 12.4614 162.412 12.4614C161.489 12.4614 160.75 12.646 160.196 13.0152C159.735 13.4767 159.273 13.9383 159.089 14.5844C158.46 16.7239 158.46 18.9988 159.089 21.1383C159.273 21.7844 159.735 22.3383 160.196 22.7998C160.858 23.2139 161.633 23.4078 162.412 23.3537H162.504Z" fill="#53616E"/>
</g>
<defs>
<clipPath id="clip0_341_313">
<rect width="170.769" height="36" fill="white" transform="translate(0.965332)"/>
</clipPath>
</defs>
</svg>
