<svg width="182" height="36" viewBox="0 0 182 36" fill="none" xmlns="http://www.w3.org/2000/svg">
<g clip-path="url(#clip0_339_111)">
<mask id="mask0_339_111" style="mask-type:luminance" maskUnits="userSpaceOnUse" x="0" y="0" width="182" height="36">
<path d="M181.434 0H0.101074V35.8279H181.434V0Z" fill="white"/>
</mask>
<g mask="url(#mask0_339_111)">
<path d="M0.126953 4.06641H27.05V22.4001C27.05 23.6077 26.4858 24.7653 25.4816 25.6192C24.4773 26.4729 23.1146 26.9525 21.6944 26.9525H5.48311C4.06224 26.9525 2.70015 26.4729 1.69531 25.6192C0.690482 24.7653 0.126953 23.6053 0.126953 22.3979V4.06641Z" fill="#53616E"/>
<path d="M0.101074 4.07751L3.07973 0.963111C3.36038 0.661001 3.70238 0.422383 4.08279 0.263255C4.48186 0.0951528 4.90966 0.00576236 5.34265 0H21.8689C22.3013 0.0074194 22.7284 0.0975775 23.1269 0.265604C23.5083 0.423724 23.8517 0.660847 24.1348 0.961348L27.0429 4.07573L0.101074 4.07751Z" fill="#53616E"/>
<path d="M13.5191 17.9929C12.9637 17.9931 12.4089 17.9537 11.8591 17.8755L11.7886 17.8637C8.93566 17.3348 6.309 15.9909 4.39394 14.0841L4.01904 13.7109L6.42828 11.2905L6.80319 11.6637C8.22758 13.0822 10.2067 14.0888 12.3762 14.4989C12.7515 14.5496 13.1298 14.5745 13.5085 14.5736C16.6847 14.5736 19.222 12.712 20.4512 11.6026L20.8437 11.25L23.1355 13.7861L22.7429 14.1388C21.1459 15.5791 17.8287 17.9929 13.5191 17.9929Z" fill="white"/>
<path d="M40.2886 27.068V0.00395587H54.6054C57.0416 -0.0624453 59.4186 0.709101 61.2814 2.1664C62.111 2.81048 62.7819 3.63605 63.2428 4.57976C63.6916 5.50167 63.9118 6.51813 63.8846 7.54313C63.901 8.56688 63.6759 9.58009 63.2275 10.5006C62.768 11.4425 62.103 12.2692 61.2814 12.9199C62.4227 13.5544 63.3828 14.4703 64.0702 15.5807C64.7355 16.6589 65.0943 17.8981 65.1079 19.1651C65.1286 20.2397 64.8884 21.3033 64.408 22.2648C63.9147 23.2495 63.2011 24.1073 62.3226 24.7716C60.4011 26.2935 57.9366 27.0951 55.4116 27.0187L40.2886 27.068ZM46.9651 5.64629V10.5517H54.5402C55.1658 10.5831 55.7818 10.3897 56.2772 10.0064C56.752 9.64112 57.0639 9.1034 57.1451 8.50977C57.171 8.38217 57.171 8.25071 57.1451 8.12312C57.1536 7.79953 57.0924 7.47789 56.9659 7.17999C56.8366 6.87613 56.6459 6.60227 56.4059 6.37553C56.1595 6.14213 55.8702 5.95892 55.5538 5.83609C55.2315 5.7102 54.8886 5.64581 54.5426 5.64629H46.9651ZM46.9651 15.9296V21.4151H55.3858C56.1584 21.4192 56.9044 21.1324 57.4754 20.6119C57.7475 20.3673 57.9651 20.0684 58.114 19.7343C58.2631 19.4001 58.34 19.0385 58.34 18.6727C58.34 18.3069 58.2631 17.9452 58.114 17.6111C57.9651 17.2769 57.7475 16.978 57.4754 16.7335C56.9044 16.2129 56.1584 15.9261 55.3858 15.9303L46.9651 15.9296Z" fill="#53616E"/>
<path d="M69.3639 6.96338H75.5984V18.3209C75.5679 18.825 75.648 19.3297 75.8335 19.7993C76.0231 20.2777 76.3111 20.7108 76.6791 21.0704C77.0579 21.4405 77.5063 21.7317 77.9983 21.9272C79.0105 22.3298 80.1387 22.3298 81.1509 21.9272C81.6431 21.732 82.0916 21.4406 82.4701 21.0704C82.838 20.7106 83.1263 20.2776 83.3163 19.7993C83.5017 19.3297 83.582 18.825 83.5513 18.3209V6.96338H89.7983V27.0682H83.5501V25.0145C82.8479 25.8662 81.9551 26.541 80.944 26.9842C79.9085 27.44 78.7843 27.6586 77.6533 27.6241C76.5503 27.6428 75.4536 27.4521 74.4215 27.0624C73.4085 26.6813 72.4807 26.1045 71.6908 25.3648C70.9221 24.6593 70.3101 23.8002 69.8944 22.8433C69.4887 21.905 69.2935 20.8893 69.3227 19.8676L69.3639 6.96338Z" fill="#53616E"/>
<path d="M94.73 27.0678V6.963H100.977V8.77523C101.681 8.01412 102.544 7.41625 103.504 7.02352C104.484 6.62088 105.538 6.42735 106.598 6.45529C107.875 6.4036 109.147 6.65553 110.308 7.19041C111.44 7.709 112.424 8.50319 113.171 9.50034C113.879 8.47741 114.845 7.66 115.971 7.13107C117.128 6.58384 118.404 6.3342 119.682 6.40476C120.777 6.38185 121.866 6.56114 122.895 6.93362C123.907 7.29822 124.84 7.85291 125.643 8.5678C126.421 9.22791 127.045 10.0502 127.471 10.977C127.887 11.8842 128.09 12.8746 128.064 13.8722V27.0678H121.801V15.4688C121.843 14.9994 121.781 14.5265 121.617 14.0844C121.45 13.6345 121.188 13.2257 120.849 12.8856C120.501 12.5355 120.085 12.2595 119.627 12.0741C118.685 11.6933 117.631 11.6933 116.689 12.0741C116.231 12.2594 115.815 12.5354 115.467 12.8856C115.128 13.2254 114.866 13.6342 114.699 14.0844C114.535 14.5264 114.473 14.9994 114.515 15.4688V27.0678H108.265V15.4688C108.308 14.9994 108.245 14.5264 108.081 14.0844C107.914 13.6344 107.653 13.2255 107.314 12.8856C106.965 12.5355 106.55 12.2595 106.092 12.0741C105.149 11.6933 104.096 11.6933 103.153 12.0741C102.696 12.2595 102.28 12.5355 101.931 12.8856C101.592 13.2255 101.331 13.6344 101.164 14.0844C101 14.5264 100.937 14.9994 100.98 15.4688V27.0678H94.73Z" fill="#53616E"/>
<path d="M132.954 35.768V6.96344H139.201V8.29264C141.177 6.91408 143.639 6.27299 146.099 6.49687C148.559 6.72075 150.839 7.79257 152.489 9.50078C154.473 11.5721 155.531 14.2693 155.444 17.04C155.516 19.8088 154.461 22.5007 152.489 24.5797C151.564 25.5648 150.439 26.3404 149.189 26.8544C147.913 27.3824 146.543 27.6436 145.163 27.6219C143.009 27.6353 140.913 26.9855 139.201 25.7732V35.828L132.954 35.768ZM139.293 17.0523C139.261 17.6672 139.361 18.2817 139.587 18.8545C139.817 19.438 140.167 19.9675 140.612 20.41C141.069 20.8651 141.611 21.2271 142.205 21.4759C142.812 21.7311 143.461 21.8707 144.119 21.8872C144.753 21.8955 145.384 21.7743 145.971 21.5312C146.545 21.2941 147.064 20.9379 147.491 20.4857C147.955 20.0455 148.324 19.5132 148.572 18.9227C148.815 18.3436 148.929 17.7188 148.909 17.0911C148.968 16.4695 148.888 15.8424 148.673 15.256C148.455 14.6588 148.111 14.1159 147.663 13.6641C147.203 13.199 146.652 12.8324 146.045 12.5864C144.797 12.0788 143.4 12.0788 142.151 12.5864C141.544 12.8325 140.995 13.1992 140.533 13.6641C140.087 14.116 139.741 14.6589 139.523 15.256C139.309 15.8424 139.228 16.4695 139.288 17.0911L139.293 17.0523Z" fill="#53616E"/>
<path d="M161.898 9.50067C162.825 8.51858 163.952 7.74618 165.201 7.23539C166.477 6.71171 167.848 6.45455 169.226 6.47971C171.388 6.44915 173.498 7.08672 175.226 8.29252V6.96332H181.434V27.0682H175.226V25.6667C173.533 26.9478 171.41 27.6399 169.226 27.624C167.849 27.6484 166.48 27.3922 165.205 26.8707C163.956 26.3619 162.828 25.5932 161.898 24.6155C159.94 22.533 158.898 19.8404 158.984 17.0763C158.876 14.298 159.92 11.5867 161.898 9.50067ZM165.49 16.9916C165.442 17.6096 165.532 18.2307 165.752 18.8103C165.977 19.4004 166.325 19.9356 166.773 20.3804C167.234 20.8384 167.782 21.1991 168.385 21.4411C169.626 21.9402 171.013 21.9402 172.254 21.4411C172.857 21.199 173.405 20.8383 173.866 20.3804C174.314 19.9355 174.662 19.4003 174.888 18.8103C175.108 18.2307 175.196 17.6096 175.148 16.9916C175.166 16.3643 175.05 15.7402 174.808 15.1612C174.56 14.571 174.193 14.0383 173.729 13.5964C173.292 13.149 172.765 12.7969 172.185 12.5622C171.592 12.3229 170.958 12.203 170.32 12.2096C169.668 12.2243 169.024 12.3598 168.422 12.6092C167.83 12.8525 167.292 13.2079 166.836 13.6558C166.392 14.0911 166.041 14.6123 165.805 15.1876C165.576 15.7527 165.468 16.3602 165.49 16.9699V16.9916Z" fill="#53616E"/>
</g>
</g>
<defs>
<clipPath id="clip0_339_111">
<rect width="181.333" height="36" fill="white" transform="translate(0.101074)"/>
</clipPath>
</defs>
</svg>
