<svg width="194" height="36" viewBox="0 0 194 36" fill="none" xmlns="http://www.w3.org/2000/svg">
<path fill-rule="evenodd" clip-rule="evenodd" d="M68.1998 24.5311C66.8622 29.2637 63.1072 32.2988 57.4486 32.2988C50.1954 32.2988 45.2573 27.3086 45.2573 19.5416C45.2573 11.4653 51.2245 5.65234 59.6091 5.65234C62.9526 5.65234 65.2162 6.37231 66.6052 6.88683L67.3767 14.2944L66.8622 14.3974C63.8787 9.71632 61.1522 6.68126 58.889 6.68126C55.9571 6.68126 53.5905 10.3334 53.5905 16.198C53.5905 23.6052 57.5001 26.4862 61.9751 26.4862C64.4446 26.4862 66.7078 25.6117 67.9428 24.3767L68.1998 24.5311Z" fill="#53616E"/>
<path fill-rule="evenodd" clip-rule="evenodd" d="M88.8687 19.0271C88.8687 11.7225 87.2226 6.62983 83.5701 6.62983C79.8666 6.62983 78.272 11.7225 78.272 19.0271C78.272 26.3317 79.918 31.3213 83.5701 31.3213C87.2226 31.3213 88.8687 26.3317 88.8687 19.0271ZM69.7329 19.0271C69.7329 11.8769 76.0085 5.65234 83.5702 5.65234C91.1322 5.65234 97.4079 11.8769 97.4079 19.0271C97.4079 26.1771 91.1322 32.2988 83.5702 32.2988C76.0085 32.2988 69.7329 26.1771 69.7329 19.0271Z" fill="#53616E"/>
<path fill-rule="evenodd" clip-rule="evenodd" d="M110.62 31.5271H99.8687V31.4241C100.692 28.9034 101.155 26.8455 101.155 22.4733L101.103 16.6604C101.103 12.8542 100.383 10.6422 98.5312 8.48163V8.37865L109.179 5.39502V10.5392L109.385 10.5906C110.774 8.43008 113.449 5.65215 118.028 5.65215C122.554 5.65215 125.744 8.43008 125.744 12.8027V22.4219C125.744 26.7944 126.104 28.9034 126.977 31.4241V31.5271H116.227V31.4241C117.101 28.9034 117.462 26.6915 117.462 22.5249V13.3173C117.462 11.1567 116.381 9.51016 113.912 9.51016C112.009 9.51016 110.362 10.6422 109.385 12.0307V22.4733C109.385 26.743 109.797 28.9034 110.62 31.4241V31.5271Z" fill="#53616E"/>
<path fill-rule="evenodd" clip-rule="evenodd" d="M131.124 25.1483V7.60697H128.243V7.14388L138.84 0.507812H139.406V6.47494H157.931V7.60697H139.406V24.9423C139.406 28.0288 141.051 29.0063 143.11 29.0063C144.91 29.0063 145.99 28.1833 146.041 28.1318L146.195 28.2863C145.064 30.2923 142.286 32.2983 138.223 32.2983C134.055 32.2983 131.124 30.2923 131.124 25.1483Z" fill="#53616E"/>
<path fill-rule="evenodd" clip-rule="evenodd" d="M148.624 31.5273V31.4242C149.446 28.9036 149.858 26.8457 149.858 22.4735V16.6604C149.858 12.8544 150.102 9.70432 148.25 7.54325V7.44079L157.934 6.47296V11.6199C160.094 9.4079 162.615 5.3438 167.04 5.65236L166.113 14.2944H165.856C164.57 12.5454 161.793 11.2594 160.506 11.2594C159.734 11.2594 158.861 11.8769 158.141 12.7514V22.4735C158.141 26.7432 158.552 28.9036 159.375 31.4242V31.5273H148.624Z" fill="#53616E"/>
<path fill-rule="evenodd" clip-rule="evenodd" d="M180.621 27.3088V18.5453C177.02 19.5223 175.013 22.0616 175.013 24.4797C175.013 26.4857 176.197 27.8233 178.461 27.8233C179.283 27.8233 180.054 27.6172 180.621 27.3088ZM180.775 28.2863C179.335 30.3953 176.866 32.2983 173.574 32.2983C170.436 32.2983 167.76 30.0156 167.76 26.1911C167.76 20.6351 174.807 18.6994 180.621 17.4649V14.757C180.621 11.7735 179.335 10.3335 175.682 10.3335C173.677 10.3335 171.31 10.7445 168.995 11.722L168.789 11.3625C171.258 8.37849 175.323 5.65186 180.878 5.65186C186.382 5.65186 188.902 8.37849 188.902 12.391V25.6112C188.902 26.8457 189.469 27.9263 191.115 27.9263C191.68 27.9263 192.4 27.7718 193.07 27.3088L193.173 27.5142C192.453 29.2122 190.651 32.2473 186.279 32.2473C183.141 32.2473 181.238 30.6009 180.775 28.2863Z" fill="#53616E"/>
<path fill-rule="evenodd" clip-rule="evenodd" d="M137.766 7.38899H157.936V6.1665H137.766V7.38899Z" fill="#53616E"/>
<path fill-rule="evenodd" clip-rule="evenodd" d="M19.3315 17.0244H35.6851C35.8704 17.0244 36.0205 16.8742 36.0205 16.689V16.1874C36.0205 16.0344 35.917 15.901 35.7687 15.8625C28.0998 13.8921 22.0822 7.90958 20.0631 0.250278C20.0241 0.102996 19.8908 0 19.7388 0H19.3315C19.1463 0 18.9961 0.150167 18.9961 0.335458V16.689C18.9961 16.8742 19.1463 17.0244 19.3315 17.0244Z" fill="#53616E"/>
<path fill-rule="evenodd" clip-rule="evenodd" d="M19.3315 35.9995H19.8331C19.9861 35.9995 20.1199 35.8961 20.158 35.7478C22.1284 28.0793 28.1109 22.0612 35.7707 20.0422C35.918 20.0032 36.0205 19.8699 36.0205 19.7177V19.3106C36.0205 19.1258 35.8704 18.9756 35.6851 18.9756H19.3315C19.1463 18.9756 18.9961 19.1258 18.9961 19.3106V35.664C18.9961 35.8494 19.1463 35.9995 19.3315 35.9995Z" fill="#53616E"/>
<path fill-rule="evenodd" clip-rule="evenodd" d="M16.2817 36H16.6884C16.8738 36 17.0239 35.8499 17.0239 35.664V19.311C17.0239 19.1258 16.8738 18.9756 16.6884 18.9756H0.335458C0.150167 18.9756 0 19.1258 0 19.311V19.8121C0 19.9656 0.103479 20.099 0.251714 20.1375C7.92015 22.1079 13.9383 28.0899 15.9574 35.7498C15.9964 35.897 16.1292 36 16.2817 36Z" fill="#53616E"/>
<path fill-rule="evenodd" clip-rule="evenodd" d="M0.335458 17.0244H16.6884C16.8738 17.0244 17.0239 16.8742 17.0239 16.689V0.335458C17.0239 0.150167 16.8738 0 16.6884 0H16.1874C16.0344 0 15.9006 0.103962 15.8625 0.252197C13.8916 7.92068 7.90958 13.9388 0.249795 15.9579C0.102513 15.9964 0 16.1297 0 16.2823V16.689C0 16.8742 0.150167 17.0244 0.335458 17.0244Z" fill="#53616E"/>
</svg>
