<svg width="151" height="36" viewBox="0 0 151 36" fill="none" xmlns="http://www.w3.org/2000/svg">
<g clip-path="url(#clip0_341_308)">
<path d="M0 3.55322V29.0123H7.49298C15.6671 29.0123 20.9179 24.2441 20.9179 16.297C20.9179 8.32148 15.6671 3.55322 7.49298 3.55322H0ZM7.49298 8.9459C11.6652 8.9459 14.4467 11.4152 14.4467 16.297C14.4467 21.1504 11.6652 23.648 7.49298 23.648H6.21576V8.9459H7.49298ZM40.0761 21.0652C40.1045 20.6111 40.1045 20.2137 40.1045 19.8448C40.1045 13.3452 36.8121 9.45678 30.7382 9.45678C25.1185 9.45678 21.3436 13.9128 21.3436 19.5326C21.3436 25.1523 25.2036 29.4948 31.5046 29.4948C36.4431 29.4948 39.0543 26.4011 39.622 25.2658L35.62 22.1721C35.251 22.7398 33.8887 24.2157 31.6181 24.2157C29.3475 24.2157 27.7013 22.7682 27.5594 21.0652H40.0761ZM30.8518 14.367C32.725 14.367 33.8603 15.6725 33.9455 17.2052H27.7581C27.9 15.8428 28.8366 14.367 30.8518 14.367ZM50.9749 24.1589C48.1935 24.1589 46.2918 22.2573 46.2918 19.4474C46.2918 16.9214 47.8813 14.9062 50.7763 14.9062C52.1954 14.9062 53.5294 15.4455 54.5795 16.3253L56.2257 11.1881C54.8917 10.2515 53.0185 9.45678 50.5492 9.45678C44.6457 9.45678 40.218 13.629 40.218 19.5042C40.218 25.351 44.5037 29.4948 50.5776 29.4948C52.9901 29.4948 54.9201 28.6717 56.1973 27.7919L54.5795 22.7966C53.7564 23.5061 52.3941 24.1589 50.9749 24.1589ZM56.2541 23.0804C56.2541 27.2526 59.6032 29.4948 63.3497 29.4948C65.3081 29.4948 66.6988 28.9556 67.6638 27.9622L68.0044 29.0123H73.4255V17.2052C73.4255 12.8343 71.7509 9.45678 65.1662 9.45678C61.9874 9.45678 59.4045 10.4785 57.3894 11.8125L59.6316 15.8996C61.1359 15.1617 62.7537 14.6792 64.4282 14.6792C66.415 14.6792 67.3516 15.5874 67.3516 16.7511V17.4606C66.6705 17.1484 65.3365 16.7511 63.6619 16.7511C59.1491 16.7511 56.2541 19.2771 56.2541 23.0804ZM62.3279 22.8817C62.3279 21.6329 63.4065 20.8382 64.8824 20.8382C66.3299 20.8382 67.4652 21.5761 67.4652 22.8817C67.4652 24.1589 66.3583 24.8401 64.9108 24.8401C63.4916 24.8401 62.3279 24.1589 62.3279 22.8817ZM88.4682 28.0473C88.4682 30.3747 86.226 30.8856 83.9554 30.8856C81.3726 30.8856 79.2439 29.9773 78.6763 29.7219L76.9165 34.3766C78.6195 35.2565 81.2591 35.9944 83.9554 35.9944C89.6319 35.9944 94.5421 33.7806 94.5421 26.7417V9.9109H88.8656V11.4152C88.3263 10.7908 86.5098 9.45678 83.7 9.45678C78.2221 9.45678 74.3621 13.6006 74.3621 19.4474C74.3621 25.3794 77.8532 29.4948 83.3877 29.4948C86.2828 29.4948 88.0709 28.0473 88.4682 27.5648V28.0473ZM88.6669 19.419C88.6669 22.4276 86.9356 24.1589 84.5514 24.1589C82.0822 24.1589 80.436 22.2289 80.436 19.419C80.436 16.5808 82.0822 14.7927 84.523 14.7927C87.1342 14.7927 88.6669 16.8646 88.6669 19.419ZM144.751 29.0123H150.825V18.4256C150.825 14.5372 150.257 9.45678 144.268 9.45678C141.884 9.45678 140.209 10.7624 139.472 11.8977V9.9109H133.54V29.0123H139.613V17.6309C139.613 16.0983 140.578 14.9062 142.253 14.9062C143.701 14.9062 144.751 15.8428 144.751 17.6309V29.0123Z" fill="#53616E"/>
<path fill-rule="evenodd" clip-rule="evenodd" d="M109.131 8.49173C109.954 8.49173 110.777 8.57688 111.6 8.74718L110.606 11.4719C110.152 11.4151 109.67 11.3867 109.187 11.3867C107.967 11.3867 106.803 11.5854 105.696 11.9828L105.242 9.08777C106.463 8.69041 107.768 8.49173 109.131 8.49173ZM107.598 26.5998C107.172 25.8618 106.832 25.0955 106.576 24.3292L109.443 23.8183C109.613 24.244 109.812 24.6698 110.067 25.0671C110.663 26.1456 111.43 27.0539 112.309 27.7918L110.067 29.6367C109.102 28.7852 108.279 27.7634 107.598 26.5998ZM130.957 21.8031C130.872 22.4275 130.758 23.0236 130.616 23.6196L129.367 23.0803C129.509 22.5694 129.651 22.0586 129.736 21.5477L130.957 21.8031ZM129.254 26.7701C128.885 27.4229 128.431 28.0189 127.92 28.5865L126.728 27.3093C127.182 26.8836 127.579 26.4011 127.948 25.8902L129.254 26.7701ZM125.734 30.5449C125.422 30.772 125.11 30.999 124.769 31.1977C124.173 31.5383 123.549 31.8221 122.924 32.0492L122.357 29.9205C123.095 29.6935 123.861 29.3812 124.571 28.9555C124.684 28.8987 124.769 28.842 124.883 28.7852L125.734 30.5449ZM120.654 32.6736C119.348 32.9007 118.014 32.9291 116.709 32.7304L117.532 30.2327C118.582 30.4314 119.689 30.4314 120.796 30.2895L120.654 32.6736ZM115.29 32.4466L116.368 29.9773C115.148 29.6367 113.984 29.069 112.962 28.3027L111.004 30.403C112.281 31.368 113.757 32.0492 115.29 32.4466ZM101.581 31.1126C101.098 30.7436 100.616 30.3463 100.19 29.8921L101.269 29.0974C101.638 29.4948 102.007 29.8637 102.432 30.2043L101.581 31.1126ZM98.1182 27.1674C97.7776 26.5146 97.4654 25.8051 97.2099 25.0955L98.9129 24.6981C99.0832 25.2942 99.2818 25.8902 99.5373 26.4578L98.1182 27.1674ZM96.6139 22.2289C96.5571 21.8315 96.5571 21.4625 96.5571 21.0652C96.5571 20.3556 96.6139 19.7028 96.7274 19.0216L98.8561 19.5893C98.6574 20.3556 98.5723 21.1787 98.5723 22.0018V22.3424L96.6139 22.2289ZM97.3235 16.751C97.7776 15.5022 98.4304 14.3385 99.2251 13.3168L100.985 15.2468C100.304 16.0982 99.736 17.0349 99.3102 18.085L97.3235 16.751ZM100.19 12.2098L101.78 14.3953C102.688 13.5154 103.766 12.7775 104.93 12.2666L104.107 9.54189C102.631 10.1663 101.297 11.0745 100.19 12.2098ZM124.031 18.8513C123.606 19.5893 123.123 20.2705 122.584 20.8665L120.711 18.6527C120.994 18.2837 121.25 17.8863 121.477 17.489C122.101 16.4104 122.499 15.3035 122.726 14.1682L125.451 15.19C125.167 16.4672 124.713 17.6877 124.031 18.8513ZM108.222 1.02714C108.79 0.771698 109.358 0.573021 109.954 0.431108L110.096 1.76509C109.585 1.87862 109.074 2.02053 108.591 2.21921L108.222 1.02714ZM113.36 0.00537109C114.098 0.00537109 114.864 0.0905186 115.602 0.232431L115.091 1.907C114.495 1.7367 113.87 1.65156 113.246 1.59479L113.36 0.00537109ZM118.383 1.14067C118.752 1.31097 119.093 1.48126 119.433 1.67994C120.029 2.02053 120.597 2.41788 121.108 2.84362L119.547 4.40466C118.979 3.86539 118.326 3.38289 117.589 2.95715C117.503 2.90038 117.39 2.84362 117.305 2.78685L118.383 1.14067ZM122.783 4.4898C123.634 5.51157 124.315 6.67526 124.798 7.86732L122.243 8.43497C121.846 7.4132 121.307 6.4482 120.625 5.56834L122.783 4.4898ZM125.28 9.25806C125.678 10.7907 125.819 12.4085 125.621 13.9979L122.839 13.3451C122.981 12.0679 122.896 10.7907 122.584 9.57027L125.28 9.25806Z" fill="#53616E"/>
<path fill-rule="evenodd" clip-rule="evenodd" d="M103.142 17.0915C103.568 16.3819 104.05 15.7007 104.59 15.0763L106.463 17.2902C106.179 17.6591 105.924 18.0565 105.668 18.4822C105.072 19.5324 104.646 20.6677 104.448 21.803L101.723 20.7528C102.007 19.504 102.461 18.2552 103.142 17.0915ZM119.576 9.37145C120.001 10.1094 120.314 10.8473 120.597 11.6421L117.731 12.1529C117.56 11.7272 117.333 11.3015 117.106 10.8757C116.482 9.82557 115.716 8.91733 114.836 8.151L117.106 6.33453C118.043 7.186 118.894 8.20777 119.576 9.37145ZM96.2168 14.1397C96.2736 13.5437 96.3871 12.9476 96.5574 12.3516L97.8062 12.8909C97.6359 13.3734 97.5224 13.8843 97.4372 14.4235L96.2168 14.1397ZM97.9197 9.17277C98.2887 8.54836 98.7428 7.92394 99.2253 7.3563L100.417 8.63351C99.9917 9.08763 99.5659 9.57013 99.2253 10.0526L97.9197 9.17277ZM101.411 5.3979C101.723 5.17084 102.064 4.97217 102.404 4.77349C103 4.4329 103.596 4.12069 104.221 3.89363L104.817 6.02232C104.05 6.24938 103.312 6.56159 102.574 6.98732C102.489 7.04409 102.376 7.10085 102.291 7.15762L101.411 5.3979ZM106.52 3.26922C107.825 3.04216 109.159 3.01377 110.465 3.21245L109.642 5.71011C108.563 5.53982 107.456 5.51143 106.378 5.68173L106.52 3.26922ZM111.884 3.49628L110.805 5.96555C112.026 6.30614 113.161 6.87379 114.211 7.64012L116.17 5.53982C114.864 4.60319 113.417 3.89363 111.884 3.49628ZM118.043 27.4511C117.191 27.4511 116.368 27.3659 115.574 27.224L116.567 24.4709C117.021 24.5277 117.504 24.5845 117.958 24.5845C119.207 24.5845 120.37 24.3574 121.477 23.9884L121.903 26.8551C120.683 27.2524 119.405 27.4511 118.043 27.4511ZM125.593 4.85864C126.075 5.22761 126.529 5.62496 126.955 6.0507L125.876 6.87379C125.536 6.47644 125.139 6.10747 124.741 5.76688L125.593 4.85864ZM129.027 8.8038C129.396 9.4566 129.708 10.1378 129.964 10.8473L128.261 11.2447C128.09 10.6487 127.863 10.0526 127.608 9.48498L129.027 8.8038ZM130.56 13.7424C130.588 14.1113 130.616 14.5087 130.616 14.906C130.616 15.5872 130.56 16.2684 130.446 16.9212L128.317 16.3535C128.488 15.5872 128.601 14.7925 128.601 13.941C128.601 13.8275 128.601 13.714 128.573 13.6004L130.56 13.7424ZM129.85 19.2202C129.396 20.469 128.743 21.6327 127.948 22.6545L126.16 20.6961C126.87 19.8446 127.438 18.908 127.835 17.8862L129.85 19.2202ZM126.955 23.733L125.366 21.5759C124.457 22.4558 123.407 23.1653 122.215 23.6762L123.067 26.4293C124.543 25.7765 125.848 24.8683 126.955 23.733ZM118.951 34.9441C118.384 35.1711 117.816 35.3698 117.22 35.5401L117.05 34.1777C117.56 34.0926 118.071 33.9223 118.582 33.752L118.951 34.9441ZM113.814 35.9375C113.048 35.9375 112.31 35.8523 111.572 35.7104L112.083 34.0358C112.679 34.2061 113.303 34.3197 113.899 34.3764L113.814 35.9375ZM108.762 34.8022C108.421 34.6319 108.081 34.4616 107.74 34.2629C107.144 33.9223 106.576 33.525 106.066 33.0992L107.598 31.5382C108.194 32.0774 108.847 32.5883 109.557 32.9857C109.67 33.0424 109.755 33.0992 109.869 33.156L108.762 34.8022ZM104.391 31.453C103.511 30.4313 102.858 29.296 102.347 28.0755L104.93 27.5079C105.299 28.5296 105.838 29.4946 106.548 30.3745L104.391 31.453ZM101.893 26.6848C101.468 25.1521 101.354 23.5627 101.524 21.9449L104.306 22.5977C104.164 23.8749 104.277 25.1521 104.59 26.4009L101.893 26.6848Z" fill="#53616E"/>
</g>
<defs>
<clipPath id="clip0_341_308">
<rect width="150.825" height="36" fill="white"/>
</clipPath>
</defs>
</svg>
