<svg width="198" height="36" viewBox="0 0 198 36" fill="none" xmlns="http://www.w3.org/2000/svg">
<g clip-path="url(#clip0_341_275)">
<path d="M29.2183 30.4617H42.1414V17.5386C38.714 17.5386 35.4269 18.9001 33.0034 21.3237C30.5798 23.7472 29.2183 27.0342 29.2183 30.4617Z" fill="#53616E"/>
<path d="M14.9097 17.5386V30.4617H27.8327C27.8327 28.7641 27.4985 27.0834 26.849 25.5151C26.1995 23.947 25.2474 22.5222 24.0474 21.322C22.8473 20.122 21.4226 19.1703 19.8548 18.5211C18.2868 17.8719 16.6065 17.538 14.9097 17.5386Z" fill="#53616E"/>
<path d="M0.601074 17.5386C0.601074 19.2361 0.935382 20.9169 1.58488 22.4851C2.23438 24.0532 3.18631 25.4781 4.38638 26.6781C5.58646 27.8782 7.01113 28.83 8.579 29.4792C10.1469 30.1284 11.8273 30.4623 13.5242 30.4617V17.5386H0.601074Z" fill="#53616E"/>
<path d="M116.692 5.53857L110.654 22.11L104.667 5.53857H99.3696L108.096 28.542L105.374 36.0002H110.442L121.985 5.53857H116.692Z" fill="#53616E"/>
<path d="M194.682 5.53858C195.04 5.53912 195.393 5.62143 195.706 5.77761C196.03 5.93337 196.297 6.16953 196.474 6.45756C196.659 6.73857 196.755 7.05776 196.755 7.38272C196.755 7.70769 196.659 8.02688 196.474 8.30788C196.299 8.59476 196.033 8.83071 195.711 8.98785C195.394 9.14715 195.037 9.23088 194.674 9.23088C194.311 9.23088 193.954 9.14715 193.639 8.98785C193.318 8.82961 193.053 8.59394 192.874 8.30788C192.694 8.02666 192.6 7.70843 192.601 7.38479C192.603 7.05954 192.699 6.7401 192.879 6.45756C193.057 6.16837 193.326 5.93195 193.653 5.77761C193.966 5.61987 194.322 5.53749 194.682 5.53858ZM194.682 5.90124C194.395 5.90096 194.112 5.96624 193.861 6.09081C193.6 6.21698 193.384 6.40716 193.24 6.63888C193.095 6.86606 193.017 7.12293 193.014 7.38479C193.014 7.64507 193.09 7.90079 193.236 8.12655C193.38 8.35716 193.593 8.54714 193.852 8.67465C194.106 8.8041 194.392 8.87223 194.685 8.87223C194.976 8.87223 195.262 8.8041 195.516 8.67465C195.774 8.54591 195.987 8.35623 196.132 8.12655C196.278 7.90079 196.354 7.64507 196.354 7.38479C196.353 7.12293 196.273 6.86606 196.128 6.63888C195.991 6.40487 195.781 6.21042 195.525 6.07844C195.265 5.95542 194.976 5.89436 194.682 5.90124ZM193.755 8.37383V6.41636H194.908C195.028 6.41883 195.145 6.44562 195.252 6.49466C195.339 6.53882 195.411 6.60285 195.46 6.68012C195.516 6.76668 195.544 6.8648 195.544 6.96446C195.546 7.09901 195.49 7.22916 195.387 7.32711C195.27 7.43178 195.115 7.49728 194.95 7.51252C195.006 7.52844 195.058 7.55361 195.103 7.5867C195.159 7.63101 195.208 7.68081 195.252 7.73508C195.252 7.75569 195.321 7.83398 195.414 7.97408L195.673 8.38619H195.121L194.937 8.06888C194.863 7.91598 194.76 7.77628 194.631 7.65678C194.539 7.60027 194.431 7.57137 194.32 7.57436H194.205V8.39856L193.755 8.37383ZM194.218 7.26116H194.4C194.554 7.26633 194.709 7.25805 194.862 7.23644C194.922 7.21854 194.973 7.18557 195.01 7.14167C195.045 7.09638 195.061 7.04336 195.061 6.98919C195.064 6.93729 195.046 6.88625 195.01 6.84494C194.973 6.80042 194.919 6.76851 194.857 6.75429C194.706 6.72821 194.55 6.71852 194.394 6.72543H194.214L194.218 7.26116Z" fill="#53616E"/>
<path d="M185.601 5.60685V8.72226C184.584 7.55801 183.315 6.62727 181.884 5.99678C180.454 5.36628 178.897 5.05166 177.328 5.07548C170.694 5.07548 165.832 10.4064 165.832 17.0742C165.832 23.7422 170.676 29.073 177.328 29.073C178.896 29.096 180.45 28.7828 181.879 28.1555C183.309 27.5282 184.579 26.6022 185.601 25.4435V28.5374H190.756V5.60685H185.601ZM178.354 24.5564C174.216 24.5564 171.081 21.2396 171.081 17.0615C171.081 12.8832 174.162 9.56645 178.354 9.56645C182.545 9.56645 185.601 12.9047 185.601 17.0615C185.601 21.2181 182.488 24.5564 178.354 24.5564Z" fill="#53616E"/>
<path d="M132.806 5.07545C134.347 5.05188 135.874 5.36714 137.277 5.99853C138.68 6.62994 139.924 7.56182 140.921 8.72718V5.60691H145.985V28.5417H140.921V25.4471C139.919 26.6043 138.673 27.5289 137.27 28.1556C135.868 28.7822 134.344 29.0954 132.806 29.0732C126.295 29.0732 121.524 23.7627 121.524 17.0721C121.524 10.3816 126.295 5.07545 132.806 5.07545ZM133.809 24.56C137.866 24.56 140.921 21.2424 140.921 17.0636C140.921 12.8846 137.896 9.56724 133.809 9.56724C129.721 9.56724 126.675 12.9061 126.675 17.0636C126.675 21.2211 129.751 24.56 133.809 24.56Z" fill="#53616E"/>
<path d="M98.4491 14.4251V28.6127H93.3928V14.855C93.3928 11.7467 91.2877 9.57554 88.2376 9.57554C85.0886 9.57554 82.2962 12.1938 82.2962 15.9428V28.6127H77.2183V5.60733H82.2962V8.6684C83.0926 7.55912 84.1406 6.65487 85.3541 6.03003C86.5678 5.40519 87.9124 5.07761 89.2772 5.07422C94.7975 5.07422 98.4491 8.75868 98.4491 14.4251Z" fill="#53616E"/>
<path d="M62.3761 24.9171C65.6303 24.9171 67.9375 23.7642 70.1968 21.5528L72.934 24.1886C70.4009 27.0599 67.2163 29.0742 62.4413 29.0742C54.7031 29.0742 49.5239 23.7642 49.5239 17.0742C49.5239 10.3842 54.8638 5.07422 61.9937 5.07422C69.0107 5.07422 73.9855 10.2728 73.9855 16.62C73.9832 17.2887 73.9088 17.9553 73.7639 18.6086H54.7292C55.2245 22.2642 58.2745 24.9171 62.3761 24.9171ZM54.8899 14.7856H68.6761C68.0287 11.5799 65.4262 9.25709 61.972 9.25709C60.3353 9.26705 58.7492 9.81666 57.4658 10.8185C56.1824 11.8203 55.2758 13.2168 54.8899 14.7856Z" fill="#53616E"/>
<path d="M29.2183 3.22852C29.2183 6.65593 30.5798 9.94298 33.0034 12.3665C35.4269 14.7901 38.714 16.1516 42.1414 16.1516V3.22852H29.2183Z" fill="#53616E"/>
<path d="M14.9097 16.1516C16.6065 16.1522 18.2868 15.8183 19.8548 15.1691C21.4226 14.5199 22.8473 13.5681 24.0474 12.3681C25.2474 11.168 26.1995 9.74317 26.849 8.17499C27.4985 6.6068 27.8327 4.92596 27.8327 3.22852H14.9097V16.1516Z" fill="#53616E"/>
<path d="M0.601074 16.1516H13.5242V3.22852C11.8273 3.22795 10.1469 3.5618 8.579 4.21099C7.01113 4.86019 5.58646 5.81198 4.38638 7.01206C3.18631 8.21213 2.23438 9.63698 1.58488 11.2052C0.935382 12.7733 0.601074 14.4542 0.601074 16.1516Z" fill="#53616E"/>
<path d="M164.448 25.2258V24.6486H162.283C159.376 24.6486 158.259 23.4252 158.259 20.8707V9.95506H164.158V5.50953H158.277V0H153.187V5.51383H148.755V9.95938H153.201V21.099C153.201 26.475 155.878 29.0769 160.747 29.0769C160.894 29.0769 161.046 29.0769 161.181 29.0769H164.443V25.2302L164.448 25.2258Z" fill="#53616E"/>
</g>
<defs>
<clipPath id="clip0_341_275">
<rect width="196.5" height="36" fill="white" transform="translate(0.601074)"/>
</clipPath>
</defs>
</svg>
