<svg width="182" height="36" viewBox="0 0 182 36" fill="none" xmlns="http://www.w3.org/2000/svg">
<g clip-path="url(#clip0_341_256)">
<path d="M52.6122 26.9709V15.4805H57.6375V12.9397H52.5558C52.3864 10.907 53.5439 10.3141 55.7742 10.3141H57.6375V8.05566H56.2541C52.2735 8.05566 49.9302 9.86246 49.5914 12.9397H47.4458V15.4805H49.5632V26.9709H52.6122ZM62.3804 26.9709V8.05566H59.3314V26.9709H62.3804Z" fill="#53616E"/>
<path d="M71.0417 27.2534C74.6553 27.2534 76.5186 24.9948 76.9703 22.6234H77.1398V26.9711H79.9346V12.9399H76.9138V19.8849C76.9138 22.9339 75.4741 24.5149 72.3686 24.5149C69.4042 24.5149 68.1902 23.188 68.1902 20.5625V12.9399H65.1694V21.3812C65.1694 24.6279 67.0892 27.2534 71.0417 27.2534Z" fill="#53616E"/>
<path d="M85.7542 11.3023V8.05566H82.7046V11.3023H85.7542ZM85.7542 26.9709V12.9397H82.7046V26.9709H85.7542Z" fill="#53616E"/>
<path d="M94.7596 27.2532C97.922 27.2532 99.9828 25.7287 100.576 22.9337H100.773V26.9709H103.568V8.05566H100.519V16.751H100.35C99.7852 14.3795 97.8932 12.6574 94.562 12.6574C90.2996 12.6574 87.8716 15.5935 87.8716 19.9694C87.8716 24.2889 90.3276 27.2532 94.7596 27.2532ZM90.9484 19.9694C90.9484 16.5816 92.6988 15.4241 95.6348 15.4241C98.7684 15.4241 100.519 16.8921 100.519 19.8847V20.1105C100.519 23.0467 98.6844 24.4582 95.6916 24.4582C92.6708 24.4582 90.9484 23.329 90.9484 19.9694Z" fill="#53616E"/>
<path d="M113.473 27.2535C117.68 27.2535 120.757 24.882 120.757 21.3813V21.0708H117.736V21.2684C117.736 23.4422 116.156 24.515 113.417 24.515C110.255 24.515 108.844 22.9905 108.844 19.9697C108.844 16.8924 110.255 15.3962 113.417 15.3962C116.156 15.3962 117.736 16.469 117.736 18.6428V18.8122H120.757V18.5299C120.757 15.0292 117.68 12.6577 113.473 12.6577C108.844 12.6577 105.823 15.5938 105.823 19.9697C105.823 24.2892 108.844 27.2535 113.473 27.2535Z" fill="#53616E"/>
<path d="M130.183 27.2535C134.87 27.2535 138.003 24.2892 138.003 19.9697C138.003 15.5938 134.87 12.6577 130.183 12.6577C125.525 12.6577 122.391 15.5938 122.391 19.9697C122.391 24.2892 125.525 27.2535 130.183 27.2535ZM130.183 24.5432C126.795 24.5432 125.384 22.934 125.384 19.9697C125.384 16.9772 126.795 15.3397 130.183 15.3397C133.599 15.3397 135.011 16.9772 135.011 19.9697C135.011 22.934 133.599 24.5432 130.183 24.5432Z" fill="#53616E"/>
<path d="M143.265 11.3023V8.05566H140.216V11.3023H143.265ZM143.265 26.9709V12.9397H140.216V26.9709H143.265Z" fill="#53616E"/>
<path d="M149.137 26.9712V20.0262C149.137 16.9772 150.52 15.3962 153.598 15.3962C156.506 15.3962 157.692 16.7231 157.692 19.3486V26.9712H160.74V18.5299C160.74 15.2832 158.82 12.6577 154.924 12.6577C151.368 12.6577 149.504 14.9162 149.08 17.2877H148.883V12.94H146.088V26.9712H149.137Z" fill="#53616E"/>
<path d="M170.092 27.2535C174.045 27.2535 176.642 25.7008 176.642 23.0752C176.642 20.7602 175.118 19.6309 171.786 19.2075L168.539 18.7557C166.422 18.4734 165.858 18.0782 165.858 16.9772C165.858 15.6503 166.761 15.0856 169.33 15.0856C172.435 15.0856 173.282 15.9608 173.282 17.6265V17.7959H176.303V17.7112C176.303 14.3798 173.706 12.6577 169.414 12.6577C165.095 12.6577 162.865 14.408 162.865 16.8642C162.865 19.2075 164.474 20.3368 167.128 20.6755L170.967 21.1836C172.972 21.466 173.65 21.833 173.65 22.9905C173.65 24.2327 172.83 24.7973 170.092 24.7973C167.156 24.7973 166.055 24.2044 166.055 22.3694V22.1436H163.006V22.2283C163.006 25.4749 165.575 27.2535 170.092 27.2535Z" fill="#53616E"/>
<path d="M0.978516 17.8504C0.978516 11.1043 0.978516 7.73118 2.50199 5.25591C3.34423 3.88748 4.49588 2.73583 5.8643 1.8936C8.33958 0.370117 11.743 0.370117 18.5499 0.370117C25.3568 0.370117 28.7602 0.370117 31.2355 1.8936C32.604 2.73583 33.7556 3.88748 34.5978 5.2559C36.1213 7.73118 36.1213 11.1043 36.1213 17.8504C36.1213 24.5967 36.1213 27.9697 34.5978 30.445C33.7556 31.8135 32.604 32.9651 31.2355 33.8073C28.7602 35.3308 25.3568 35.3308 18.5499 35.3308C11.743 35.3308 8.33958 35.3308 5.8643 33.8073C4.49588 32.9651 3.34423 31.8135 2.50199 30.445C0.978516 27.9697 0.978516 24.5967 0.978516 17.8504Z" fill="#53616E"/>
<path fill-rule="evenodd" clip-rule="evenodd" d="M14.075 13.4688V22.1196C14.075 24.4987 12.1286 26.4451 9.74951 26.4451V17.7943C9.74951 15.4153 11.6959 13.4688 14.075 13.4688Z" fill="white"/>
<path fill-rule="evenodd" clip-rule="evenodd" d="M18.4007 9.14355H27.0516C27.0516 11.5225 25.1052 13.469 22.7261 13.469H14.0752C14.0752 11.09 16.0216 9.14355 18.4007 9.14355Z" fill="white"/>
<path d="M20.5631 22.138C21.7676 22.138 22.744 21.1616 22.744 19.9572C22.744 18.7528 21.7676 17.7764 20.5631 17.7764C19.3587 17.7764 18.3823 18.7528 18.3823 19.9572C18.3823 21.1616 19.3587 22.138 20.5631 22.138Z" fill="white"/>
</g>
<defs>
<clipPath id="clip0_341_256">
<rect width="180.8" height="36" fill="white" transform="translate(0.965332)"/>
</clipPath>
</defs>
</svg>
