<svg width="18" height="18" viewBox="0 0 18 18" fill="none" xmlns="http://www.w3.org/2000/svg">
<g clip-path="url(#clip0_485_54)">
<path d="M8.99888 0C4.02976 0 5.19353e-06 4.0455 5.19353e-06 9.036C-0.002025 10.93 0.591209 12.7767 1.69587 14.3152C2.80052 15.8537 4.36074 17.0061 6.156 17.6096C6.606 17.6929 6.77025 17.4139 6.77025 17.1742C6.77025 16.9594 6.76238 16.3912 6.75788 15.6375C4.25476 16.1831 3.726 14.4259 3.726 14.4259C3.31763 13.3819 2.727 13.104 2.727 13.104C1.90913 12.5437 2.78775 12.555 2.78775 12.555C3.69113 12.6191 4.16588 13.4865 4.16588 13.4865C4.96913 14.8669 6.27301 14.4686 6.786 14.2369C6.867 13.653 7.09988 13.2548 7.3575 13.0286C5.3595 12.8003 3.258 12.0251 3.258 8.5635C3.258 7.57688 3.609 6.77025 4.185 6.138C4.09163 5.90963 3.78338 4.9905 4.27275 3.74738C4.27275 3.74738 5.02876 3.50437 6.74776 4.67325C7.4821 4.47256 8.23986 4.37042 9.00113 4.3695C9.76243 4.37101 10.5202 4.47353 11.2545 4.67438C12.9724 3.5055 13.7273 3.7485 13.7273 3.7485C14.2178 4.99275 13.9095 5.91075 13.8173 6.13912C14.3944 6.77137 14.742 7.578 14.742 8.56462C14.742 12.0352 12.6383 12.7991 10.6335 13.023C10.9564 13.302 11.2444 13.8532 11.2444 14.6959C11.2444 15.9041 11.2331 16.8784 11.2331 17.1742C11.2331 17.4161 11.3951 17.6974 11.8519 17.6085C13.6454 17.0036 15.2037 15.8507 16.3068 14.3126C17.4099 12.7745 18.0022 10.9288 18 9.036C18 4.0455 13.9703 0 8.99888 0Z" fill="#53616E"/>
</g>
<defs>
<clipPath id="clip0_485_54">
<rect width="18" height="18" fill="white"/>
</clipPath>
</defs>
</svg>
