<svg width="199" height="30" viewBox="0 0 199 30" fill="none" xmlns="http://www.w3.org/2000/svg">
<g clip-path="url(#clip0_341_322)">
<path d="M166.905 30C166.107 29.1476 165.174 28.3881 164.543 27.4286C163.095 25.2381 161.809 22.9738 160.476 20.7262C159.314 18.7715 157.705 18.1643 155.476 18.9286V26.7453C155.476 29.3596 155.224 29.5857 152.602 29.5214C152.174 29.5214 151.748 29.4738 151.15 29.4381V27.4976V3.92621C151.15 3.56907 151.15 3.21193 151.181 2.85479C151.274 1.36193 151.683 0.888119 153.148 0.96431C156.428 1.13336 159.709 1.33812 162.983 1.6286C167.745 2.05003 170.326 6.20717 170.09 10.8619C169.914 14.3405 167.883 16.5048 164.852 17.8857C164.176 18.1953 163.486 18.4762 162.664 18.8381L169.795 29.4905L168.809 30H166.905ZM155.44 17.7381C158.486 18.0334 161.324 17.8881 163.621 15.8334C166.331 13.4143 166.924 9.88097 165.35 6.63336C163.738 3.30002 160.3 1.39526 156.831 1.87145C155.95 1.99288 155.445 2.41669 155.445 3.32622C155.438 8.08336 155.44 12.8405 155.44 17.7381Z" fill="#53616E"/>
<path d="M14.5238 0C15.4595 0.238095 16.4071 0.42619 17.3286 0.714286C20.9 1.82381 21.5357 2.85714 21.1048 6.75714C20.2667 5.79048 19.5429 4.81429 18.6786 3.98334C16.5595 1.94762 14.0619 0.859524 11.231 2.19524C9.87945 2.84372 8.72789 3.84476 7.89762 5.09286C4.02619 11.2048 3.42143 17.5833 6.89048 24.1214C8.31905 26.8048 10.381 28.5024 13.5976 28.3714C15.0048 28.3143 15.9143 27.7952 16.2167 26.4071C16.5545 24.6645 16.7741 22.9009 16.8738 21.1286C16.9405 20.2833 16.3786 19.7 15.5452 19.5452C14.7119 19.3905 13.8952 19.3524 13.0714 19.2476C12.5952 19.1857 12.119 19.0929 11.6429 19.0095L11.6857 18.6667H23.4381L23.5024 18.9333L20.9524 19.6119C20.9524 21.6857 21.0286 23.75 20.9071 25.8024C20.869 26.4429 20.4571 27.35 19.9429 27.6333C11.3381 32.3595 3.54524 28.0119 0.861905 21.3214C0.533334 20.5024 0.285714 19.6548 0 18.8119V17.8595V15.4786V14.2881L0.730952 11.6214C2.36667 5.66905 5.80476 1.53333 12.1595 0.340474C12.5619 0.264284 12.9476 0.119045 13.35 0.00475929L14.5238 0Z" fill="#53616E"/>
<path d="M57.3811 0C58.424 0.295238 58.8311 1.10714 59.2002 2.04762C62.4938 10.4365 65.8073 18.8183 69.1406 27.1929C69.4287 27.9214 69.6692 28.6691 69.9787 29.5429C68.6549 29.4381 67.4716 29.381 66.2978 29.2452C65.0597 29.1024 64.3406 28.2452 63.8716 27.1952C63.4025 26.1452 63.0216 24.981 62.5859 23.8786C61.9978 22.381 60.9525 21.6524 59.2859 21.6905C56.5168 21.7524 53.7478 21.7071 50.8883 21.7071C50.3549 23.5357 49.843 25.3595 49.2883 27.1833C48.7668 28.881 47.924 29.4238 46.0835 29.2119C46.6954 27.3214 47.274 25.45 47.9025 23.5929C50.2716 16.5072 52.624 9.41905 55.0597 2.35714C55.3573 1.49286 56.1145 0.790473 56.6597 0.0119019L57.3811 0ZM51.2049 20.4048H61.693C59.7621 15.3667 57.8573 10.4071 55.9525 5.45476C55.8764 5.25953 55.4978 4.97857 55.4049 5.03095C55.1496 5.16043 54.9536 5.38282 54.8573 5.65238C53.6264 10.5429 52.4264 15.4381 51.2049 20.4048Z" fill="#53616E"/>
<path d="M128.095 30.0002C127.496 29.8854 126.89 29.8098 126.281 29.774C124.221 29.774 122.8 28.9098 122.114 26.9169C121.74 25.8336 121.3 24.774 120.924 23.6883C120.548 22.6026 119.798 22.0217 118.612 22.0217C115.84 22.0336 113.067 21.9955 110.295 22.0598C110.075 22.1004 109.867 22.1922 109.689 22.3279C109.511 22.4635 109.367 22.6392 109.269 22.8407C108.736 24.3264 108.317 25.855 107.878 27.3645C107.378 29.0931 106.667 29.6217 104.631 29.6217C104.831 28.9645 105.007 28.3407 105.212 27.7169C107.99 19.3851 110.767 11.0518 113.545 2.7169C113.633 2.455 113.728 2.19309 113.817 1.93118C114.128 1.01214 114.717 0.502618 115.736 0.464523C116.755 0.426427 117.202 1.05976 117.531 1.89309C119.929 7.96135 122.33 14.028 124.733 20.0931C125.809 22.8145 126.902 25.5288 127.952 28.2598C128.159 28.7955 128.19 29.3955 128.321 29.9669L128.095 30.0002ZM120.278 20.8717C118.333 15.8026 116.428 10.8431 114.524 5.89309C114.445 5.68833 114.098 5.38119 114.014 5.4169C113.741 5.52781 113.522 5.73916 113.4 6.00738C113.067 7.18119 112.807 8.37404 112.514 9.55976C111.59 13.3002 110.664 17.0407 109.719 20.8669L120.278 20.8717ZM198.571 6.19071L198.057 7.30262C197.695 6.81214 197.412 6.37404 197.074 5.98118C196.228 4.99071 195.474 3.88357 194.478 3.07166C192.174 1.18595 189.336 1.4669 187.395 3.75976C182.464 9.58833 181.848 17.036 184.617 23.3836C186.548 27.8098 191.836 29.2669 195.055 27.2526C195.23 27.1849 195.415 27.1478 195.602 27.1431L195.821 27.4717C195.069 27.9979 194.367 28.6217 193.552 29.0217C192.657 29.4598 191.662 29.686 190.709 30.005H188.333L186.255 29.3145C183.985 28.5618 181.993 27.1445 180.538 25.2464C179.083 23.3483 178.232 21.0569 178.095 18.6693C177.862 14.899 178.472 11.1241 179.881 7.61928C181.745 2.955 185.619 1.07642 190.369 0.781186C191.767 0.695472 193.212 0.938333 194.598 1.22405C196.369 1.59071 197.945 2.355 198.571 4.27881V6.19071Z" fill="#53616E"/>
<path d="M130.476 29.9999V3.0023C130.476 1.57373 131.105 0.968969 132.531 0.961827C137.128 0.935636 141.726 0.926112 146.326 0.961827C148.431 0.978493 149.262 1.93087 149.162 4.03087C149.138 4.52611 149.05 5.01659 148.962 5.76659C146.524 2.19516 142.857 2.3142 139.374 1.94039C138.421 1.83801 137.483 1.71658 136.533 1.68563C135.362 1.64754 134.6 2.21659 134.583 3.30707C134.528 7.1023 134.562 10.8975 134.562 14.8309H143.938C144.302 15.938 143.576 15.9214 143.009 15.9333C141.069 15.9666 139.126 15.9856 137.186 15.9499C134.986 15.9094 134.517 16.3309 134.514 18.5237C134.514 21.6952 134.488 24.8666 134.528 28.0475C134.54 28.9999 134.386 29.7594 133.321 30.0094L130.476 29.9999Z" fill="#53616E"/>
<path d="M171.905 30C171.905 20.9524 171.876 11.9048 171.905 2.85717C171.905 1.26907 172.357 0.904785 173.917 0.904785C174.588 0.904785 175.26 0.959548 176.019 0.995263C176.045 1.38574 176.088 1.73098 176.088 2.07622V27.5453C176.088 28.6953 175.717 29.5977 174.531 29.9905L171.905 30Z" fill="#53616E"/>
<path d="M100.714 29.0311C100.495 29.0573 100.341 29.0692 100.188 29.093C97.1525 29.593 96.6763 28.8834 96.7025 25.7596C96.7549 19.5692 96.7549 13.3787 96.7716 7.20011C96.741 6.95891 96.6933 6.72021 96.6287 6.48582C96.3573 7.01677 96.1668 7.32392 96.0359 7.65725C93.4716 14.1287 90.9382 20.612 88.3263 27.0644C88.024 27.8096 87.4359 28.643 86.7525 28.9906C85.0978 29.8358 83.7549 29.1263 83.1811 27.3358C81.1589 20.966 79.139 14.5953 77.1216 8.22392C76.9068 7.49821 76.5354 6.82848 76.0335 6.26201C75.6128 9.41598 75.189 12.5668 74.7621 15.7144C74.2168 19.762 73.6906 23.8096 73.0954 27.8406C73.0049 28.4525 72.6192 29.0311 72.3668 29.612L71.8906 29.4596L72.8216 0.509635C73.8835 0.509635 74.8978 0.469159 75.9168 0.509635C77.1906 0.571539 77.7216 1.48344 78.1001 2.55011C79.7589 7.20725 81.4255 11.862 83.1001 16.5144C84.324 19.9263 85.5597 23.3358 86.8882 27.012C87.1263 26.4811 87.2882 26.1977 87.3978 25.9001C90.2121 18.3827 93.024 10.8644 95.8335 3.34534C96.893 0.516771 97.6478 0.116771 100.726 0.726295C100.714 10.1215 100.714 19.5239 100.714 29.0311Z" fill="#53616E"/>
<path d="M25.3311 29.1787V0.795377C25.3967 0.749865 25.4679 0.713052 25.543 0.685855C28.8953 -0.0117641 29.5049 0.5049 29.4977 3.85252C29.4787 11.7811 29.4977 19.712 29.4977 27.6406V28.3073C34.4977 27.8311 39.6953 28.9239 44.1168 25.2835C44.1525 25.693 44.1787 25.8763 44.1834 26.0597C44.2739 28.9692 44.0811 29.1739 41.1858 29.1763H26.6739L25.3311 29.1787Z" fill="#53616E"/>
</g>
<defs>
<clipPath id="clip0_341_322">
<rect width="198.571" height="30" fill="white"/>
</clipPath>
</defs>
</svg>
