<svg width="133" height="36" viewBox="0 0 133 36" fill="none" xmlns="http://www.w3.org/2000/svg">
<path d="M33.5133 20.8513V28.4891H27.1509V3.15625H33.5133V16.003H36.3618L40.4174 9.21553H47.0829L41.6298 18.4868L47.0869 28.4891H40.4174L36.2371 20.8539L33.5133 20.8513Z" fill="#53616E"/>
<path d="M66.6614 23.0332L66.5997 14.7315V13.7619C66.3583 10.8529 63.7524 8.7326 60.7832 8.97534H52.4882C52.1493 8.94181 51.8079 8.94181 51.4689 8.97534C50.779 9.04105 50.1089 9.24213 49.4968 9.56708C48.8847 9.89203 48.3426 10.3345 47.9017 10.8691C47.4607 11.4037 47.1295 12.02 46.927 12.6828C46.7244 13.3455 46.6545 14.0417 46.7213 14.7315V24.0028C46.964 26.9118 49.5699 29.0321 52.4788 28.7907H61.8668C64.7824 28.548 66.9028 25.9421 66.6614 23.0332ZM60.358 22.7301C60.348 22.903 60.3003 23.0716 60.2184 23.2242C60.1365 23.3768 60.0223 23.5097 59.8838 23.6136C59.7453 23.7175 59.5857 23.79 59.4163 23.826C59.2469 23.8619 59.0717 23.8605 58.9029 23.8218H54.178C53.4511 23.7601 53.026 23.1512 53.0877 22.427V14.9166C53.1206 14.5794 53.2857 14.269 53.5468 14.0532C53.8079 13.8373 54.1438 13.7335 54.4811 13.7646H59.2073C59.8779 13.8249 60.3594 14.4915 60.2977 15.2197H60.3594L60.358 22.7301Z" fill="#53616E"/>
<path d="M79.1436 14.125C77.6588 14.1203 76.1838 14.366 74.7808 14.8519V28.3652H68.4185V9.21644H73.9936L74.357 11.035C75.5077 10.3645 76.6598 9.76228 77.8722 9.45919C78.8604 9.09776 79.9045 8.913 80.9568 8.91334H82.5326C83.2058 8.86622 83.8816 8.95301 84.521 9.16869C85.1604 9.38437 85.7507 9.72466 86.2578 10.1699C86.7649 10.6151 87.1787 11.1564 87.4753 11.7626C87.7718 12.3687 87.9453 13.0276 87.9857 13.7012V28.49H81.7494V15.4004C81.7242 15.0543 81.5724 14.7297 81.3229 14.4885C81.0765 14.257 80.7517 14.1272 80.4136 14.125H79.1436Z" fill="#53616E"/>
<path d="M108.472 29.5162V9.21533H94.1114C92.7119 9.36851 91.4278 10.0627 90.5333 11.1497C89.6387 12.2368 89.2045 13.6304 89.3235 15.0332V22.9111C89.4148 24.2681 90.04 25.5336 91.0623 26.4307C92.0845 27.3278 93.4206 27.7833 94.7779 27.6976H96.0507C98.171 27.6976 100.231 27.3945 102.231 26.9707L102.11 28.7893C102.107 29.1269 101.978 29.4511 101.746 29.6972C101.495 29.9199 101.173 30.0483 100.837 30.0607C98.4741 30.0607 94.959 29.94 90.3535 29.5765V34.2424C94.5955 34.6662 98.7772 34.9693 103.019 34.9693H103.69C106.536 34.7279 108.655 32.3031 108.472 29.5162ZM102.231 22.4873C100.789 22.7324 99.3299 22.8557 97.8679 22.8561V22.7944H96.9586C96.7954 22.7916 96.6344 22.7564 96.485 22.6907C96.3356 22.625 96.2008 22.5303 96.0884 22.4119C95.976 22.2935 95.8884 22.154 95.8305 22.0013C95.7727 21.8487 95.7459 21.6861 95.7516 21.523V15.2116C95.812 14.4833 96.4785 14.0595 97.2054 14.1199H102.235L102.231 22.4873Z" fill="#53616E"/>
<path d="M123.622 8.90828C119.622 8.96997 115.683 9.15102 111.745 9.63651L111.498 13.9429L116.043 13.5795L121.255 13.3971C121.423 13.3924 121.59 13.4222 121.747 13.4847C121.903 13.5472 122.045 13.6411 122.164 13.7605C122.405 14.0636 122.588 14.3667 122.588 14.6698V16.1236H114.527C111.741 16.306 109.565 18.7898 109.801 21.578V24.0015C109.848 24.6703 110.027 25.3232 110.326 25.9229C110.626 26.5227 111.041 27.0574 111.548 27.4964C112.054 27.9354 112.643 28.2702 113.279 28.4815C113.915 28.6927 114.587 28.7764 115.256 28.7277H116.527C117.562 28.729 118.588 28.5446 119.558 28.1831C120.829 27.88 121.981 27.2739 123.072 26.547L123.497 28.3642H129.071V13.6398C128.894 10.8516 126.409 8.73124 123.622 8.90828ZM122.773 23.0278C121.359 23.4619 119.889 23.6877 118.41 23.6984V23.8204H117.501C117.334 23.8204 117.168 23.7875 117.014 23.7235C116.86 23.6595 116.719 23.5658 116.601 23.4476C116.483 23.3294 116.39 23.189 116.326 23.0346C116.262 22.8802 116.229 22.7148 116.229 22.5477V22.1856C116.225 22.0172 116.254 21.8497 116.317 21.6933C116.379 21.5369 116.473 21.395 116.593 21.2763C116.703 21.1426 116.842 21.0353 116.999 20.9619C117.156 20.8886 117.327 20.8512 117.501 20.8525H122.773V23.0278Z" fill="#53616E"/>
<path d="M110.169 33.3335H107.806V35.8186H110.169V33.3335Z" fill="#53616E"/>
<path d="M114.653 35.9405C114.203 35.9398 113.754 35.8789 113.32 35.7594L112.29 35.2136C112.035 34.9723 111.829 34.684 111.684 34.3647C111.414 33.7925 111.333 33.1492 111.454 32.5282C111.575 31.9071 111.89 31.3407 112.354 30.9112L113.324 30.4271C113.718 30.3266 114.125 30.2855 114.531 30.305L115.501 30.4271L116.35 30.7288V32.184H116.047L115.804 31.9412C115.573 31.7603 115.304 31.6358 115.017 31.5778L114.531 31.5174C114.107 31.5174 113.744 31.6381 113.501 31.9412C113.212 32.2753 113.061 32.7067 113.077 33.1482C113.077 33.5117 113.198 33.9958 113.501 34.2989C113.64 34.4243 113.803 34.521 113.98 34.5833C114.157 34.6457 114.344 34.6726 114.531 34.6624L115.077 34.602L115.562 34.421L115.804 34.2386L116.047 34.0575H116.35V35.5113L115.501 35.8748L114.653 35.9405Z" fill="#53616E"/>
<path d="M122.898 33.1522C122.898 32.3636 122.655 31.5763 122.109 31.0305C121.503 30.5463 120.776 30.1829 119.989 30.3036C119.198 30.2947 118.427 30.5532 117.801 31.0372C117.317 31.583 116.954 32.3703 117.075 33.1589C117.067 33.9076 117.325 34.6349 117.801 35.2122C118.403 35.7208 119.165 35.9998 119.953 35.9998C120.74 35.9998 121.502 35.7208 122.104 35.2122C122.652 34.606 122.955 33.9394 122.898 33.1522ZM121.02 33.9394L120.777 34.4249L120.414 34.728C120.294 34.8226 120.142 34.866 119.99 34.8487C119.808 34.8487 119.566 34.8487 119.444 34.728C119.263 34.6663 119.141 34.606 119.081 34.4853L118.778 33.9998L118.717 33.2125C118.672 32.9287 118.693 32.6382 118.778 32.3636L119.081 31.8191L119.444 31.5763L119.93 31.516L120.35 31.5737C120.435 31.5752 120.519 31.5982 120.593 31.6406C120.667 31.6831 120.729 31.7435 120.773 31.8164L121.016 32.3609L121.077 33.1495L121.02 33.9394Z" fill="#53616E"/>
<path d="M129.136 31.9399V35.7582H127.378V32.4254L127.258 31.9399L127.015 31.6972L126.47 31.6368L125.924 31.7589L125.501 31.9399V35.7582H123.803V30.4258H125.561V30.9703L126.409 30.4861C126.695 30.3615 127.005 30.2993 127.318 30.3037C127.646 30.2985 127.968 30.3869 128.247 30.5587C128.526 30.7305 128.751 30.9784 128.894 31.2734C129.175 30.9792 129.502 30.7336 129.863 30.5465C130.167 30.4023 130.497 30.3198 130.833 30.3037C131.317 30.183 131.803 30.4258 132.106 30.7892C132.469 31.2734 132.65 31.7589 132.59 32.3034V35.8185H130.893V32.4858L130.773 32.0003C130.744 31.9392 130.702 31.8855 130.65 31.8435C130.597 31.8016 130.535 31.7726 130.47 31.7589L129.984 31.6972L129.56 31.7589L129.136 31.9399Z" fill="#53616E"/>
<path d="M24.5448 4.42949C23.231 3.11018 21.6604 2.07453 19.9303 1.38662C18.2001 0.698718 16.3472 0.373199 14.4862 0.430209C12.6715 0.397696 10.8682 0.723111 9.17939 1.38785C7.49054 2.0526 5.94924 3.04364 4.64358 4.30434C3.33791 5.56504 2.29349 7.07068 1.57 8.73521C0.8465 10.3997 0.458117 12.1905 0.427042 14.0052C0.427042 14.1675 0.427042 14.3311 0.427042 14.4934C0.182955 22.1232 6.24491 28.4896 13.88 28.6679H14.4862C22.1213 28.8503 28.481 22.7897 28.6057 15.1546V14.4277C28.6594 12.5706 28.3261 10.7227 27.627 9.00142C26.9278 7.28013 25.8782 5.72316 24.5448 4.42949Z" fill="#53616E"/>
<path d="M14.4865 28.9713C10.7299 29.0369 7.0995 27.6152 4.38644 25.016C1.67339 22.4167 0.097519 18.8506 0.00219721 15.0945V14.4884C-0.0637667 10.7316 1.35782 7.10103 3.95716 4.3879C6.55649 1.67477 10.1228 0.0990077 13.879 0.00403413H14.4852C16.3433 -0.040344 18.192 0.281791 19.9257 0.952042C21.6593 1.62229 23.2439 2.62753 24.589 3.91032C25.9341 5.19311 27.0132 6.72833 27.7649 8.42828C28.5165 10.1282 28.9258 11.9596 28.9695 13.8178V14.4884C29.0192 16.3479 28.7008 18.1989 28.0325 19.9349C27.3641 21.6709 26.3592 23.2576 25.0753 24.6038C23.7915 25.9499 22.2542 27.0289 20.5518 27.7787C18.8494 28.5285 17.0155 28.9343 15.1557 28.9727L14.4865 28.9713ZM14.4865 0.733615C10.9286 0.651797 7.48332 1.98322 4.90504 4.43631C2.32676 6.88941 0.825652 10.2643 0.730437 13.8218V14.4924C0.609734 21.9464 6.42626 28.1278 13.9407 28.2485H14.4865C16.2522 28.3042 18.0113 28.0085 19.6618 27.3787C21.3122 26.7489 22.8211 25.7975 24.1008 24.5797C25.3805 23.3619 26.4055 21.902 27.1163 20.2847C27.8271 18.6675 28.2094 16.9252 28.2413 15.1589V14.4884C28.4237 7.09599 22.4851 0.914667 15.0981 0.793964L14.4865 0.733615Z" fill="white"/>
<path d="M7.21413 9.70128C7.71092 9.25208 8.36187 9.01187 9.03137 9.03071C9.78028 9.01864 10.5235 9.16299 11.2134 9.45451C11.9629 9.75412 12.6746 10.1408 13.3338 10.6066L13.6369 10.3638C13.2131 9.51486 12.5465 8.84831 11.7593 8.30381C10.9087 7.8234 9.94786 7.57244 8.97102 7.57557C8.45263 7.58878 7.94041 7.69132 7.45688 7.87867C6.96635 8.07345 6.54578 8.41131 6.24985 8.84831C5.94675 9.21176 5.76436 9.69726 5.57928 10.1211C5.44887 10.5733 5.40787 11.0466 5.45858 11.5145H5.88238C6.19985 10.8267 6.6528 10.21 7.21413 9.70128ZM16.3647 8.37221C16.9696 7.94841 17.6978 7.70164 18.4247 7.46292C19.0309 7.28186 19.7578 7.40257 20.364 7.76602C21.0122 8.17023 21.5861 8.68286 22.0606 9.2815L22.424 9.15946C22.3637 8.73566 22.2416 8.18981 21.9385 7.82636C21.719 7.36623 21.3851 6.97006 20.9689 6.67567C20.6054 6.31222 20.0609 6.12982 19.5754 6.0051C19.0572 5.88307 18.5178 5.88307 17.9996 6.0051C17.0775 6.22921 16.232 6.69542 15.5504 7.35557C14.8688 8.01573 14.3758 8.84588 14.1223 9.76029L14.4858 9.94268L16.303 8.3065M22.8478 17.8822C22.5631 18.5945 22.1545 19.2506 21.6408 19.8202C21.3994 20.0629 21.1566 20.366 20.7932 20.6088L19.8839 21.2793C18.5438 21.9955 17.087 22.4673 15.5815 22.6728C14.0714 22.9048 12.532 22.864 11.0364 22.5521C10.3022 22.3696 9.59099 22.1051 8.91604 21.7635C8.18914 21.4604 7.58294 20.9762 6.9164 20.4908L6.734 20.6732C7.7045 22.0756 9.11007 23.1191 10.7333 23.6424C12.3638 24.2362 14.1235 24.3825 15.8296 24.0662C17.5365 23.8426 19.1608 23.1973 20.5558 22.1886C21.9465 21.1261 22.8621 19.558 23.104 17.8246H22.8478V17.8822ZM14.243 13.3344L14.7889 18.3637L15.092 18.3034L14.4858 13.3344H14.243Z" fill="white"/>
</svg>
