<svg width="124" height="36" viewBox="0 0 124 36" fill="none" xmlns="http://www.w3.org/2000/svg">
<path d="M21.4537 10.2796C21.2448 10.2796 20.9523 10.405 20.806 10.5512L16.1885 15.1688C16.0422 15.315 15.9169 15.2732 15.9169 15.0643L15.9378 10.6766C15.9378 10.4677 15.7706 10.3005 15.5617 10.3005H11.174C10.965 10.3005 10.7979 10.1334 10.7979 9.92443L10.8188 5.53673C10.8188 5.32779 10.6516 5.16064 10.4427 5.16064H6.055C5.84606 5.16064 5.67891 5.32779 5.67891 5.53673L5.65802 9.92443C5.65802 10.1334 5.49087 10.3005 5.28193 10.3005H0.894233C0.685295 10.3005 0.518146 10.4677 0.518146 10.6766L0.43457 35.6238C0.43457 35.8327 0.60172 35.9999 0.810658 35.9999H25.7578C25.9668 35.9999 26.1339 35.8327 26.1339 35.6238L26.2175 10.6766C26.2175 10.4677 26.0504 10.3005 25.8414 10.3005H21.4537V10.2796Z" fill="#53616E"/>
<path d="M16.2302 0.27162C16.084 0.125363 15.7915 0 15.5825 0H11.1948C10.9859 0 10.8187 0.167151 10.8187 0.376089L10.7979 4.76378C10.7979 4.97272 10.965 5.13987 11.1739 5.13987H15.5616C15.7706 5.13987 15.9377 5.30702 15.9377 5.51596L15.9168 9.90366C15.9168 10.1126 16.084 10.2797 16.2929 10.2797H20.6806C20.8896 10.2797 21.0567 10.1126 21.0567 9.90366L21.0776 5.51596C21.0776 5.30702 20.9522 5.01451 20.806 4.86825L16.2302 0.27162Z" fill="#53616E"/>
<path d="M37.2912 35.9789C36.8107 35.9789 36.4346 35.5819 36.4346 35.1222V11.1779C36.4346 10.6974 36.8107 10.3213 37.2912 10.3213H40.9894C41.47 10.3213 41.8461 10.6347 41.8461 11.0108C41.8461 11.3869 41.9714 11.7003 42.1177 11.7003C42.2639 11.7003 42.6818 11.4496 43.037 11.1361L43.3295 10.8854C43.6847 10.572 44.3533 10.3213 44.8339 10.3213H48.7619C49.2425 10.3213 49.8902 10.5929 50.2245 10.9272L50.7886 11.4913C51.1229 11.8256 51.5617 12.0973 51.7706 12.0973C51.9795 12.0973 52.4392 11.8465 52.7944 11.5331L53.5257 10.8854C53.8809 10.572 54.5495 10.3213 55.03 10.3213H58.9581C59.4386 10.3213 60.0863 10.5929 60.4206 10.9272L62.8652 13.3718C63.1995 13.7061 63.4711 14.3747 63.4711 14.8343V35.1222C63.4711 35.6028 63.095 35.9789 62.6145 35.9789H57.391C56.9105 35.9789 56.5344 35.5819 56.5344 35.1222V17.3625C56.5344 16.8819 56.409 16.3805 56.2628 16.2342C56.1165 16.088 55.5942 15.9626 55.1345 15.9626H55.0091C54.5286 15.9626 53.9854 16.1089 53.7764 16.276C53.5675 16.4641 53.4003 16.9864 53.4003 17.467V35.1222C53.4003 35.6028 53.0242 35.9789 52.5437 35.9789H47.3202C46.8397 35.9789 46.4636 35.5819 46.4636 35.1222V17.3625C46.4636 16.8819 46.3382 16.3805 46.192 16.2342C46.0457 16.088 45.5234 15.9626 45.0637 15.9626H44.9383C44.4578 15.9626 43.9145 16.1089 43.7056 16.276C43.4967 16.4641 43.3295 16.9864 43.3295 17.467V35.1222C43.3295 35.6028 42.9325 35.9789 42.4729 35.9789H37.2912Z" fill="#53616E"/>
<path d="M70.533 35.9789C70.0525 35.9789 69.4048 35.7072 69.0705 35.3729L66.9184 33.2209C66.5841 32.8866 66.3125 32.218 66.3125 31.7583V22.962C66.3125 22.4815 66.5841 21.8338 66.9184 21.4995L69.1749 19.2429C69.5092 18.9086 70.1778 18.637 70.6375 18.637H75.4013C75.8819 18.637 76.2579 18.2609 76.2579 17.7804V17.1118C76.2579 16.6312 76.1326 16.1298 75.9654 15.9626C75.7983 15.7955 75.2759 15.6701 74.8163 15.6701H68.9033C68.4228 15.6701 68.0467 15.294 68.0467 14.8135V11.1779C68.0467 10.6974 68.4228 10.3213 68.9033 10.3213H78.8279C79.3084 10.3213 79.9561 10.5929 80.2904 10.9272L82.5888 13.2255C82.9231 13.5598 83.1947 14.2284 83.1947 14.6881V35.1222C83.1947 35.6028 82.8186 35.9789 82.338 35.9789H78.6607C78.1802 35.9789 77.8041 35.6028 77.8041 35.164C77.8041 34.7043 77.6787 34.3491 77.5325 34.3491C77.3862 34.3491 76.9683 34.5999 76.6131 34.9133L76.0699 35.4147C75.7147 35.7281 75.0461 35.9789 74.5655 35.9789H70.533ZM73.3746 30.5047C73.5 30.63 73.9805 30.7345 74.4611 30.7345H74.7327C75.2133 30.7345 75.7565 30.5883 75.9445 30.4211C76.1326 30.254 76.2997 29.7107 76.2997 29.2302V24.1112C76.2997 23.6306 75.9027 23.2545 75.4431 23.2545H74.5864C74.1059 23.2545 73.6044 23.359 73.4582 23.5053C73.3119 23.6306 73.1866 24.1321 73.1866 24.6126V29.4391C73.1448 29.8988 73.2492 30.3793 73.3746 30.5047Z" fill="#53616E"/>
<path d="M86.8513 35.9789C86.3707 35.9789 85.9946 35.5819 85.9946 35.1222V11.1779C85.9946 10.6974 86.3707 10.3213 86.8513 10.3213H90.5286C91.0091 10.3213 91.3852 10.6765 91.3852 11.0944C91.3852 11.5122 91.5106 11.8674 91.6568 11.8674C91.8031 11.8674 92.221 11.6167 92.5762 11.3033L93.0149 10.9063C93.3701 10.5929 94.0387 10.3422 94.5193 10.3422H98.5936C99.0741 10.3422 99.7219 10.6138 100.056 10.9481L102.501 13.3927C102.835 13.727 103.107 14.3956 103.107 14.8552V35.1222C103.107 35.6028 102.731 35.9789 102.25 35.9789H97.0266C96.546 35.9789 96.1699 35.5819 96.1699 35.1222V17.3625C96.1699 16.8819 96.0445 16.3805 95.8983 16.2342C95.752 16.088 95.2297 15.9626 94.77 15.9626H94.4984C94.0178 15.9626 93.4746 16.1089 93.2657 16.276C93.0567 16.4641 92.8896 16.9864 92.8896 17.467V35.1222C92.8896 35.6028 92.5135 35.9789 92.0329 35.9789H86.8513Z" fill="#53616E"/>
<path d="M110.607 35.9789C110.127 35.9789 109.479 35.7072 109.145 35.3729L106.596 32.8239C106.261 32.4896 105.99 31.8419 105.99 31.3613V14.9388C105.99 14.4583 106.261 13.8105 106.596 13.4762L109.145 10.9272C109.479 10.5929 110.148 10.3213 110.607 10.3213H118.693C119.174 10.3213 119.821 10.5929 120.156 10.9272L122.705 13.4762C123.039 13.8105 123.311 14.4792 123.311 14.9388V31.3613C123.311 31.8419 123.039 32.4896 122.705 32.8239L120.177 35.3729C119.842 35.7072 119.174 35.9789 118.714 35.9789H110.607ZM113.24 30.0032C113.407 30.1704 113.95 30.3166 114.431 30.3166H114.891C115.371 30.3166 115.893 30.1704 116.081 30.0032C116.249 29.8152 116.395 29.2928 116.395 28.8123V17.4461C116.395 16.9655 116.249 16.4432 116.081 16.2551C115.914 16.088 115.371 15.9417 114.891 15.9417H114.431C113.95 15.9417 113.428 16.088 113.24 16.2551C113.073 16.4432 112.926 16.9655 112.926 17.4461V28.8123C112.926 29.2928 113.073 29.8361 113.24 30.0032Z" fill="#53616E"/>
</svg>
