<svg width="21" height="18" viewBox="0 0 21 18" fill="none" xmlns="http://www.w3.org/2000/svg">
<g clip-path="url(#clip0_412_377)">
<path d="M14.1346 0.0232641C14.0267 -0.0270887 13.9404 0.0232641 13.9404 0.145549V14.7407L20.3352 17.9345C20.6517 18.0927 20.9107 17.9345 20.9107 17.5748V3.52638C20.9107 3.45444 20.8747 3.38971 20.81 3.36093L14.1346 0.0232641Z" fill="#D0D2D3"/>
<path d="M6.97021 11.2583L13.8254 0.116C13.8901 0.0152947 14.0268 -0.0278649 14.1347 0.0296811L20.7597 3.33858C20.8388 3.38174 20.8748 3.48244 20.8244 3.56157L13.9405 14.7399L6.97021 11.2583Z" fill="#A6A8AB"/>
<path d="M0.769756 0.318218C0.345354 0.102421 0.201489 0.260672 0.453253 0.670688L6.97034 11.2592L13.9406 14.7479L7.0135 3.49044C6.98472 3.44009 6.94157 3.40412 6.89121 3.37535L0.769756 0.318218Z" fill="#808184"/>
<path d="M6.97026 17.582C6.97026 17.9344 6.7113 18.0999 6.3948 17.9416L0.388436 14.9349C0.172638 14.827 0 14.5464 0 14.309V0.361332C0 0.123955 0.172638 0.0160559 0.388436 0.123955L6.88394 3.3753C6.93429 3.40408 6.97026 3.45443 6.97026 3.51198V17.582Z" fill="#53616E"/>
</g>
<defs>
<clipPath id="clip0_412_377">
<rect width="20.9108" height="18" fill="white"/>
</clipPath>
</defs>
</svg>
