<svg width="230" height="36" viewBox="0 0 230 36" fill="none" xmlns="http://www.w3.org/2000/svg">
<path d="M17.9918 22.44C15.5558 22.44 13.583 20.4623 13.583 18.0263C13.583 15.5903 15.5558 13.6104 17.9918 13.6104C20.4278 13.6104 22.4006 15.5879 22.4006 18.0263C22.4006 20.4647 20.4278 22.44 17.9918 22.44Z" fill="#53616E"/>
<path d="M35.9736 35.1696V36H16.6464C15.5664 35.9208 14.5128 35.7432 13.4952 35.4816V28.3416C14.616 28.8336 15.8328 29.1456 17.1096 29.2464C17.4024 29.268 17.6976 29.28 17.9976 29.28C18.2976 29.28 18.5928 29.268 18.8856 29.2464C24.6792 28.7928 29.2392 23.9424 29.2392 18.024C29.2392 11.808 24.2064 6.768 18 6.768C11.7936 6.768 6.7776 11.7888 6.7608 17.9904H6.7536V32.0976C2.6376 28.7952 0 23.7168 0 18.024C0 8.0688 8.0592 0 18 0C27.9408 0 36 8.0688 36 18.024C36 22.3944 34.4448 26.4048 31.86 29.5248C34.248 30.2856 35.9784 32.5248 35.9784 35.1696H35.9736Z" fill="#53616E"/>
<path d="M18.8867 29.2464H17.1131H18.8867ZM18.0011 13.6104C15.5651 13.6104 13.5923 15.588 13.5923 18.0264C13.5923 20.4648 15.5651 22.44 18.0011 22.44C20.4371 22.44 22.4099 20.4624 22.4099 18.0264C22.4099 15.5904 20.4371 13.6104 18.0011 13.6104Z" fill="#53616E"/>
<path d="M22.4006 18.0239C22.4006 20.4623 20.4278 22.4375 17.9918 22.4375C15.5558 22.4375 13.583 20.4599 13.583 18.0239C13.583 15.5879 15.5558 13.6079 17.9918 13.6079C20.4278 13.6079 22.4006 15.5855 22.4006 18.0239Z" fill="#53616E"/>
<path d="M22.4006 18.0239C22.4006 20.4623 20.4278 22.4375 17.9918 22.4375C15.5558 22.4375 13.583 20.4599 13.583 18.0239C13.583 15.5879 15.5558 13.6079 17.9918 13.6079C20.4278 13.6079 22.4006 15.5855 22.4006 18.0239Z" fill="#53616E"/>
<path d="M59.6988 26.089C58.6872 27.9934 56.5488 29.6674 53.478 29.6674C48.888 29.6674 45 26.3626 45 19.2058V18.8962C45 11.8186 48.8484 8.27979 53.478 8.27979C56.6676 8.27979 58.572 9.56139 59.6988 11.6242V8.82338H67.3596V35.9242H59.6988V26.0854V26.089ZM59.8932 19.051V18.7414C59.8932 15.6706 58.6476 13.9606 56.3544 13.9606C54.0612 13.9606 52.776 15.5158 52.776 18.781V19.0906C52.776 22.2406 54.0576 23.8354 56.3148 23.8354C58.572 23.8354 59.8932 22.201 59.8932 19.0546V19.051Z" fill="#53616E"/>
<path d="M71.2417 22.1653V8.82733H78.9025V20.8405C78.9025 22.8997 79.6801 23.9509 81.4693 23.9509C83.3737 23.9509 84.5005 22.8241 84.5005 20.4121V8.82373H92.1613V29.1601H84.5005V26.0101C83.3737 28.1881 81.4693 29.6641 78.0457 29.6641C74.1577 29.6641 71.2417 27.2125 71.2417 22.1581V22.1653Z" fill="#53616E"/>
<path d="M96.0342 23.5222C96.0342 18.7414 99.9222 16.873 106.96 16.873H108.71V16.5238C108.71 14.8138 108.4 13.5682 106.337 13.5682C104.588 13.5682 104.044 14.695 103.925 15.7462H96.7722C97.0818 10.7674 100.97 8.24023 106.805 8.24023C112.641 8.24023 116.291 10.6522 116.291 16.0162V29.1598H108.904V26.827C108.047 28.2274 106.262 29.6674 102.953 29.6674C99.2994 29.6674 96.0342 27.8782 96.0342 23.5222ZM108.71 22.0462V20.995H107.075C104.509 20.995 103.576 21.499 103.576 22.939C103.576 23.911 104.314 24.5338 105.715 24.5338C107.464 24.5338 108.71 23.5618 108.71 22.0462Z" fill="#53616E"/>
<path d="M120.159 19.2096V18.9C120.159 11.8224 124.008 8.28359 128.637 8.28359C131.827 8.28359 133.731 9.5652 134.858 11.628V0H142.519V29.1636H134.858V25.8984C133.846 27.9972 131.708 29.6712 128.637 29.6712C124.047 29.6712 120.159 26.3664 120.159 19.2096ZM135.052 19.0548V18.7452C135.052 15.6744 133.807 13.9644 131.514 13.9644C129.22 13.9644 127.935 15.5196 127.935 18.7848V19.0944C127.935 22.2444 129.217 23.8392 131.474 23.8392C133.731 23.8392 135.052 22.2048 135.052 19.0584V19.0548Z" fill="#53616E"/>
<path d="M146.4 8.8273H154.061V11.7829C155.187 9.87849 157.211 8.28369 160.282 8.28369C164.908 8.28369 168.796 11.7433 168.796 18.8605V19.1701C168.796 26.2873 164.868 29.6677 160.242 29.6677C157.247 29.6677 155.069 28.2277 154.061 26.2441V35.9245H146.4V8.82369V8.8273ZM161.02 19.0909V18.7813C161.02 15.5161 159.698 13.9609 157.402 13.9609C155.105 13.9609 153.863 15.6709 153.863 18.7813V19.0909C153.863 22.2409 155.108 23.8357 157.441 23.8357C159.774 23.8357 161.02 22.2013 161.02 19.0909Z" fill="#53616E"/>
<path d="M172.67 0H180.291V29.1636H172.67V0Z" fill="#53616E"/>
<path d="M184.166 23.5222C184.166 18.7414 188.054 16.873 195.092 16.873H196.842V16.5238C196.842 14.8138 196.532 13.5682 194.469 13.5682C192.72 13.5682 192.176 14.695 192.057 15.7462H184.904C185.214 10.7674 189.102 8.24023 194.937 8.24023C200.773 8.24023 204.423 10.6522 204.423 16.0162V29.1598H197.036V26.827C196.179 28.2274 194.394 29.6674 191.085 29.6674C187.431 29.6674 184.166 27.8782 184.166 23.5222ZM196.842 22.0462V20.995H195.207C192.64 20.995 191.708 21.499 191.708 22.939C191.708 23.911 192.446 24.5338 193.846 24.5338C195.596 24.5338 196.842 23.5618 196.842 22.0462Z" fill="#53616E"/>
<path d="M208.304 8.82729H215.964V12.0925C217.091 9.9541 219.269 8.28369 222.693 8.28369C226.541 8.28369 229.227 10.7317 229.227 15.7897V29.1673H221.566V17.5033C221.566 15.4441 220.828 14.3929 218.999 14.3929C217.17 14.3929 215.968 15.5197 215.968 17.9317V29.1673H208.307V8.8309L208.304 8.82729Z" fill="#53616E"/>
</svg>
