<svg width="120" height="36" viewBox="0 0 120 36" fill="none" xmlns="http://www.w3.org/2000/svg">
<path d="M26.6638 9.04064C26.0094 9.04381 25.3639 9.19261 24.7741 9.47626C24.3004 8.05097 23.4942 6.75893 22.4222 5.70702C19.8984 3.15056 15.939 2.06049 11.8262 3.68026C9.51923 4.58423 7.55587 6.92185 6.68259 9.40672C5.65677 8.92672 4.48405 8.86633 3.41435 9.23843C2.34466 9.61053 1.46258 10.3857 0.956127 11.3987C0.672687 11.9922 0.523932 12.641 0.520508 13.2987V36H30.9935V13.3416C30.9943 12.7742 30.8827 12.2122 30.665 11.6881C30.4474 11.164 30.128 10.6883 29.7254 10.2884C29.3229 9.88845 28.845 9.57227 28.3195 9.35811C27.794 9.14394 27.2313 9.03604 26.6638 9.04064ZM7.15298 17.1763C6.57699 17.1769 6.01857 16.978 5.57263 16.6134C5.12668 16.2489 4.82072 15.7412 4.70674 15.1766C4.59276 14.612 4.6778 14.0253 4.94739 13.5163C5.21699 13.0074 5.65451 12.6074 6.18561 12.3845V14.4603C6.18649 14.5854 6.2181 14.7083 6.27764 14.8182C6.34617 14.9939 6.47402 15.1401 6.63903 15.2315C6.80404 15.3228 6.99581 15.3535 7.18109 15.3183C7.36638 15.2831 7.53351 15.1842 7.65351 15.0387C7.7735 14.8932 7.83881 14.7103 7.83811 14.5217V13.8468L7.80743 13.8181V12.7567C7.80743 12.6013 7.80743 12.4458 7.82174 12.2904C8.40308 12.451 8.90639 12.8171 9.23826 13.3208C9.57013 13.8244 9.70802 14.4313 9.62633 15.0288C9.54464 15.6264 9.24892 16.174 8.79406 16.5701C8.3392 16.9661 7.7561 17.1837 7.15298 17.1824V17.1763ZM8.17556 10.4436L8.14283 10.4191C9.0468 7.23885 11.7894 4.77647 15.2191 4.55968H15.6854C17.4334 4.55829 19.1331 5.13292 20.5217 6.19467C21.9102 7.25643 22.9103 8.74615 23.367 10.4334L15.7795 16.2785L8.17556 10.4436ZM24.6003 17.1763C24.0252 17.1758 23.4679 16.9764 23.023 16.612C22.5781 16.2476 22.2728 15.7405 22.1589 15.1768C22.0451 14.6131 22.1296 14.0273 22.3983 13.5188C22.6669 13.0102 23.1031 12.6102 23.6329 12.3865V14.4951C23.6607 14.6901 23.7579 14.8685 23.9067 14.9976C24.0555 15.1267 24.2458 15.1978 24.4428 15.1978C24.6398 15.1978 24.8301 15.1267 24.9789 14.9976C25.1277 14.8685 25.2249 14.6901 25.2527 14.4951V12.4704V12.2781C25.844 12.4291 26.3594 12.7917 26.7012 13.2973C27.043 13.8028 27.1876 14.4162 27.1074 15.0212C27.0272 15.6262 26.728 16.1807 26.2663 16.5798C25.8046 16.9789 25.2125 17.1948 24.6023 17.1865L24.6003 17.1763ZM117.674 24.2771C117.157 24.5999 116.615 24.8809 116.054 25.1177C115.514 25.357 114.931 25.4843 114.34 25.4919C114.145 25.4956 113.953 25.4528 113.778 25.3672C113.585 25.2984 113.42 25.1665 113.311 24.9929C113.148 24.7812 113.031 24.5373 112.968 24.2771C112.871 23.9216 112.829 23.5533 112.843 23.185C112.849 22.8612 112.88 22.5384 112.937 22.2197C112.998 21.8447 113.092 21.3457 113.217 20.7226C113.342 20.1316 113.436 19.6325 113.497 19.2583C113.552 18.9702 113.584 18.6781 113.592 18.385C113.591 18.1381 113.538 17.8941 113.436 17.6692C113.355 17.456 113.213 17.2717 113.027 17.1395C112.854 16.9885 112.653 16.8719 112.436 16.7959C112.219 16.7065 111.985 16.664 111.751 16.6711C111.118 16.6601 110.497 16.8452 109.974 17.2008C109.45 17.5742 108.987 18.0261 108.601 18.5404C108.145 19.1615 107.759 19.8309 107.45 20.5365C107.076 21.3546 106.763 21.9681 106.513 22.4692H106.296C106.272 21.7412 106.293 21.0125 106.358 20.287C106.421 19.4444 106.452 18.7899 106.452 18.3543C106.46 18.0527 106.45 17.7508 106.421 17.4504C106.416 17.2725 106.362 17.0996 106.264 16.9513C106.214 16.8886 106.153 16.8369 106.082 16.7996C106.012 16.7623 105.934 16.7401 105.855 16.7345C105.607 16.7043 105.357 16.6934 105.108 16.7018C104.868 16.694 104.628 16.705 104.39 16.7345C104.221 16.7577 104.061 16.8216 103.922 16.9207C103.785 17.0227 103.67 17.1497 103.58 17.2949C103.464 17.5022 103.37 17.7217 103.3 17.9494C103.113 18.4589 102.956 18.9794 102.832 19.5078C102.676 20.1309 102.49 20.9101 102.272 21.8454C102.053 22.7801 101.863 23.6861 101.742 24.5041C101.584 25.3467 101.492 26.1566 101.368 26.9358C101.368 27.0606 101.337 27.1547 101.337 27.2794C101.087 27.4962 100.805 27.6884 100.519 27.893C99.8233 28.4074 99.095 28.876 98.3387 29.2959C97.5675 29.7165 96.7679 30.0828 95.9458 30.3922C95.1972 30.6638 94.4086 30.809 93.6123 30.8216C93.3927 30.8199 93.1737 30.7987 92.9579 30.7582C92.7458 30.7155 92.5443 30.6314 92.3648 30.5108C92.1563 30.3705 91.9678 30.2026 91.8044 30.0118C91.5956 29.7548 91.4081 29.4812 91.244 29.1937C92.2895 28.9193 93.2952 28.511 94.2361 27.9789C95.984 27.0303 97.4142 25.5886 98.3489 23.8333C98.8479 22.8987 99.0974 22.0888 99.0974 21.3403C99.1061 20.6871 98.9786 20.0394 98.7232 19.4383C98.4922 18.8914 98.143 18.4025 97.7006 18.0066C97.2597 17.5961 96.7409 17.2783 96.1749 17.072C95.5566 16.8424 94.9018 16.7266 94.2422 16.7305C93.4522 16.7245 92.6687 16.8725 91.9353 17.1661C91.2481 17.4627 90.6161 17.8734 90.066 18.3809C89.5043 18.8978 89.0115 19.4848 88.5996 20.1275C88.1719 20.7858 87.8232 21.4921 87.5607 22.232C87.2784 22.9478 87.0289 23.7904 86.7426 24.725C86.5143 25.5162 86.3885 26.3335 86.3683 27.1567C86.3771 27.7197 86.4188 28.2817 86.4931 28.8399C86.4624 28.8706 86.4317 28.8706 86.4011 28.9012C86.0575 29.1201 85.7139 29.3369 85.3396 29.5557C84.9967 29.7612 84.6431 29.9483 84.2802 30.1161C83.9387 30.2735 83.5951 30.429 83.3149 30.5251C83.0504 30.6132 82.7752 30.6655 82.4968 30.6805C82.4304 30.6735 82.3669 30.6497 82.3122 30.6115C82.2574 30.5732 82.2133 30.5217 82.1839 30.4617C82.056 30.2895 81.9514 30.101 81.8731 29.9013C81.7704 29.635 81.687 29.3616 81.6236 29.0833C81.561 28.775 81.5294 28.4612 81.5295 28.1466V27.8971C81.5665 27.6454 81.6184 27.3961 81.6849 27.1506C81.7483 26.9011 81.8097 26.6516 81.8731 26.402C81.9365 26.1525 81.9978 25.9664 82.0592 25.7476C82.1113 25.5774 82.1741 25.4108 82.2473 25.2486C82.8077 24.1258 83.4315 22.9989 84.1166 21.8209C84.8017 20.6429 85.4562 19.4505 86.1106 18.2664C86.7651 17.0515 87.4216 15.8367 88.0126 14.6198C88.6247 13.438 89.173 12.2242 89.6549 10.9835C90.1131 9.79566 90.4876 8.57717 90.7757 7.33702C91.0464 6.17224 91.1837 4.98041 91.1847 3.78457C91.1913 3.32402 91.1495 2.86407 91.0599 2.41226C90.9689 1.98719 90.8239 1.5755 90.6284 1.18721C90.4116 0.830282 90.112 0.530761 89.7551 0.313921C89.3234 0.087351 88.8391 -0.01996 88.3521 0.00305621C87.5343 0.00731145 86.7346 0.245005 86.0472 0.688186C85.2263 1.18142 84.4896 1.80283 83.8651 2.52883C83.1139 3.38866 82.4463 4.31793 81.871 5.30412C81.5581 5.83382 81.2472 6.36352 80.9671 6.92389C81.1861 5.88882 81.3005 4.83435 81.3086 3.77639C81.3152 3.31584 81.2734 2.85588 81.1838 2.40408C81.0907 1.98233 80.9443 1.57412 80.7482 1.18925C80.5314 0.832327 80.2319 0.532806 79.8749 0.315966C79.4433 0.0893959 78.9589 -0.0179152 78.472 0.00510103C77.6541 0.00935627 76.8544 0.24705 76.1671 0.690231C75.3461 1.18347 74.6094 1.80487 73.9849 2.53088C73.2342 3.39035 72.5666 4.3189 71.9908 5.30412C71.3403 6.40073 70.7571 7.53584 70.2443 8.70319C69.5859 10.2713 69.0445 11.8859 68.6245 13.5339C68.0948 15.5586 67.8064 16.5566 67.8064 16.5566C67.8064 16.5566 67.6203 17.5547 67.2767 19.5794C66.9331 21.6041 66.747 23.1952 66.747 24.4121C66.7481 25.5381 66.8315 26.6625 66.9965 27.7764C66.9394 27.8109 66.8871 27.8528 66.8411 27.9011C66.1437 28.4148 65.4134 28.8821 64.6548 29.3C63.8814 29.7191 63.0798 30.084 62.2558 30.3922C61.5065 30.6637 60.7172 30.8088 59.9203 30.8216C59.7007 30.8199 59.4817 30.7987 59.2658 30.7582C59.0537 30.7158 58.8521 30.6317 58.6727 30.5108C58.4639 30.371 58.2753 30.2031 58.1123 30.0118C57.9028 29.7549 57.7147 29.4813 57.5499 29.1937C58.5961 28.9193 59.6024 28.511 60.544 27.9789C62.2894 27.0333 63.7188 25.5961 64.6548 23.8456C65.1538 22.9109 65.4034 22.1011 65.4034 21.3525C65.412 20.6994 65.2845 20.0517 65.0291 19.4505C64.7974 18.904 64.4483 18.4153 64.0065 18.0189C63.5653 17.6077 63.0457 17.2898 62.4788 17.0843C61.861 16.8554 61.207 16.7397 60.5481 16.7427C59.7582 16.7368 58.9746 16.8848 58.2412 17.1783C57.5534 17.4749 56.9207 17.8857 56.3699 18.3932C55.8089 18.9102 55.3167 19.4972 54.9055 20.1397C54.4848 20.7938 54.1416 21.4945 53.8829 22.2279C53.6027 22.9437 53.3532 23.7863 53.0649 24.7209C52.8366 25.5121 52.7108 26.3294 52.6906 27.1526C52.6906 27.5616 52.7213 27.9707 52.754 28.3674L51.8173 28.8358C51.257 29.0853 50.7272 29.3328 50.2282 29.5823C49.7303 29.817 49.2516 30.0905 48.7966 30.4003C48.7966 29.6211 48.8273 28.8092 48.8907 28.03C48.9618 27.4178 48.9514 26.7989 48.86 26.1893C48.7659 25.7537 48.6719 25.3488 48.5778 25.0052C48.4837 24.6616 48.3917 24.3507 48.2976 24.0399C48.2035 23.729 48.1422 23.4161 48.0808 23.1032C48.0138 22.7541 47.9823 22.3992 47.9867 22.0438C48.0922 21.8138 48.24 21.6057 48.4224 21.4302C48.6719 21.148 48.952 20.8371 49.2404 20.4936C49.5288 20.15 49.7722 19.8084 50.0196 19.471C50.2212 19.1757 50.3399 18.8317 50.3632 18.475C50.3666 18.2979 50.3564 18.1208 50.3325 17.9453C50.2959 17.7311 50.2106 17.5281 50.083 17.3522C49.898 17.1411 49.6622 16.9806 49.3979 16.8859C48.9553 16.742 48.4906 16.6782 48.0256 16.6977C47.6977 16.6993 47.3721 16.7518 47.0603 16.8532C46.7823 16.9516 46.5199 17.0893 46.2811 17.2622C46.0355 17.4153 45.8148 17.6049 45.6266 17.8246C45.4385 18.0414 45.2523 18.2602 45.0969 18.4791C44.3177 19.4751 43.6653 20.287 43.1642 20.9721C42.6652 21.6266 42.2603 22.187 41.9167 22.6553C41.5731 23.1236 41.2622 23.5286 41.0127 23.8395C40.7632 24.183 40.4217 24.6187 39.9901 25.1484C39.5586 25.6781 39.1189 26.1464 38.7119 26.5513C38.3049 26.9563 37.7159 27.4553 37.0287 28.0464C36.8882 28.1679 36.7361 28.2754 36.5747 28.3674C36.3623 28.526 36.1645 28.7033 35.9837 28.8971C35.7825 29.1059 35.6042 29.3356 35.4519 29.5823C35.3006 29.8366 35.2254 30.1291 35.2351 30.4249C35.2174 30.6907 35.26 30.9571 35.3599 31.2041C35.4183 31.3614 35.5145 31.5018 35.6401 31.6131C35.7677 31.7012 35.9208 31.745 36.0757 31.7379C36.2639 31.7379 36.4193 31.7686 36.6381 31.7686C36.8043 31.7727 36.9706 31.7625 37.1351 31.7379C37.3232 31.7072 37.4787 31.7072 37.6341 31.6745C37.6823 32.2489 37.8636 32.8042 38.1638 33.2963C38.4606 33.7424 38.8551 34.1152 39.3173 34.3864C39.8354 34.6701 40.3921 34.8768 40.9698 34.9999C41.6376 35.1287 42.3164 35.1917 42.9965 35.1881C44.0746 35.1755 45.1491 35.0604 46.2054 34.8445C47.3366 34.6198 48.4511 34.3178 49.5411 33.9405C50.618 33.5742 51.6694 33.1369 52.6886 32.6316C53.1176 32.4282 53.5342 32.1994 53.9361 31.9465C54.082 32.1972 54.2468 32.4365 54.429 32.6623C55.0066 33.3888 55.7416 33.9748 56.5785 34.3761C57.5237 34.8157 58.5594 35.0259 59.6012 34.9897C60.3377 34.9906 61.0721 34.9118 61.7916 34.7545C62.5064 34.5877 63.2051 34.3585 63.8797 34.0694C64.5342 33.7892 65.1886 33.4558 65.8124 33.102C66.4362 32.7482 66.9965 32.3555 67.5262 31.9813C67.6817 31.8565 67.8391 31.7317 68.0253 31.607C68.0559 31.7011 68.0887 31.7624 68.1193 31.8565C68.555 32.8218 69.0233 33.601 69.6143 34.1634C70.2054 34.7259 70.7985 35.0347 71.455 35.0347C71.9164 35.0277 72.376 34.9757 72.8273 34.8792C73.3263 34.7545 73.8253 34.6297 74.355 34.4436C74.8851 34.2517 75.4053 34.0333 75.9135 33.7892C76.4125 33.5397 76.9094 33.3208 77.4085 33.0713C77.7214 32.9159 78.0629 32.7298 78.3758 32.5416C78.6845 33.1493 79.0838 33.7065 79.56 34.1941C80.1204 34.7545 80.7441 35.0674 81.4006 35.0674C81.8621 35.0596 82.3217 35.0069 82.7729 34.9099C83.2699 34.7852 83.7689 34.6625 84.2986 34.4743C84.8291 34.2833 85.3492 34.0648 85.857 33.8199C86.3561 33.5703 86.8551 33.3515 87.3541 33.104L88.1947 32.6357C88.2274 32.6664 88.2274 32.6971 88.2581 32.7298C88.8373 33.4547 89.5718 34.0404 90.4075 34.4436C91.3538 34.8823 92.3899 35.0924 93.4323 35.0572C94.1659 35.0527 94.8969 34.969 95.6125 34.8077C96.3276 34.6411 97.0264 34.4112 97.7006 34.1205C98.355 33.8403 99.0116 33.5069 99.6333 33.1552C100.196 32.8116 100.725 32.47 101.192 32.1326C101.192 32.3207 101.224 32.4762 101.224 32.6623C101.267 33.0944 101.383 33.5161 101.566 33.9098C101.714 34.2645 101.964 34.5675 102.284 34.7811C102.646 35.0089 103.071 35.1183 103.499 35.094C103.713 35.1012 103.927 35.0585 104.122 34.9692C104.32 34.8626 104.499 34.7244 104.652 34.5602C104.841 34.3217 104.998 34.0598 105.12 33.781C105.276 33.4681 105.431 33.0631 105.617 32.5968L108.922 23.3936H109.203C109.297 24.1728 109.421 24.9213 109.577 25.7006C109.722 26.4199 109.974 27.1134 110.325 27.758C110.644 28.3495 111.104 28.8526 111.665 29.2223C112.225 29.5973 112.975 29.7841 113.915 29.7827C114.432 29.7895 114.948 29.7157 115.442 29.5639C115.932 29.4099 116.41 29.2227 116.874 29.0035C117.324 28.7903 117.761 28.5513 118.183 28.2877C118.592 28.0382 118.962 27.7887 119.273 27.6005L119.555 23.3057C118.796 23.5347 118.238 23.9397 117.674 24.2771ZM44.5549 30.3288C44.4816 30.6585 44.3552 30.9742 44.1807 31.2634C43.992 31.5427 43.7341 31.7682 43.4322 31.9179C43.0669 32.1056 42.6579 32.1917 42.248 32.1674C41.8757 32.1745 41.5087 32.0775 41.1886 31.8872C40.8914 31.7135 40.6167 31.504 40.3705 31.2634L39.757 30.6498C39.6337 30.4947 39.4546 30.3941 39.258 30.3697L44.3709 25.0093C44.4343 25.1954 44.4956 25.4449 44.5897 25.7271C44.6808 26.1156 44.6912 26.5186 44.6204 26.9113C44.5657 27.3454 44.5554 27.784 44.5897 28.2202C44.6204 28.5617 44.6511 28.9053 44.6511 29.2428C44.6632 29.6073 44.6309 29.972 44.5549 30.3288ZM57.145 25.1852C57.1951 24.6948 57.3106 24.2133 57.4886 23.7536C57.7074 23.1932 57.8628 22.6942 58.0183 22.2892C58.1574 21.8998 58.369 21.5404 58.642 21.2298C58.8956 20.9155 59.2145 20.66 59.5767 20.4813C60.0067 20.2842 60.4761 20.1883 60.949 20.2011C61.2598 20.2011 61.5094 20.3893 61.6955 20.7308C61.9266 21.1386 62.0352 21.6044 62.0084 22.0724C62.0084 22.4446 61.7895 22.9437 61.3539 23.5368C60.981 24.0598 60.5409 24.5315 60.045 24.9398C59.5966 25.2851 59.1033 25.5679 58.5786 25.7803C58.1182 25.9909 57.6204 26.1077 57.1143 26.1239C57.1143 25.8723 57.1143 25.5594 57.145 25.1852ZM71.9826 15.9288C72.3242 14.2783 72.4796 13.4357 72.4796 13.4357C72.4796 13.4357 72.7619 12.5317 73.2977 10.7545C73.8335 8.97724 74.2937 7.67038 74.6986 6.86867C75.0146 6.18911 75.413 5.551 75.8848 4.96872C76.2939 4.50037 76.6313 4.28359 76.9749 4.28359C77.069 4.28359 77.1303 4.40834 77.1303 4.65581C77.1581 4.96721 77.1683 5.27993 77.161 5.59249C77.0179 6.83002 76.7569 8.05107 76.3818 9.23902C75.9744 10.5723 75.4965 11.8831 74.9502 13.1657C74.3898 14.4746 73.7981 15.7522 73.175 16.9984C72.5512 18.2459 71.9581 19.3687 71.3977 20.334C71.4929 18.8541 71.6883 17.3823 71.9826 15.9288ZM75.4717 29.5189C75.1288 29.7244 74.7752 29.9115 74.4123 30.0792C74.0708 30.2347 73.7272 30.3922 73.447 30.4883C73.1827 30.5774 72.9075 30.6297 72.6289 30.6437C72.5627 30.6371 72.4992 30.6137 72.4444 30.5758C72.3897 30.5379 72.3455 30.4866 72.316 30.4269C72.1916 30.2523 72.0912 30.0617 72.0174 29.8604C71.9144 29.5942 71.831 29.3208 71.7679 29.0424C71.7052 28.7348 71.6737 28.4216 71.6738 28.1077V27.8582C71.7109 27.6059 71.7628 27.3559 71.8293 27.1097L72.0174 26.3632C72.0788 26.1137 72.1422 25.9255 72.2035 25.7087C72.2556 25.5386 72.3185 25.3719 72.3917 25.2097C72.952 24.0869 73.5758 22.96 74.261 21.78C74.9461 20.6285 75.6005 19.4117 76.255 18.2275C76.9094 17.0127 77.5639 15.7958 78.157 14.581C78.1877 14.4869 78.2511 14.4256 78.2818 14.3315C77.9075 15.7631 77.6887 16.5137 77.6887 16.5137C77.6887 16.5137 77.5025 17.5097 77.159 19.5364C76.8154 21.5632 76.6293 23.1523 76.6293 24.3671C76.6296 25.7147 76.7446 27.0598 76.9728 28.3879C76.9799 28.4403 76.9901 28.4922 77.0035 28.5433C76.8481 28.6374 76.6927 28.7622 76.5372 28.8562C76.1896 29.0812 75.846 29.3 75.4717 29.5189ZM81.8935 15.9288C82.2351 14.2783 82.3925 13.4357 82.3925 13.4357C82.3925 13.4357 82.6727 12.5317 83.2106 10.7545C83.7485 8.97724 84.2086 7.67038 84.6136 6.86867C84.9289 6.18922 85.3267 5.55112 85.7977 4.96872C86.2068 4.50037 86.5463 4.28359 86.8878 4.28359C86.9819 4.28359 87.0432 4.40834 87.0432 4.65581C87.0728 4.9671 87.0838 5.27989 87.076 5.59249C86.9318 6.82986 86.6709 8.05081 86.2968 9.23902C85.8885 10.572 85.4106 11.8827 84.8651 13.1657C84.3034 14.4746 83.711 15.7522 83.0879 16.9984C82.4641 18.2459 81.8731 19.3687 81.3106 20.334C81.4061 18.8542 81.6009 17.3825 81.8935 15.9288ZM90.8697 25.1852C90.9189 24.6946 91.0345 24.213 91.2133 23.7536C91.4301 23.1932 91.5855 22.6942 91.743 22.2892C91.8791 21.9006 92.0872 21.5412 92.3566 21.2298C92.6109 20.9154 92.9305 20.66 93.2933 20.4813C93.7224 20.2836 94.1913 20.1877 94.6635 20.2011C94.9764 20.2011 95.2239 20.3893 95.4121 20.7308C95.6425 21.1388 95.7504 21.6046 95.7229 22.0724C95.7229 22.4446 95.5061 22.9437 95.0685 23.5368C94.6967 24.0607 94.2565 24.5326 93.7596 24.9398C93.3119 25.2851 92.8192 25.5679 92.2952 25.7803C91.8349 25.9883 91.3379 26.103 90.8329 26.1178C90.8329 25.8723 90.8697 25.5594 90.8697 25.1852Z" fill="#53616E"/>
</svg>
