<svg width="105" height="36" viewBox="0 0 105 36" fill="none" xmlns="http://www.w3.org/2000/svg">
<g clip-path="url(#clip0_339_124)">
<path d="M11.6216 16.4166L7.66794 15.2697C6.30516 14.8689 5.63713 14.4948 5.63713 13.5061C5.63713 12.4373 6.54565 11.7425 8.70901 11.7425C11.0528 11.8119 13.3485 12.4247 15.415 13.5328L16.9381 8.80423C14.4337 7.64663 11.7085 7.04463 8.9495 7.03955C2.96393 7.03955 0.0780262 10.058 0.0780262 13.8524C0.0780262 16.9777 1.89507 19.0086 5.71515 20.024L9.34925 21.0127C11.1396 21.4669 11.8611 22.0548 11.8611 23.0435C11.8611 24.4597 10.4983 25.1545 8.30819 25.1545C5.80535 25.0837 3.37204 24.3152 1.28262 22.9355L0 27.958C2.55422 29.1825 5.34344 29.8389 8.17565 29.882C13.7337 29.882 17.4747 26.9437 17.4747 22.6683C17.4725 19.5964 15.7121 17.5923 11.6216 16.4166Z" fill="#53616E"/>
<path d="M28.3994 25.6611C25.8876 25.6611 24.4724 24.3784 24.1518 22.4021H35.1054C35.3383 21.3315 35.4548 20.2389 35.4527 19.1432C35.4527 15.2141 32.9676 12.0353 27.7869 12.0353C26.5825 11.9837 25.3805 12.1824 24.2568 12.6189C23.133 13.0553 22.112 13.7201 21.2583 14.5712C20.4045 15.4222 19.7365 16.4411 19.2964 17.5634C18.8564 18.6858 18.6539 19.8872 18.7017 21.0917C18.7017 26.141 21.64 30.0412 28.0787 30.0412C30.6865 30.1135 33.2408 29.2933 35.3191 27.7165L33.2883 24.0567C31.8377 25.0319 30.1457 25.5871 28.3994 25.6611ZM27.7581 16.1771C29.7889 16.1771 30.7231 17.1658 30.7231 18.5286C30.7275 18.6628 30.7185 18.7971 30.6963 18.9294H24.2597C24.3968 18.118 24.8309 17.3867 25.4776 16.8777C26.1242 16.3688 26.9372 16.1197 27.7581 16.1771Z" fill="#53616E"/>
<path d="M45.4442 24.8061C44.9154 25.0837 44.331 25.239 43.7341 25.2603C42.879 25.2603 42.5583 24.619 42.5583 23.6036V6.37158H37.0815V24.9931C37.0815 28.5994 38.8184 29.882 41.5162 29.882C42.9267 29.8703 44.3256 29.6265 45.6569 29.1606L45.4442 24.8061Z" fill="#53616E"/>
<path d="M55.5975 24.8061C55.0687 25.0837 54.4843 25.239 53.8874 25.2603C53.0323 25.2603 52.7117 24.619 52.7117 23.6036V6.37158H47.2349V24.9931C47.2349 28.5994 48.9717 29.882 51.6695 29.882C53.08 29.8703 54.4789 29.6265 55.8103 29.1606L55.5975 24.8061Z" fill="#53616E"/>
<path d="M83.2745 13.1843L76.7545 29.324C74.9642 33.9457 73.1204 36.0032 69.0866 36.0032C67.6971 35.987 66.3387 35.5895 65.1596 34.8542L65.9345 30.6857C66.8657 31.2159 67.9092 31.5181 68.9797 31.5675C70.3425 31.5675 70.9303 30.8727 71.4647 29.6703L71.7587 28.9755L66.4689 17.4319H63.5039V29.5345H58.0271V17.4319H55.0889V13.1843H58.0271V12.2501C58.0271 8.91103 59.8976 6.05078 64.1453 6.05078C65.66 6.07127 67.1599 6.35146 68.5799 6.87914L67.5912 11.2336C66.8079 10.8106 65.9414 10.5643 65.0527 10.5122C63.9304 10.5122 63.4761 11.2069 63.4761 12.2758V13.1843H70.4803L74.1401 23.5522L77.7998 13.1843H83.2745Z" fill="#53616E"/>
<path d="M104.167 0.600614C98.7733 -0.200856 93.2907 -0.200856 87.897 0.600614C87.1222 5.9963 87.1222 11.475 87.897 16.8707C90.5928 17.3077 93.3156 17.5577 96.0459 17.6189C98.7677 17.5565 101.482 17.3065 104.169 16.8707C104.943 11.4749 104.943 5.9962 104.167 0.600614ZM95.7509 14.0681C94.4466 14.0487 93.1617 13.7479 91.9843 13.1863L92.5722 10.8883C93.5321 11.5251 94.6527 11.8771 95.8044 11.9037C96.8198 11.9037 97.4343 11.5831 97.4343 10.9418C97.4343 10.4875 97.1137 10.2203 96.2854 10.0065L94.6286 9.55225C92.865 9.07127 92.0367 8.16274 92.0367 6.72086C92.0367 4.98398 93.3727 3.59554 96.124 3.59554C97.3957 3.59891 98.6522 3.87214 99.8104 4.39718L99.1156 6.58832C98.1713 6.07404 97.1187 5.79021 96.0438 5.75996C95.0551 5.75996 94.6275 6.08062 94.6275 6.5616C94.6275 7.01586 94.9215 7.20291 95.5628 7.36324L97.3798 7.89767C99.2503 8.43209 100.079 9.34062 100.079 10.7558C100.025 12.7299 98.3162 14.066 95.7509 14.066V14.0681Z" fill="#53616E"/>
</g>
<defs>
<clipPath id="clip0_339_124">
<rect width="104.747" height="36" fill="white"/>
</clipPath>
</defs>
</svg>
