<svg width="182" height="36" viewBox="0 0 182 36" fill="none" xmlns="http://www.w3.org/2000/svg">
<path d="M14.5072 0.239607C11.1555 0.904637 8.07975 2.49492 5.60215 4.84783C3.98295 6.38932 2.97938 7.71938 2.024 9.56929C0.550577 12.4252 0 14.7287 0 17.99C0 21.2513 0.550577 23.5554 2.024 26.4107C2.97938 28.2606 3.98295 29.5907 5.60215 31.1322C8.98573 34.3609 13.1307 36 17.8907 36C21.0641 36 23.4441 35.4482 26.0669 34.1338C27.3783 33.4688 29.1432 32.3327 29.1432 32.1381C29.1432 32.0731 28.1553 31.0346 26.9578 29.834L24.7717 27.6438L23.8001 28.1793C21.9869 29.1853 20.6755 29.5425 18.522 29.6232C16.8872 29.6882 16.3529 29.6557 15.2029 29.3636C9.90858 28.0329 6.31417 23.4415 6.31417 17.99C6.31417 11.4674 11.4627 6.308 17.9715 6.308C26.5361 6.308 32.122 15.1022 28.5764 22.9873L28.1228 24.0096L30.2926 26.1999C31.4744 27.4004 32.5268 28.3738 32.6238 28.3738C32.9798 28.3738 34.437 25.6481 35.0689 23.7819C35.6839 21.9808 35.9429 20.2284 35.9429 17.9894C35.9429 14.7281 35.3923 12.424 33.9189 9.56869C32.9635 7.71878 31.96 6.38872 30.3408 4.84723C27.8312 2.44613 24.7555 0.872109 21.3225 0.223343C19.7364 -0.085076 16.045 -0.0688123 14.5072 0.239607ZM78.8463 16.9352V28.8606H83.2178V5.00987H78.8463V16.9352ZM146.426 5.25323C140.387 6.56763 136.08 12.4896 136.809 18.4279C137.181 21.3808 138.233 23.5066 140.354 25.6155C142.378 27.6112 144.143 28.5684 146.847 29.1202C149.81 29.7208 153.501 28.9419 155.963 27.2058L156.415 26.8811L157.305 27.6763C158.94 29.0877 158.747 29.0714 159.75 27.9684C161.353 26.1999 161.337 26.3625 160.106 25.2427L159.037 24.2855L159.734 23.0524C162.485 18.2171 161.694 12.5384 157.694 8.57958C155.93 6.81099 153.97 5.75622 151.574 5.25323C150.232 4.96108 147.737 4.96108 146.426 5.25323ZM151.202 9.37412C154.44 10.3801 156.884 13.7546 156.884 17.2111C156.884 18.2008 156.496 19.7586 156.027 20.6832L155.671 21.3645L154.067 19.9694L152.465 18.5743L151.753 19.3694C151.348 19.8236 150.813 20.4405 150.554 20.7808L150.085 21.3651L151.639 22.7121L153.176 24.0584L152.448 24.4319C151.46 24.9349 150.035 25.2921 149.032 25.2921C144.871 25.2921 141.179 21.3977 141.179 17.0334C141.179 16.0762 141.551 14.5835 142.07 13.5288C142.555 12.539 143.867 11.0138 144.855 10.3325C146.637 9.1145 149.146 8.74162 151.202 9.37412ZM41.6089 7.36217V9.39039H49.0568V28.8606H53.5903V9.39039H61.0381V5.33395H41.6089V7.36217ZM164.656 17.0973V28.8606H181.009V24.9668H169.027V5.33455H164.656V17.0973ZM126.122 8.74162V11.1752H123.532V14.745H126.106L126.155 20.2941L126.204 25.8595L126.641 26.6709C127.58 28.4558 128.989 29.2672 131.142 29.2672C132.388 29.2672 132.632 29.2184 133.619 28.7317C134.234 28.4232 134.768 28.0829 134.817 27.9528C134.866 27.8227 134.737 27.3359 134.542 26.8655C134.332 26.4113 134.073 25.7944 133.959 25.5023L133.749 24.9993L133.134 25.3077C132.422 25.6812 131.773 25.6969 131.158 25.389C130.316 24.9348 130.268 24.6427 130.203 19.4833L130.154 14.7456H134.218V11.1758H130.17V6.3086H126.122V8.74162ZM67.4324 10.8018C66.4288 10.8831 64.9229 11.159 64.0326 11.4505C63.3362 11.6614 61.4098 12.4402 61.2152 12.586C61.1339 12.6348 62.5104 15.7172 62.6073 15.7172C62.6399 15.7172 62.9308 15.5877 63.2712 15.4088C65.8614 14.0944 69.0348 14.0625 70.4919 15.36C70.9618 15.7817 71.5605 17.1774 71.5605 17.8912C71.5605 18.4592 71.528 18.5074 71.2045 18.4105C68.889 17.7617 66.218 17.5828 64.5988 17.9725C62.6073 18.4592 60.9074 19.7574 60.1141 21.3796C59.7255 22.1585 59.6605 22.4832 59.6605 23.6674C59.6605 24.8192 59.7249 25.1927 60.0816 25.939C60.9237 27.6913 62.5266 28.8274 64.6958 29.2003C66.8331 29.5738 68.9378 29.1027 70.654 27.8697L71.5605 27.2209V28.86H75.77V22.9217C75.77 16.6099 75.7055 15.8636 74.9285 14.3546C74.4749 13.4625 73.0665 12.0993 72.1111 11.6126C70.8973 11.0126 68.9709 10.6723 67.4324 10.8018ZM69.3751 20.9103C70.0064 21.0079 70.7509 21.1537 71.0425 21.2507C71.5605 21.4127 71.5605 21.429 71.5605 22.4675C71.5605 23.668 71.3334 24.2198 70.5244 24.9174C68.7113 26.5239 65.2789 26.4589 64.1615 24.8041C63.5139 23.8632 63.7079 22.4838 64.5988 21.7537C65.7325 20.829 67.0764 20.5857 69.3751 20.9103ZM93.4993 10.8512C91.5078 11.0783 89.7109 11.9385 88.3182 13.3498C87.0875 14.5829 86.3755 15.816 85.9707 17.4382C84.5943 22.841 87.6062 27.9359 92.8843 29.1202C95.6853 29.737 99.49 28.8606 101.53 27.1082L102.194 26.5402L100.931 25.2746L99.6845 24.009L99.2635 24.3011C98.5996 24.7716 97.2883 25.3884 96.4624 25.6155C95.4745 25.8752 93.4993 25.7619 92.7547 25.3884C91.4271 24.7559 90.2777 23.3114 89.9211 21.835L89.8242 21.3971H103.457L103.392 20.7808C103.343 20.4561 103.263 19.6773 103.214 19.0773C102.955 15.9943 101.093 12.8469 98.8261 11.6945C97.4015 10.9644 95.345 10.6397 93.4993 10.8512ZM96.1871 14.5016C97.5636 14.9883 98.5183 16.0756 99.0207 17.7466L99.2315 18.4767H94.5523C91.962 18.4767 89.8573 18.4442 89.8573 18.4117C89.8573 18.1195 90.4241 16.8702 90.8127 16.3184C91.9614 14.6311 94.3089 13.8366 96.1871 14.5016ZM114.11 10.8668C112.928 11.0451 111.633 11.6457 110.677 12.4896L109.933 13.1547V11.1752H105.562V28.8612H109.917L109.965 23.0687C110.014 17.4063 110.03 17.2436 110.37 16.5786C111.05 15.3293 112.475 14.5341 114.062 14.5341C115.519 14.5179 116.587 15.1672 117.267 16.4485C117.607 17.0816 117.623 17.3087 117.672 22.9711L117.721 28.8612H121.915V22.6464C121.915 18.0063 121.85 16.2377 121.688 15.6371C120.796 12.23 117.752 10.3313 114.11 10.8668Z" fill="#53616E"/>
<path d="M17.9992 25.3583C22.0261 25.3583 25.2905 22.0939 25.2905 18.0671C25.2905 14.0403 22.0261 10.7759 17.9992 10.7759C13.9724 10.7759 10.708 14.0403 10.708 18.0671C10.708 22.0939 13.9724 25.3583 17.9992 25.3583Z" fill="#53616E"/>
</svg>
