<svg width="20" height="20" viewBox="0 0 20 20" fill="none" xmlns="http://www.w3.org/2000/svg">
<g clip-path="url(#clip0_65_0)">
<path d="M19.9993 4.59535C19.9813 5.5016 19.5938 6.38219 18.9084 7.07484C18.605 7.38137 18.1106 7.38402 17.8039 7.08063C17.4973 6.77723 17.4948 6.28273 17.7982 5.97613C18.5086 5.2582 18.7797 4.08301 17.7837 3.07598C16.9435 2.22645 15.851 2.20953 14.9984 3.03211L6.07602 12.1034C5.93731 12.2436 5.66301 12.6105 6.07411 13.0262C6.21575 13.1694 6.36583 13.242 6.52016 13.2419C6.67704 13.2419 6.83895 13.1654 6.97626 13.0265L13.1483 6.72102C13.45 6.41277 13.9445 6.4075 14.2527 6.70922C14.561 7.01094 14.5663 7.50539 14.2646 7.81367L8.08981 14.122C7.65422 14.5626 7.09778 14.8039 6.5204 14.8039H6.52012C5.94965 14.8039 5.39688 14.5627 4.96356 14.1246C4.06997 13.2211 4.07024 11.9097 4.96411 11.0064L13.8979 1.92348L13.9044 1.91719C14.5926 1.24914 15.4566 0.874961 16.3371 0.863555C16.3515 0.863398 16.3659 0.863281 16.3803 0.863281C17.3043 0.863281 18.1727 1.24797 18.8943 1.97758C19.6257 2.71723 20.0182 3.64687 19.9993 4.59535ZM16.4414 8.50262C16.1316 8.20262 15.6371 8.21055 15.3371 8.52043L7.6284 16.482C6.93055 17.1866 6.04766 17.5748 5.14184 17.5749H5.14137C4.2359 17.5749 3.37684 17.1903 2.65723 16.4627C0.972818 14.7596 1.44309 12.7594 2.65676 11.5319L10.3536 3.83672C10.6587 3.53176 10.6587 3.03727 10.3538 2.73223C10.0488 2.42719 9.55434 2.42715 9.24926 2.73211L1.5509 10.4288L1.54797 10.4317C0.582584 11.4073 0.0334432 12.6373 0.0015291 13.8954C-0.0324943 15.237 0.501842 16.5046 1.54669 17.5611C2.55172 18.5773 3.82825 19.1369 5.14137 19.1369H5.14208C6.46958 19.1367 7.74805 18.5828 8.74196 17.5773L16.4592 9.60699C16.7593 9.29707 16.7513 8.80266 16.4414 8.50262Z" fill="#818488" fill-opacity="0.7"/>
</g>
<defs>
<clipPath id="clip0_65_0">
<rect width="20" height="20" fill="white"/>
</clipPath>
</defs>
</svg>
