<svg width="20" height="20" viewBox="0 0 20 20" fill="none" xmlns="http://www.w3.org/2000/svg">
<path d="M4.77684 20C4.15309 20 3.54566 19.7535 3.10445 19.32C2.6643 18.8876 2.42188 18.3014 2.42188 17.6696V3.12496C2.42191 1.40188 3.82375 0 5.54688 0H14.453C16.1761 0 17.578 1.40188 17.578 3.12496V13.7889C17.578 14.2204 17.2282 14.5702 16.7967 14.5702C16.3652 14.5702 16.0155 14.2204 16.0155 13.7889V3.12496C16.0155 2.2634 15.3145 1.56246 14.453 1.56246H5.54688C4.68531 1.56246 3.98438 2.2634 3.98438 3.12496V17.6697C3.98438 17.885 4.05676 18.0653 4.19953 18.2055C4.35121 18.3546 4.5718 18.4419 4.79094 18.4374C5.00844 18.4336 5.18332 18.3607 5.32555 18.2145L9.44012 13.9862C9.58719 13.8351 9.78914 13.7498 10 13.7498C10.2109 13.7498 10.4128 13.8351 10.5599 13.9862L14.6744 18.2145C14.8177 18.3618 14.9913 18.4346 15.2052 18.4374C15.4219 18.4391 15.6435 18.3517 15.7963 18.2009C15.9418 18.0572 16.0156 17.8739 16.0156 17.6561C16.0156 17.2246 16.3654 16.8748 16.7968 16.8748C17.2283 16.8748 17.5781 17.2246 17.5781 17.6561C17.5781 18.2889 17.3352 18.8772 16.8941 19.3127C16.4438 19.7574 15.8196 20.0063 15.1854 19.9998C14.5535 19.9918 13.9896 19.7512 13.5546 19.3042L9.99996 15.6513L6.44535 19.3042C6.01344 19.748 5.4509 19.9885 4.81844 19.9996C4.80461 19.9999 4.7907 20 4.77684 20Z" fill="#B76E79"/>
</svg>
