<svg width="20" height="20" viewBox="0 0 20 20" fill="none" xmlns="http://www.w3.org/2000/svg">
<g clip-path="url(#clip0_28_228)">
<path d="M13.1337 9.21904C13.5652 9.21904 13.9149 9.56881 13.9149 10.0003C13.8738 11.0366 12.3934 11.0363 12.3524 10.0003C12.3524 9.56885 12.7022 9.21904 13.1337 9.21904ZM17.0764 2.92919C10.7915 -3.34246 0.013562 1.1262 0.00520253 10.0003V18.0452C-0.00839133 19.6147 1.81483 20.557 3.08726 19.639L4.71379 18.4869C7.8178 20.4721 12.043 20.4977 15.1796 18.5592C16.0448 17.9869 15.2772 16.7211 14.37 17.2228C11.5847 18.9452 7.80718 18.8199 5.14958 16.9012C4.87915 16.7105 4.51789 16.7109 4.24785 16.9021L2.18409 18.364C2.00897 18.488 1.84233 18.425 1.77885 18.3922C1.71533 18.3593 1.56764 18.2598 1.56764 18.0452V10.0003C1.56764 5.3478 5.35271 1.56273 10.0052 1.56273C16.6679 1.50824 20.7821 9.17701 17.012 14.6834C16.7723 15.042 16.8687 15.5272 17.2273 15.767C17.5861 16.0069 18.0712 15.9104 18.311 15.5517C20.9665 11.7014 20.428 6.18105 17.0764 2.92919ZM9.22738 10.0003C9.22738 10.4318 9.57715 10.7816 10.0086 10.7816C11.045 10.7404 11.0447 9.26002 10.0086 9.21904C9.57715 9.21904 9.22738 9.56885 9.22738 10.0003ZM6.10236 10.0003C6.10236 10.4318 6.45213 10.7816 6.88362 10.7816C7.91995 10.7404 7.91964 9.26002 6.88362 9.21904C6.45213 9.21904 6.10236 9.56885 6.10236 10.0003Z" fill="#B76E79"/>
</g>
<defs>
<clipPath id="clip0_28_228">
<rect width="20" height="20" fill="white"/>
</clipPath>
</defs>
</svg>
