<svg width="50" height="50" viewBox="0 0 50 50" fill="none" xmlns="http://www.w3.org/2000/svg">
<path d="M39.9751 47.6646L35.4311 43.0949C35.1755 42.8378 35.0325 42.4897 35.0335 42.1272C35.0345 41.7646 35.1795 41.4173 35.4366 41.1617L36.6829 39.9224L42.1907 45.4615L39.9751 47.6646Z" fill="#E8E8E8"/>
<path d="M38.8857 42.1366L35.4434 38.6747C35.1877 38.4176 35.0447 38.0695 35.0457 37.707C35.0467 37.3444 35.1917 36.9971 35.4488 36.7415L36.6951 35.5022L40.1375 38.9641C40.3931 39.2212 40.5362 39.5693 40.5352 39.9319C40.5341 40.2944 40.3891 40.6417 40.132 40.8973L38.8857 42.1366Z" fill="#F7E7CE"/>
<path d="M38.8979 37.7164L33.3901 32.1774L35.6058 29.9742L40.1497 34.544C40.4053 34.8011 40.5484 35.1492 40.5474 35.5117C40.5463 35.8742 40.4013 36.2215 40.1442 36.4772L38.8979 37.7164Z" fill="#E8E8E8"/>
<path d="M3.14502 44.9744L9.70752 40.7322L10.662 42.2087C10.8589 42.5133 10.9267 42.8836 10.8506 43.2382C10.7744 43.5928 10.5605 43.9027 10.256 44.0996L4.84189 47.5994L3.14502 44.9744Z" fill="#FEB44A"/>
<path d="M6.5332 39.0628L10.6348 36.4114L11.5893 37.888C11.6867 38.0388 11.7536 38.2073 11.7859 38.384C11.8183 38.5606 11.8155 38.7419 11.7778 38.9175C11.7401 39.0931 11.6682 39.2595 11.5662 39.4073C11.4642 39.5551 11.334 39.6813 11.1832 39.7788L7.08164 42.4302L6.12715 40.9536C5.93026 40.649 5.86242 40.2787 5.93857 39.9241C6.01472 39.5695 6.22862 39.2597 6.5332 39.0628Z" fill="#9FE2BF"/>
<path d="M7.46045 34.7421L12.8745 31.2423L14.5714 33.8673L8.00889 38.1095L7.05439 36.6329C6.8575 36.3283 6.78967 35.958 6.86582 35.6034C6.94197 35.2488 7.15586 34.939 7.46045 34.7421Z" fill="#FEB44A"/>
<path d="M12.7793 2.3446L17.3684 6.86921C17.6265 7.12376 17.773 7.47044 17.7756 7.83298C17.7781 8.19553 17.6366 8.54424 17.382 8.80241L16.148 10.054L10.5855 4.5696L12.7793 2.3446Z" fill="#E8E8E8"/>
<path d="M13.9238 7.85852L17.4004 11.2863C17.6586 11.5408 17.805 11.8875 17.8076 12.25C17.8102 12.6126 17.6686 12.9613 17.4141 13.2195L16.1801 14.471L12.7035 11.0433C12.4453 10.7887 12.2989 10.4421 12.2963 10.0795C12.2937 9.71697 12.4353 9.36826 12.6898 9.11008L13.9238 7.85852Z" fill="#F7E7CE"/>
<path d="M13.9565 12.2753L19.519 17.7597L17.3253 19.9847L12.7362 15.4601C12.4781 15.2055 12.3316 14.8589 12.329 14.4963C12.3264 14.1338 12.468 13.7851 12.7226 13.5269L13.9565 12.2753Z" fill="#E8E8E8"/>
<path d="M25 10.1562C25.8629 10.1562 26.5625 9.4567 26.5625 8.59375C26.5625 7.73081 25.8629 7.03125 25 7.03125C24.1371 7.03125 23.4375 7.73081 23.4375 8.59375C23.4375 9.4567 24.1371 10.1562 25 10.1562Z" fill="#E82F3E"/>
<path d="M44.5312 32.0313C45.3942 32.0313 46.0938 31.3317 46.0938 30.4688C46.0938 29.6058 45.3942 28.9062 44.5312 28.9062C43.6683 28.9062 42.9688 29.6058 42.9688 30.4688C42.9688 31.3317 43.6683 32.0313 44.5312 32.0313Z" fill="#FEB44A"/>
<path d="M18.75 45.3125C19.6129 45.3125 20.3125 44.6129 20.3125 43.75C20.3125 42.8871 19.6129 42.1875 18.75 42.1875C17.8871 42.1875 17.1875 42.8871 17.1875 43.75C17.1875 44.6129 17.8871 45.3125 18.75 45.3125Z" fill="#E82F3E"/>
<path d="M6.25 11.7188C7.11295 11.7188 7.8125 11.0192 7.8125 10.1562C7.8125 9.29331 7.11295 8.59375 6.25 8.59375C5.38706 8.59375 4.6875 9.29331 4.6875 10.1562C4.6875 11.0192 5.38706 11.7188 6.25 11.7188Z" fill="#EA9D2D"/>
<path d="M8.59375 28.125C10.3196 28.125 11.7188 26.7259 11.7188 25C11.7188 23.2741 10.3196 21.875 8.59375 21.875C6.86786 21.875 5.46875 23.2741 5.46875 25C5.46875 26.7259 6.86786 28.125 8.59375 28.125Z" fill="#FBB540"/>
<path d="M37.5 24.2188C38.7944 24.2188 39.8438 23.1694 39.8438 21.875C39.8438 20.5806 38.7944 19.5312 37.5 19.5312C36.2056 19.5312 35.1562 20.5806 35.1562 21.875C35.1562 23.1694 36.2056 24.2188 37.5 24.2188Z" fill="#E8E8E8"/>
<path d="M42.1875 10.1562C43.9134 10.1562 45.3125 8.75714 45.3125 7.03125C45.3125 5.30536 43.9134 3.90625 42.1875 3.90625C40.4616 3.90625 39.0625 5.30536 39.0625 7.03125C39.0625 8.75714 40.4616 10.1562 42.1875 10.1562Z" fill="#E82F3E"/>
<path d="M25.7421 19.017L27.0424 23.0189H31.25C31.4147 23.0189 31.5751 23.071 31.7084 23.1678C31.8416 23.2647 31.9408 23.4012 31.9917 23.5578C32.0426 23.7144 32.0426 23.8832 31.9917 24.0398C31.9409 24.1965 31.8417 24.333 31.7085 24.4298L28.3043 26.903L29.6046 30.9049C29.6555 31.0616 29.6555 31.2303 29.6046 31.387C29.5537 31.5436 29.4545 31.6802 29.3213 31.777C29.188 31.8738 29.0275 31.9259 28.8628 31.9259C28.6981 31.9259 28.5376 31.8737 28.4044 31.7769L25 29.3036L21.5958 31.7774C21.4625 31.8742 21.302 31.9264 21.1373 31.9264C20.9726 31.9264 20.8121 31.8743 20.6788 31.7775C20.5456 31.6806 20.4464 31.5441 20.3955 31.3875C20.3446 31.2308 20.3446 31.062 20.3956 30.9054L21.6959 26.9035L18.2917 24.4303C18.1584 24.3334 18.0592 24.1969 18.0083 24.0402C17.9575 23.8835 17.9575 23.7147 18.0085 23.5581C18.0594 23.4014 18.1587 23.2649 18.292 23.1681C18.4253 23.0713 18.5859 23.0193 18.7506 23.0194H22.958L24.2583 19.0175C24.309 18.8607 24.4081 18.724 24.5414 18.627C24.6746 18.53 24.8352 18.4777 25 18.4777C25.1648 18.4776 25.3255 18.5298 25.4588 18.6267C25.5921 18.7236 25.6913 18.8602 25.7421 19.017Z" fill="#FBB540"/>
<path d="M24.4995 35.1515L28.1464 38.0952L26.1839 40.5265L22.537 37.5827L24.4995 35.1515Z" fill="#FEB44A"/>
<path d="M44.0239 14.0453L47.6708 16.989L45.7083 19.4203L42.0614 16.4765L44.0239 14.0453Z" fill="#9FE2BF"/>
<path d="M29.6758 15.354L32.6195 11.7071L35.0508 13.6696L32.107 17.3165L29.6758 15.354Z" fill="#FEB44A"/>
<path d="M32.0313 6.25002C31.9287 6.25015 31.827 6.23001 31.7322 6.19074C31.6374 6.15147 31.5513 6.09386 31.4788 6.02121L29.9163 4.45871C29.8438 4.38616 29.7862 4.30004 29.747 4.20525C29.7077 4.11046 29.6875 4.00887 29.6875 3.90627C29.6875 3.80367 29.7077 3.70208 29.747 3.60729C29.7862 3.5125 29.8438 3.42638 29.9163 3.35383C29.9889 3.28128 30.075 3.22373 30.1698 3.18447C30.2646 3.14521 30.3662 3.125 30.4688 3.125C30.5714 3.125 30.673 3.14521 30.7678 3.18447C30.8625 3.22373 30.9487 3.28128 31.0212 3.35383L32.5837 4.91633C32.693 5.02559 32.7674 5.1648 32.7975 5.31635C32.8277 5.4679 32.8122 5.62499 32.7531 5.76775C32.694 5.9105 32.5938 6.03252 32.4653 6.11836C32.3369 6.20421 32.1858 6.25003 32.0313 6.25002Z" fill="#E82F3E"/>
<path d="M17.1869 38.2813C17.0455 38.2812 16.9068 38.2427 16.7856 38.17C16.6644 38.0973 16.5651 37.993 16.4985 37.8683C16.4319 37.7437 16.4003 37.6033 16.4072 37.4621C16.4141 37.3209 16.4591 37.1842 16.5376 37.0666L18.1001 34.7228C18.2155 34.5516 18.394 34.4331 18.5966 34.3932C18.7992 34.3532 19.0094 34.3951 19.1811 34.5097C19.3529 34.6242 19.4724 34.8021 19.5134 35.0045C19.5544 35.2068 19.5137 35.4172 19.4001 35.5896L17.8376 37.9334C17.7662 38.0405 17.6695 38.1284 17.5559 38.1891C17.4424 38.2498 17.3156 38.2815 17.1869 38.2813Z" fill="#E82F3E"/>
<path d="M32.0313 45.3125C31.9287 45.3127 31.827 45.2925 31.7322 45.2532C31.6374 45.214 31.5513 45.1564 31.4788 45.0837L29.9163 43.5212C29.7698 43.3747 29.6875 43.176 29.6875 42.9688C29.6875 42.7616 29.7698 42.5628 29.9163 42.4163C30.0628 42.2698 30.2616 42.1875 30.4688 42.1875C30.676 42.1875 30.8747 42.2698 31.0212 42.4163L32.5837 43.9788C32.693 44.0881 32.7674 44.2273 32.7975 44.3789C32.8277 44.5304 32.8122 44.6875 32.7531 44.8302C32.694 44.973 32.5938 45.095 32.4653 45.1809C32.3369 45.2667 32.1858 45.3125 32.0313 45.3125Z" fill="#E82F3E"/>
<path d="M42.1875 26.5625C42.033 26.5625 41.882 26.5167 41.7535 26.4309C41.625 26.345 41.5249 26.223 41.4657 26.0803C41.4066 25.9375 41.3911 25.7804 41.4213 25.6289C41.4514 25.4773 41.5258 25.3381 41.6351 25.2288L43.1976 23.6663C43.3441 23.5198 43.5428 23.4375 43.75 23.4375C43.9572 23.4375 44.156 23.5198 44.3025 23.6663C44.449 23.8128 44.5313 24.0116 44.5313 24.2188C44.5313 24.426 44.449 24.6247 44.3025 24.7712L42.74 26.3337C42.6675 26.4064 42.5814 26.464 42.4866 26.5032C42.3918 26.5425 42.2901 26.5627 42.1875 26.5625Z" fill="#E82F3E"/>
<path d="M5.46877 18.75C5.36615 18.7502 5.26452 18.73 5.16972 18.6907C5.07491 18.6515 4.9888 18.5939 4.91633 18.5212L3.35383 16.9587C3.28128 16.8862 3.22373 16.8 3.18447 16.7053C3.14521 16.6105 3.125 16.5089 3.125 16.4063C3.125 16.3037 3.14521 16.2021 3.18447 16.1073C3.22373 16.0125 3.28128 15.9264 3.35383 15.8538C3.50034 15.7073 3.69906 15.625 3.90627 15.625C4.00887 15.625 4.11046 15.6452 4.20525 15.6845C4.30004 15.7237 4.38616 15.7813 4.45871 15.8538L6.02121 17.4163C6.13047 17.5256 6.20489 17.6648 6.23503 17.8164C6.26518 17.9679 6.24971 18.125 6.19057 18.2678C6.13144 18.4105 6.0313 18.5325 5.90282 18.6184C5.77434 18.7042 5.62329 18.75 5.46877 18.75Z" fill="#E82F3E"/>
</svg>
