<svg width="20" height="20" viewBox="0 0 20 20" fill="none" xmlns="http://www.w3.org/2000/svg">
<g opacity="0.7" clip-path="url(#clip0_28_89)">
<path d="M13.9257 8.35943C13.9257 7.92795 13.576 7.57819 13.1445 7.57819C12.5367 7.57819 11.9817 7.80889 11.5625 8.18728C10.7096 7.38557 9.26907 7.38049 8.41052 8.17646C7.56724 7.38463 6.14351 7.38487 5.30047 8.17646C4.70336 7.61991 3.71559 7.41702 2.92974 7.71783V6.21101H19.2187C19.5806 6.21101 19.8952 5.96238 19.9788 5.61023C20.0624 5.25805 19.8932 4.89458 19.5698 4.73188L10.3316 0.0834811C10.1103 -0.0278852 9.8493 -0.0276508 9.62813 0.0841061L0.42898 4.73251C0.10613 4.89559 -0.062501 5.25903 0.0213655 5.6109C0.105193 5.96273 0.419605 6.21101 0.781321 6.21101H1.36725V16.0937C1.36725 16.5252 1.71702 16.875 2.1485 16.875H11.5625C11.994 16.875 12.3437 16.5252 12.3437 16.0937C12.3437 16.0937 12.3437 9.94797 12.3437 9.94145C12.3437 9.49989 12.7029 9.14068 13.1445 9.14068C13.576 9.14068 13.9257 8.79091 13.9257 8.35943ZM9.98121 1.65628L15.9279 4.64852H4.05965L9.98121 1.65628ZM4.53129 15.3125H2.92974V9.94145C2.97384 8.87884 4.48758 8.87966 4.53129 9.94145V15.3125ZM7.6172 15.3125H6.09378V9.90239C6.13573 8.89161 7.5756 8.8924 7.6172 9.90239V15.3125ZM10.7812 15.3125H9.17969V9.94145C9.17969 9.49989 9.53891 9.14068 9.98047 9.14068C10.422 9.14068 10.7812 9.49989 10.7812 9.94145V15.3125ZM12.9687 19.2187C12.9687 19.6502 12.619 20 12.1875 20H0.781321C-0.255234 19.9587 -0.254453 18.4784 0.781321 18.4375H12.1875C12.619 18.4375 12.9687 18.7872 12.9687 19.2187ZM19.9999 15.7009C19.9999 17.0908 18.9594 18.2421 17.6171 18.415V19.2187C17.5759 20.2552 16.0955 20.2545 16.0546 19.2187V18.4374C14.7435 18.432 13.6785 17.3476 13.6785 16.0156C13.6785 15.5841 14.0283 15.2343 14.4598 15.2343C14.8912 15.2343 15.241 15.5841 15.241 16.0156C15.241 16.4814 15.6181 16.875 16.0645 16.875H17.2663C18.817 16.8104 18.8225 14.5972 17.2663 14.5334H16.6796C15.2098 14.5334 14.0077 13.3581 13.9539 11.8928C13.9526 11.8748 13.9526 11.7534 13.9539 11.7352C14.0001 10.4875 14.8829 9.45067 16.0546 9.17407V8.20314C16.0959 7.16659 17.5762 7.16737 17.6171 8.20314V9.13552C18.7467 9.32716 19.6093 10.3075 19.6093 11.4844C19.6093 11.9158 19.2595 12.2656 18.8281 12.2656C18.3966 12.2656 18.0468 11.9158 18.0468 11.4844C18.0468 11.0321 17.6727 10.6641 17.2128 10.6641H16.6796C16.0451 10.6641 15.5274 11.1778 15.5147 11.8142C15.5274 12.4542 16.0451 12.9709 16.6796 12.9709H17.2663C18.7736 12.971 19.9999 14.1956 19.9999 15.7009Z" fill="#2C2C2C"/>
</g>
<defs>
<clipPath id="clip0_28_89">
<rect width="20" height="20" fill="white"/>
</clipPath>
</defs>
</svg>
