<svg width="20" height="20" viewBox="0 0 20 20" fill="none" xmlns="http://www.w3.org/2000/svg">
<g opacity="0.7" clip-path="url(#clip0_28_77)">
<path d="M9.88352 15.8203C9.75402 15.8203 9.33094 15.7801 9.13836 15.2798L7.91109 12.0889L4.68051 10.8464C4.38477 10.7326 4.18699 10.4515 4.17992 10.1346C4.17281 9.81789 4.35781 9.52816 4.64816 9.40129L13.32 5.61223C13.6139 5.48391 13.9564 5.54805 14.1838 5.77418C14.4111 6.00035 14.4772 6.34246 14.3504 6.63703L10.6004 15.348C10.4775 15.6335 10.197 15.819 9.88609 15.8203C9.88523 15.8203 9.88434 15.8203 9.88352 15.8203ZM7.01754 10.0711L8.79605 10.7552C9.00238 10.8345 9.16543 10.9976 9.24477 11.2039C9.43109 11.6884 9.68504 12.3488 9.92348 12.9688L12.1331 7.83598L7.01754 10.0711ZM15.1743 18.5588C15.5433 18.3352 15.6613 17.8549 15.4377 17.4858C15.2141 17.1167 14.7338 16.9988 14.3647 17.2224C13.0525 18.0173 11.5432 18.4375 10 18.4375C5.34754 18.4375 1.5625 14.6525 1.5625 10C1.5625 5.34754 5.34754 1.5625 10 1.5625C14.6525 1.5625 18.4375 5.34754 18.4375 10C18.4375 11.6636 17.9428 13.283 17.0068 14.683C16.767 15.0417 16.8634 15.5269 17.222 15.7666C17.5808 16.0065 18.0659 15.9101 18.3057 15.5514C19.4141 13.8935 20 11.9738 20 10C20 7.32891 18.9598 4.8177 17.0711 2.92891C15.1823 1.0402 12.6711 0 10 0C7.32891 0 4.8177 1.0402 2.92891 2.92891C1.0402 4.8177 0 7.32891 0 10C0 12.6711 1.0402 15.1823 2.92891 17.0711C4.8177 18.9598 7.32891 20 10 20C11.8286 20 13.6179 19.5016 15.1743 18.5588Z" fill="#2C2C2C"/>
</g>
<defs>
<clipPath id="clip0_28_77">
<rect width="20" height="20" fill="white"/>
</clipPath>
</defs>
</svg>
