<svg width="20" height="20" viewBox="0 0 20 20" fill="none" xmlns="http://www.w3.org/2000/svg">
<g opacity="0.7" clip-path="url(#clip0_28_92)">
<path d="M19.7694 10.3398C19.617 10.4912 19.4178 10.5668 19.2187 10.5668C19.0179 10.5668 18.8172 10.4899 18.6645 10.3362L18.0469 9.71444V12.559C18.0469 12.9905 17.6971 13.3402 17.2656 13.3402C16.8341 13.3402 16.4844 12.9905 16.4844 12.559V8.14167L10.5427 2.16081C10.2511 1.91104 9.82183 1.9101 9.52914 2.15866L3.51527 8.16065C3.5155 8.16839 3.51562 8.17616 3.51562 8.18397V16.4652C3.51562 17.3268 4.21656 18.0277 5.07812 18.0277H7.10937V11.6605C7.10937 11.229 7.45914 10.8793 7.89062 10.8793H12.1875C12.619 10.8793 12.9687 11.229 12.9687 11.6605V18.0277H14.9219C15.7834 18.0277 16.4844 17.3268 16.4844 16.4652C16.4844 16.0337 16.8341 15.684 17.2656 15.684C17.6971 15.684 18.0469 16.0337 18.0469 16.4652C18.0469 18.1883 16.645 19.5902 14.9219 19.5902H12.1875C11.756 19.5902 11.4062 19.2405 11.4062 18.809V12.4418H8.67187V18.809C8.67187 19.2405 8.3221 19.5902 7.89062 19.5902H5.07812C3.355 19.5902 1.95312 18.1883 1.95312 16.4652V9.71975L1.33312 10.3385C1.02777 10.6433 0.533121 10.6428 0.228277 10.3374C-0.0765279 10.0321 -0.0760201 9.53741 0.229371 9.23256L8.44378 1.03432C8.45429 1.02385 8.46507 1.01366 8.47617 1.00377C9.36843 0.209439 10.7116 0.21229 11.6005 1.01038C11.6115 1.0203 11.6223 1.03053 11.6327 1.04108L19.773 9.23495C20.0771 9.54104 20.0755 10.0357 19.7694 10.3398Z" fill="#2C2C2C"/>
</g>
<defs>
<clipPath id="clip0_28_92">
<rect width="20" height="20" fill="white"/>
</clipPath>
</defs>
</svg>
