<svg width="20" height="18" viewBox="0 0 20 18" fill="none" xmlns="http://www.w3.org/2000/svg">
<path d="M19.3152 7.34319C19.3138 7.34183 19.3124 7.34042 19.311 7.33905L13.2184 1.33479C12.5355 0.653583 11.558 0.459755 10.6666 0.828778C9.77387 1.19835 9.2193 2.02815 9.2193 2.99436V6.47933L3.99902 1.33475C3.31617 0.653544 2.33875 0.459716 1.4473 0.828739C0.55457 1.19835 0 2.02815 0 2.9944V15.0055C0 15.9716 0.55457 16.8015 1.4473 17.1711C1.74625 17.2949 2.05488 17.3553 2.35879 17.3553C2.96129 17.3553 3.54543 17.1177 3.99934 16.6648L9.2193 11.5208V15.0054C9.2193 15.9731 9.77274 16.8033 10.6636 17.1722C10.9605 17.2951 11.267 17.3551 11.5691 17.3551C12.1712 17.3551 12.7555 17.1167 13.2097 16.6623C13.5147 16.3571 13.5145 15.8623 13.2093 15.5573C12.9041 15.2523 12.4094 15.2525 12.1043 15.5577C11.7634 15.8988 11.3729 15.7747 11.2614 15.7285C11.1489 15.6819 10.7819 15.4921 10.7819 15.0054V2.9944C10.7819 2.50991 11.1512 2.3194 11.2644 2.27253C11.3775 2.22565 11.7734 2.09944 12.1159 2.44214C12.1173 2.4435 12.1187 2.44491 12.1201 2.44632L18.2116 8.44948C18.5136 8.75343 18.5138 9.2462 18.212 9.55038L14.8051 12.8958C14.4972 13.1982 14.4927 13.6928 14.795 14.0007C15.0974 14.3087 15.5921 14.3132 15.8999 14.0108L19.3099 10.6623C19.3117 10.6606 19.3134 10.6589 19.3151 10.6571C20.2283 9.74343 20.2283 8.25686 19.3152 7.34319ZM8.99242 9.55065L5.62149 12.8724L2.90078 15.5534L2.89652 15.5577C2.55406 15.9003 2.1582 15.7742 2.04504 15.7273C1.93188 15.6804 1.56262 15.4899 1.56262 15.0054V2.9944C1.56262 2.50991 1.93188 2.3194 2.04508 2.27253C2.09836 2.25046 2.21438 2.21077 2.35801 2.21077C2.5193 2.21077 2.71543 2.26085 2.89656 2.44214C2.89797 2.4435 2.89938 2.44491 2.90082 2.44632L8.99231 8.44948C9.29442 8.75354 9.29445 9.24647 8.99242 9.55065Z" fill="#B76E79"/>
</svg>
