<svg width="20" height="20" viewBox="0 0 20 20" fill="none" xmlns="http://www.w3.org/2000/svg">
<path d="M18.4377 15.7019V1.95297C18.4377 1.73767 18.2623 1.56235 18.047 1.56235H16.3284C16.113 1.56235 15.9378 1.73767 15.9378 1.95297V18.4361H19.2188C19.6503 18.4361 20 18.7859 20 19.2172C20 19.6487 19.6503 19.9985 19.2188 19.9985H0.782776C0.351257 19.9985 0.00152588 19.6487 0.00152588 19.2172V13.6317C0.00152588 12.5549 0.877686 11.6788 1.9545 11.6788H3.6731C4.75006 11.6788 5.62607 12.5549 5.62607 13.6317V15.7019C5.62607 16.1334 5.27634 16.4832 4.84497 16.4832C4.41345 16.4832 4.06372 16.1334 4.06372 15.7019V13.6317C4.06372 13.4164 3.88855 13.2411 3.6731 13.2411H1.9545C1.7392 13.2411 1.56387 13.4164 1.56387 13.6317V18.4361H7.18857V8.20251C7.18857 7.12555 8.06458 6.24954 9.14154 6.24954H10.8601C11.937 6.24954 12.8131 7.12555 12.8131 8.20251V15.7019C12.8131 16.1334 12.4634 16.4832 12.0319 16.4832C11.6005 16.4832 11.2506 16.1334 11.2506 15.7019V8.20251C11.2506 7.98706 11.0754 7.81189 10.8601 7.81189H9.14154C8.92609 7.81189 8.75092 7.98706 8.75092 8.20251V18.4361H14.3755V1.95297C14.3755 0.87616 15.2516 0 16.3284 0H18.047C19.1238 0 20 0.87616 20 1.95297V15.7019C20 16.1334 19.6503 16.4832 19.2188 16.4832C18.7874 16.4832 18.4377 16.1334 18.4377 15.7019ZM3.11203 6.99158H1.9487C1.75674 6.99158 1.56235 6.87088 1.56235 6.64017C1.56235 6.20865 1.21262 5.85892 0.78125 5.85892C0.349731 5.85892 0 6.20865 0 6.64017C0 7.68921 0.818176 8.51578 1.87561 8.55225V8.98361C1.87561 9.41513 2.22534 9.76486 2.65686 9.76486C3.08823 9.76486 3.43796 9.41513 3.43796 8.98361V8.53119C4.51263 8.38104 5.31372 7.49725 5.31372 6.39587V6.32751C5.31372 5.09995 4.32602 4.10126 3.11203 4.10126H2.39624C2.04025 4.10126 1.76132 3.8295 1.76132 3.48236V3.42575C1.76132 3.07602 2.0343 2.81235 2.39624 2.81235H3.07312C3.27209 2.81235 3.47778 2.9454 3.47778 3.16833C3.47778 3.59985 3.82767 3.94958 4.25903 3.94958C4.69055 3.94958 5.04028 3.59985 5.04028 3.16833C5.04028 2.23206 4.34891 1.45096 3.43796 1.28357V0.78125C3.43796 0.349731 3.08823 0 2.65686 0C2.22534 0 1.87561 0.349731 1.87561 0.78125V1.31042C1.48895 1.40167 1.1348 1.59439 0.847626 1.87546C0.42923 2.28485 0.198975 2.83539 0.198975 3.42575V3.48236C0.198975 4.07242 0.428772 4.62341 0.8461 5.03403C1.25885 5.44006 1.80939 5.6636 2.39624 5.6636H3.11203C3.45856 5.6636 3.75122 5.96771 3.75122 6.32751V6.39587C3.75122 6.73553 3.47641 6.99158 3.11203 6.99158Z" fill="#B76E79"/>
</svg>
