<svg width="20" height="20" viewBox="0 0 20 20" fill="none" xmlns="http://www.w3.org/2000/svg">
<g clip-path="url(#clip0_134_28)">
<path d="M1.90647 4.13241C2.15986 3.78424 2.6476 3.70745 2.99572 3.96088C3.34389 4.21428 3.42069 4.70202 3.16725 5.05014C3.01483 5.25991 2.7774 5.371 2.53647 5.371C2.37701 5.371 2.21639 5.32264 2.07799 5.22167C1.72983 4.96827 1.65303 4.48057 1.90647 4.13241ZM0.98756 7.89577C1.06748 7.9219 1.14858 7.93436 1.2285 7.93436C1.55717 7.93436 1.86279 7.72499 1.97002 7.39557C2.10295 6.98585 1.8792 6.54608 1.46944 6.41272C1.06006 6.27979 0.619943 6.50393 0.486974 6.91331C0.353615 7.32303 0.577794 7.7628 0.98756 7.89577ZM4.57311 3.33592C4.73217 3.33592 4.89279 3.28717 5.03158 3.18659C5.03119 3.18659 5.03119 3.18659 5.03119 3.18659C5.37975 2.93319 5.45654 2.44545 5.20311 2.09733C4.94967 1.7492 4.46197 1.67237 4.11385 1.92581C3.76572 2.17924 3.68889 2.66655 3.94233 3.01506C4.09475 3.22479 4.33217 3.33592 4.57311 3.33592ZM7.13647 2.02752C7.21639 2.02752 7.29748 2.01545 7.3774 1.98932C7.78713 1.85639 8.01131 1.41663 7.87838 1.00686C7.74506 0.597485 7.30529 0.373345 6.89592 0.506275C6.48619 0.639204 6.26201 1.07897 6.39494 1.48874C6.50217 1.81819 6.80779 2.02752 7.13647 2.02752ZM0.0152163 10.1531C0.0202944 10.178 0.0265053 10.2026 0.0339272 10.2271C0.0413491 10.2513 0.0499038 10.2755 0.0596694 10.2989C0.069435 10.3223 0.0803335 10.3457 0.0924038 10.3679C0.104083 10.3901 0.117365 10.4123 0.131388 10.4334C0.145412 10.4548 0.160646 10.4755 0.177013 10.495C0.19299 10.5149 0.210529 10.534 0.228458 10.5519C0.246388 10.5698 0.26549 10.5874 0.285372 10.6033C0.304865 10.6193 0.325529 10.6349 0.346974 10.649C0.368029 10.663 0.390255 10.6763 0.412482 10.688C0.434708 10.7 0.458107 10.711 0.481505 10.7207C0.504904 10.7305 0.529083 10.739 0.553224 10.7464C0.577794 10.7539 0.602755 10.7601 0.627287 10.7651C0.652248 10.7702 0.677951 10.7741 0.702912 10.7764C0.728654 10.7792 0.754357 10.7803 0.779708 10.7803C0.80506 10.7803 0.830763 10.7792 0.856505 10.7764C0.881466 10.7741 0.907169 10.7702 0.93213 10.7651C0.957091 10.7601 0.981662 10.7539 1.00619 10.7464C1.03037 10.739 1.05455 10.7305 1.07791 10.7207C1.10131 10.7109 1.12471 10.7 1.14693 10.688C1.16955 10.6763 1.19139 10.663 1.21244 10.649C1.23389 10.6349 1.25455 10.6193 1.27404 10.6033C1.29393 10.5874 1.31303 10.5698 1.33096 10.5519C1.34889 10.534 1.36643 10.5149 1.3824 10.495C1.39838 10.4755 1.41397 10.4548 1.42803 10.4334C1.44205 10.4123 1.45533 10.3901 1.46701 10.3679C1.47908 10.3457 1.49002 10.3223 1.49975 10.2989C1.50951 10.2755 1.51807 10.2513 1.52549 10.2271C1.53291 10.2026 1.53912 10.178 1.5442 10.1531C1.54928 10.1281 1.55319 10.1028 1.55549 10.0774C1.55822 10.0521 1.5594 10.026 1.5594 10.0007C1.5594 9.9753 1.55822 9.9496 1.55549 9.92385C1.55315 9.89889 1.54924 9.87319 1.5442 9.84823C1.53912 9.82366 1.53291 9.7987 1.52549 9.77417C1.51807 9.74999 1.50951 9.72581 1.49975 9.70245C1.48998 9.67905 1.47908 9.65565 1.46701 9.63342C1.45533 9.6112 1.44205 9.58897 1.42803 9.56792C1.41401 9.54647 1.39838 9.52581 1.3824 9.50632C1.36643 9.48643 1.34889 9.46733 1.33096 9.4494C1.31303 9.43147 1.29393 9.41393 1.27404 9.39796C1.25455 9.38159 1.23389 9.36639 1.21244 9.35233C1.19139 9.33831 1.16955 9.32503 1.14693 9.31335C1.12471 9.30128 1.10131 9.29034 1.07791 9.28061C1.05451 9.27085 1.03033 9.26229 1.00619 9.25487C0.981622 9.24745 0.957052 9.24124 0.93213 9.23616C0.907169 9.23108 0.881466 9.22717 0.856505 9.22487C0.805451 9.21979 0.753966 9.21979 0.702912 9.22487C0.677951 9.22721 0.652248 9.23112 0.627287 9.23616C0.602716 9.24124 0.577755 9.24745 0.553224 9.25487C0.529044 9.26229 0.504865 9.27085 0.481505 9.28061C0.458107 9.29038 0.434708 9.30128 0.412482 9.31335C0.390255 9.32503 0.368029 9.33831 0.346974 9.35233C0.325529 9.36635 0.304865 9.38159 0.285372 9.39796C0.26549 9.41393 0.246388 9.43147 0.228458 9.4494C0.210529 9.46733 0.19299 9.48643 0.177013 9.50632C0.160646 9.52581 0.145451 9.54647 0.131388 9.56792C0.117365 9.58897 0.104083 9.6112 0.0924038 9.63342C0.0803335 9.65565 0.069396 9.67905 0.0596694 9.70245C0.0499428 9.72585 0.0413491 9.75003 0.0339272 9.77417C0.0265053 9.79874 0.0202944 9.8237 0.0152163 9.84823C0.0101381 9.87319 0.0062319 9.89889 0.00392721 9.92385C0.00119284 9.9496 2.09618e-05 9.9753 2.09618e-05 10.0007C2.09618e-05 10.026 0.00119284 10.0521 0.00392721 10.0774C0.00627096 10.1028 0.0101381 10.1281 0.0152163 10.1531ZM9.98049 3.37295C9.54986 3.37295 9.20076 3.72206 9.20076 4.15268V5.08233C7.89944 5.28647 6.90057 6.41862 6.90057 7.78061V7.92542C6.90057 9.4351 8.12182 10.6634 9.62295 10.6634H10.605C11.2495 10.6634 11.7738 11.1861 11.7738 11.8285V12.3376C11.7738 12.9838 11.2495 13.5094 10.605 13.5094H9.00901C8.5635 13.5094 8.18713 13.1166 8.18713 12.6517C8.18713 12.2211 7.83803 11.872 7.4074 11.872C6.97678 11.872 6.62768 12.2211 6.62768 12.6517C6.62768 13.9845 7.69596 15.0689 9.00901 15.0689H9.20076V15.8876C9.20076 16.3182 9.54986 16.6673 9.98049 16.6673C10.4111 16.6673 10.7602 16.3182 10.7602 15.8876V15.0641C12.1926 14.9833 13.3333 13.7914 13.3333 12.3376V11.8285C13.3333 10.3262 12.1094 9.10389 10.605 9.10389H9.62295C8.9817 9.10389 8.46002 8.57522 8.46002 7.92542V7.78061C8.46002 7.13444 8.9817 6.60882 9.62295 6.60882H10.5516C11.0106 6.60882 11.384 6.97608 11.384 7.42753C11.384 7.85815 11.7331 8.20725 12.1637 8.20725C12.5943 8.20725 12.9434 7.85815 12.9434 7.42753C12.9434 6.18612 11.9817 5.16448 10.7602 5.05897V4.15264C10.7602 3.72206 10.4112 3.37295 9.98049 3.37295ZM19.2203 1.8135C18.7896 1.8135 18.4405 2.1626 18.4405 2.59323V4.70256C17.669 3.47174 16.6358 2.42018 15.4057 1.62209C13.7902 0.574087 11.9142 0.0201416 9.98049 0.0201416C9.95092 0.0201416 9.9219 0.0221338 9.89315 0.0253369C9.87244 0.0276025 9.85147 0.0307666 9.83088 0.0348682C9.74557 0.0514697 9.66549 0.0822119 9.5926 0.124165C9.57963 0.131548 9.56686 0.139243 9.5544 0.147368C9.52775 0.16479 9.50225 0.183696 9.47799 0.204204C9.46229 0.21729 9.44709 0.231157 9.43264 0.245415C9.43041 0.247642 9.42818 0.249829 9.426 0.252056C9.41174 0.26647 9.39787 0.281704 9.38479 0.297407C9.38115 0.301704 9.37756 0.306001 9.37404 0.310337C9.36264 0.324478 9.35158 0.339282 9.34108 0.354439C9.33658 0.360845 9.33221 0.367251 9.32799 0.373814C9.31987 0.386275 9.31217 0.399087 9.30479 0.412017C9.26276 0.485064 9.23201 0.565337 9.21541 0.650845C9.21147 0.670923 9.20854 0.691353 9.20615 0.711509C9.20572 0.715454 9.20506 0.719282 9.20467 0.723189C9.2019 0.74897 9.20072 0.774634 9.20072 0.799907C9.20072 0.825181 9.2019 0.850845 9.20459 0.876509C9.20498 0.880493 9.20565 0.8844 9.20608 0.888345C9.20846 0.908462 9.21139 0.928814 9.21533 0.948775C9.2319 1.03436 9.26268 1.11471 9.30475 1.18784C9.31213 1.20077 9.31979 1.21354 9.32791 1.22596C9.33221 1.23256 9.33662 1.23901 9.34108 1.24545C9.35147 1.26045 9.3624 1.2751 9.37369 1.28913C9.3774 1.29374 9.38119 1.29827 9.38494 1.30272C9.39783 1.31819 9.41151 1.33315 9.42557 1.34741C9.42803 1.34987 9.43049 1.35233 9.43295 1.35479C9.44725 1.36893 9.46233 1.38264 9.47787 1.39561C9.48221 1.39924 9.48651 1.40288 9.49088 1.40639C9.5049 1.41776 9.51963 1.4287 9.53471 1.43913C9.54147 1.44385 9.54822 1.44842 9.55514 1.45288C9.56725 1.46077 9.57971 1.46827 9.59229 1.47545C9.66549 1.51764 9.74596 1.54846 9.83166 1.56506C9.85197 1.56909 9.8726 1.57217 9.89299 1.57444C9.89686 1.57487 9.90068 1.57545 9.90451 1.57581C9.92998 1.57846 9.95537 1.57963 9.98045 1.57963C12.9293 1.57963 15.6655 3.14405 17.1806 5.63151L15.3984 5.63421C14.9678 5.63487 14.6192 5.98444 14.6198 6.4151C14.6205 6.84534 14.9694 7.19366 15.3996 7.19366C15.3999 7.19366 15.4004 7.19366 15.4008 7.19366L17.6816 7.19022C17.6842 7.19022 17.6867 7.19022 17.6892 7.19022C18.3062 7.19022 18.884 6.95202 19.3171 6.51897C19.7601 6.07596 20.0026 5.48124 20 4.8476V2.59323C20 2.1626 19.6509 1.8135 19.2203 1.8135ZM19.0124 12.1051C18.6031 11.9722 18.163 12.1963 18.03 12.6057C17.8971 13.0155 18.1208 13.4552 18.5306 13.5885C18.6105 13.6143 18.692 13.6267 18.7719 13.6267C19.1006 13.6267 19.4062 13.4174 19.513 13.088C19.6464 12.6782 19.4222 12.2384 19.0124 12.1051ZM17.922 14.7796C17.5739 14.5262 17.0862 14.603 16.8328 14.9511C16.5794 15.2992 16.6562 15.7869 17.0043 16.0403C17.1427 16.1409 17.3033 16.1897 17.4624 16.1897C17.7033 16.1897 17.9407 16.0782 18.0935 15.8688C18.347 15.5207 18.2702 15.033 17.922 14.7796ZM12.6226 18.0119C12.2128 18.1448 11.9887 18.5846 12.1216 18.9944C12.2288 19.3238 12.5345 19.5332 12.8631 19.5335C12.9431 19.5335 13.0242 19.5211 13.1041 19.4949C13.5138 19.362 13.738 18.9223 13.6051 18.5125C13.4721 18.1032 13.032 17.879 12.6226 18.0119ZM14.9688 16.8146C14.6203 17.068 14.5435 17.5558 14.7969 17.9039C14.9497 18.1137 15.1871 18.2248 15.4281 18.2248C15.5871 18.2248 15.7478 18.1764 15.8862 18.0754C16.2343 17.822 16.3111 17.3343 16.0581 16.9862C15.8047 16.638 15.3169 16.5612 14.9688 16.8146ZM19.9848 9.84819C19.9797 9.82362 19.9735 9.79866 19.9661 9.77413C19.9587 9.74995 19.9501 9.72577 19.9403 9.70241C19.9306 9.67901 19.9197 9.65561 19.9076 9.63339C19.8959 9.61077 19.8826 9.58893 19.8686 9.56788C19.8546 9.54643 19.839 9.52577 19.823 9.50628C19.807 9.48639 19.7895 9.46729 19.7715 9.44936C19.7536 9.43143 19.7345 9.41389 19.7146 9.39792C19.6951 9.38155 19.6745 9.36635 19.653 9.35229C19.632 9.33827 19.6097 9.32499 19.5875 9.31331C19.5653 9.30124 19.5419 9.2903 19.5185 9.28057C19.4951 9.27081 19.4709 9.26225 19.4468 9.25483C19.4222 9.24741 19.3973 9.2412 19.3727 9.23612C19.3478 9.23104 19.3221 9.22714 19.2971 9.22483C19.246 9.21975 19.1946 9.21975 19.1435 9.22483C19.1185 9.22717 19.0928 9.23108 19.0679 9.23612C19.0433 9.2412 19.0183 9.24741 18.9938 9.25483C18.9696 9.26225 18.9455 9.27081 18.9221 9.28057C18.8987 9.29034 18.8753 9.30124 18.8531 9.31331C18.8308 9.32499 18.8086 9.33827 18.7876 9.35229C18.7661 9.36631 18.7455 9.38155 18.726 9.39792C18.7061 9.41389 18.687 9.43143 18.669 9.44936C18.6511 9.46729 18.6336 9.48639 18.6176 9.50628C18.6016 9.52577 18.586 9.54643 18.572 9.56788C18.558 9.58893 18.5447 9.61077 18.533 9.63339C18.5209 9.65561 18.51 9.67901 18.5003 9.70241C18.4905 9.72581 18.4819 9.74999 18.4745 9.77413C18.4671 9.7987 18.4609 9.82366 18.4558 9.84819C18.4507 9.87315 18.4468 9.89886 18.4445 9.92382C18.4418 9.94956 18.4406 9.97526 18.4406 10.0006C18.4406 10.026 18.4418 10.0517 18.4445 10.0774C18.4469 10.1024 18.4508 10.1281 18.4558 10.153C18.4609 10.1776 18.4671 10.2026 18.4745 10.2271C18.4819 10.2513 18.4905 10.2755 18.5003 10.2988C18.51 10.3222 18.5209 10.3456 18.533 10.3678C18.5447 10.3901 18.558 10.4123 18.572 10.4333C18.586 10.4548 18.6016 10.4755 18.6176 10.4949C18.6336 10.5148 18.6511 10.5339 18.669 10.5519C18.687 10.5698 18.7061 10.5873 18.726 10.6033C18.7455 10.6193 18.7661 10.6349 18.7876 10.6489C18.8086 10.663 18.8308 10.6762 18.8531 10.6879C18.8753 10.7 18.8987 10.7109 18.9221 10.7207C18.9455 10.7304 18.9697 10.739 18.9938 10.7464C19.0184 10.7538 19.0433 10.76 19.0679 10.7651C19.0928 10.7702 19.1185 10.7741 19.1435 10.7764C19.1692 10.7791 19.1949 10.7803 19.2203 10.7803C19.2456 10.7803 19.2713 10.7791 19.2971 10.7764C19.3221 10.7741 19.3478 10.7701 19.3727 10.7651C19.3973 10.76 19.4222 10.7538 19.4468 10.7464C19.471 10.739 19.4951 10.7304 19.5185 10.7207C19.5419 10.7109 19.5653 10.7 19.5875 10.6879C19.6097 10.6762 19.632 10.663 19.653 10.6489C19.6745 10.6349 19.6951 10.6193 19.7146 10.6033C19.7345 10.5873 19.7536 10.5698 19.7715 10.5519C19.7895 10.5339 19.807 10.5148 19.823 10.4949C19.839 10.4755 19.8546 10.4548 19.8686 10.4333C19.8826 10.4123 19.8959 10.3901 19.9076 10.3678C19.9197 10.3456 19.9306 10.3222 19.9403 10.2988C19.9501 10.2754 19.9587 10.2512 19.9661 10.2271C19.9735 10.2025 19.9797 10.1776 19.9848 10.153C19.9899 10.1281 19.9938 10.1024 19.9961 10.0774C19.9988 10.0517 20 10.026 20 10.0006C20 9.97526 19.9988 9.94956 19.9961 9.92382C19.9937 9.89886 19.9899 9.87315 19.9848 9.84819ZM10.6264 19.6904C10.6375 19.6766 10.6482 19.6623 10.6584 19.6475C10.6632 19.6407 10.6679 19.6339 10.6724 19.6269C10.6805 19.6144 10.6882 19.6017 10.6955 19.5887C10.7376 19.5156 10.7682 19.4352 10.7847 19.3495C10.7887 19.3296 10.7917 19.3095 10.7939 19.2893C10.7944 19.2851 10.795 19.2809 10.7954 19.2766C10.798 19.252 10.7992 19.2267 10.7992 19.2021C10.7992 19.2019 10.7992 19.2016 10.7992 19.2014C10.7992 19.2012 10.7992 19.2009 10.7992 19.2007C10.7992 19.1761 10.798 19.1512 10.7954 19.1262C10.795 19.1219 10.7944 19.1176 10.7939 19.1132C10.7917 19.0934 10.7887 19.0733 10.7847 19.0535C10.7682 18.9672 10.7371 18.8862 10.6947 18.8126C10.6878 18.8007 10.6808 18.7889 10.6733 18.7774C10.6684 18.7698 10.6633 18.7624 10.6582 18.7549C10.6481 18.7405 10.6376 18.7263 10.6267 18.7128C10.6227 18.7078 10.6186 18.7029 10.6146 18.6981C10.602 18.6832 10.5888 18.6686 10.5752 18.6548C10.5722 18.6517 10.5692 18.6487 10.5662 18.6458C10.5524 18.6322 10.5379 18.619 10.523 18.6065C10.518 18.6022 10.5129 18.598 10.5078 18.5939C10.4943 18.5831 10.4803 18.5726 10.4659 18.5626C10.4586 18.5575 10.4513 18.5526 10.4438 18.5478C10.4321 18.5402 10.4202 18.533 10.4081 18.5261C10.3347 18.4837 10.254 18.4528 10.1681 18.4362C10.1479 18.4323 10.1274 18.4292 10.1072 18.4269C10.0783 18.4237 10.0492 18.4217 10.0195 18.4217C7.07065 18.4217 4.33447 16.8573 2.81928 14.3698L4.60158 14.3671C5.03221 14.3665 5.38076 14.0169 5.38014 13.5862C5.37947 13.156 5.03049 12.8077 4.60041 12.8077C4.60002 12.8077 4.59959 12.8077 4.5992 12.8077L2.31834 12.8112C2.3158 12.8112 2.31326 12.8112 2.31072 12.8112C1.69381 12.8112 1.11604 13.0493 0.682951 13.4824C0.239943 13.9254 -0.00259623 14.5201 2.09618e-05 15.1537V17.408C2.09618e-05 17.8387 0.349123 18.1878 0.779747 18.1878C1.21037 18.1878 1.55947 17.8387 1.55947 17.408V15.2987C2.33096 16.5295 3.36416 17.5811 4.59432 18.3791C6.20943 19.4269 8.08498 19.9808 10.0183 19.9811C10.0187 19.9811 10.0191 19.9812 10.0195 19.9812C10.0448 19.9812 10.0704 19.98 10.0961 19.9773C10.0996 19.9769 10.103 19.9764 10.1065 19.976C10.1272 19.9737 10.1483 19.9705 10.1688 19.9664C10.2544 19.9498 10.3346 19.9191 10.4076 19.877C10.4202 19.8698 10.4326 19.8623 10.4447 19.8544C10.4517 19.8499 10.4585 19.8452 10.4654 19.8405C10.4803 19.8301 10.4949 19.8193 10.5088 19.8081C10.5134 19.8044 10.5179 19.8006 10.5224 19.7968C10.5377 19.7841 10.5525 19.7705 10.5666 19.7566C10.5694 19.7539 10.5721 19.7512 10.5748 19.7484C10.5887 19.7344 10.6021 19.7196 10.6149 19.7043C10.6188 19.6997 10.6226 19.6951 10.6264 19.6904Z" fill="#B76E79"/>
</g>
<defs>
<clipPath id="clip0_134_28">
<rect width="20" height="20" fill="white"/>
</clipPath>
</defs>
</svg>
