<svg width="20" height="20" viewBox="0 0 20 20" fill="none" xmlns="http://www.w3.org/2000/svg">
<g clip-path="url(#clip0_202_0)">
<path d="M1.90634 4.13229C2.15974 3.78412 2.64748 3.70732 2.9956 3.96076C3.34377 4.21416 3.42056 4.7019 3.16713 5.05002C3.0147 5.25979 2.77728 5.37088 2.53634 5.37088C2.37689 5.37088 2.21627 5.32252 2.07787 5.22154C1.7297 4.96815 1.65291 4.48045 1.90634 4.13229ZM0.987438 7.89565C1.06736 7.92178 1.14845 7.93424 1.22838 7.93424C1.55705 7.93424 1.86267 7.72486 1.9699 7.39545C2.10283 6.98572 1.87908 6.54596 1.46931 6.4126C1.05994 6.27967 0.619821 6.50381 0.486852 6.91319C0.353493 7.32291 0.577672 7.76268 0.987438 7.89565ZM4.57298 3.3358C4.73205 3.3358 4.89267 3.28705 5.03146 3.18647C5.03107 3.18647 5.03107 3.18647 5.03107 3.18647C5.37963 2.93307 5.45642 2.44533 5.20298 2.09721C4.94955 1.74908 4.46185 1.67225 4.11373 1.92568C3.7656 2.17912 3.68877 2.66643 3.9422 3.01494C4.09462 3.22467 4.33205 3.3358 4.57298 3.3358ZM7.13634 2.0274C7.21627 2.0274 7.29736 2.01533 7.37728 1.9892C7.78701 1.85627 8.01119 1.4165 7.87826 1.00674C7.74494 0.597363 7.30517 0.373223 6.8958 0.506152C6.48607 0.639082 6.26189 1.07885 6.39482 1.48861C6.50205 1.81807 6.80767 2.0274 7.13634 2.0274ZM0.0150942 10.153C0.0201723 10.1779 0.0263833 10.2025 0.0338051 10.227C0.041227 10.2512 0.0497817 10.2754 0.0595473 10.2987C0.069313 10.3221 0.0802114 10.3455 0.0922817 10.3678C0.103961 10.39 0.117243 10.4122 0.131266 10.4333C0.14529 10.4547 0.160524 10.4754 0.176891 10.4949C0.192868 10.5147 0.210407 10.5338 0.228336 10.5518C0.246266 10.5697 0.265368 10.5872 0.28525 10.6032C0.304743 10.6192 0.325407 10.6348 0.346852 10.6488C0.367907 10.6629 0.390133 10.6762 0.41236 10.6878C0.434586 10.6999 0.457985 10.7108 0.481383 10.7206C0.504782 10.7303 0.528961 10.7389 0.553102 10.7463C0.577672 10.7537 0.602633 10.7599 0.627164 10.765C0.652125 10.7701 0.677829 10.774 0.702789 10.7763C0.728532 10.779 0.754235 10.7802 0.779586 10.7802C0.804938 10.7802 0.830641 10.779 0.856383 10.7763C0.881344 10.774 0.907047 10.7701 0.932008 10.765C0.956969 10.76 0.981539 10.7537 1.00607 10.7463C1.03025 10.7389 1.05443 10.7303 1.07779 10.7206C1.10119 10.7108 1.12459 10.6999 1.14681 10.6878C1.16943 10.6762 1.19127 10.6629 1.21232 10.6488C1.23377 10.6348 1.25443 10.6192 1.27392 10.6032C1.29381 10.5872 1.31291 10.5697 1.33084 10.5518C1.34877 10.5338 1.36631 10.5147 1.38228 10.4949C1.39826 10.4754 1.41384 10.4547 1.42791 10.4333C1.44193 10.4122 1.45521 10.39 1.46689 10.3678C1.47896 10.3455 1.4899 10.3221 1.49963 10.2987C1.50939 10.2753 1.51795 10.2512 1.52537 10.227C1.53279 10.2024 1.539 10.1779 1.54408 10.153C1.54916 10.128 1.55306 10.1026 1.55537 10.0773C1.5581 10.052 1.55927 10.0259 1.55927 10.0005C1.55927 9.97518 1.5581 9.94947 1.55537 9.92373C1.55302 9.89877 1.54912 9.87307 1.54408 9.84811C1.539 9.82354 1.53279 9.79858 1.52537 9.77404C1.51795 9.74987 1.50939 9.72569 1.49963 9.70233C1.48986 9.67893 1.47896 9.65553 1.46689 9.6333C1.45521 9.61108 1.44193 9.58885 1.42791 9.56779C1.41388 9.54635 1.39826 9.52569 1.38228 9.50619C1.36631 9.48631 1.34877 9.46721 1.33084 9.44928C1.31291 9.43135 1.29381 9.41381 1.27392 9.39783C1.25443 9.38147 1.23377 9.36627 1.21232 9.35221C1.19127 9.33819 1.16943 9.3249 1.14681 9.31322C1.12459 9.30115 1.10119 9.29022 1.07779 9.28049C1.05439 9.27072 1.03021 9.26217 1.00607 9.25475C0.9815 9.24733 0.95693 9.24112 0.932008 9.23604C0.907047 9.23096 0.881344 9.22705 0.856383 9.22475C0.805329 9.21967 0.753844 9.21967 0.702789 9.22475C0.677829 9.22709 0.652125 9.231 0.627164 9.23604C0.602594 9.24112 0.577633 9.24733 0.553102 9.25475C0.528922 9.26217 0.504743 9.27072 0.481383 9.28049C0.457985 9.29026 0.434586 9.30115 0.41236 9.31322C0.390133 9.3249 0.367907 9.33819 0.346852 9.35221C0.325407 9.36623 0.304743 9.38147 0.28525 9.39783C0.265368 9.41381 0.246266 9.43135 0.228336 9.44928C0.210407 9.46721 0.192868 9.48631 0.176891 9.50619C0.160524 9.52569 0.145329 9.54635 0.131266 9.56779C0.117243 9.58885 0.103961 9.61108 0.0922817 9.6333C0.0802114 9.65553 0.0692739 9.67893 0.0595473 9.70233C0.0498208 9.72572 0.041227 9.7499 0.0338051 9.77404C0.0263833 9.79862 0.0201723 9.82358 0.0150942 9.84811C0.0100161 9.87307 0.00610983 9.89877 0.00380514 9.92373C0.00107077 9.94947 -0.000101108 9.97518 -0.000101108 10.0005C-0.000101108 10.0259 0.00107077 10.052 0.00380514 10.0773C0.00614889 10.1026 0.0100161 10.128 0.0150942 10.153ZM9.98037 3.37283C9.54974 3.37283 9.20064 3.72193 9.20064 4.15256V5.08221C7.89931 5.28635 6.90045 6.4185 6.90045 7.78049V7.92529C6.90045 9.43498 8.1217 10.6633 9.62283 10.6633H10.6049C11.2494 10.6633 11.7737 11.186 11.7737 11.8284V12.3375C11.7737 12.9837 11.2494 13.5093 10.6049 13.5093H9.00888C8.56338 13.5093 8.18701 13.1165 8.18701 12.6516C8.18701 12.221 7.83791 11.8719 7.40728 11.8719C6.97666 11.8719 6.62755 12.221 6.62755 12.6516C6.62755 13.9844 7.69584 15.0687 9.00888 15.0687H9.20064V15.8874C9.20064 16.3181 9.54974 16.6672 9.98037 16.6672C10.411 16.6672 10.7601 16.3181 10.7601 15.8874V15.064C12.1925 14.9831 13.3332 13.7913 13.3332 12.3374V11.8284C13.3332 10.326 12.1092 9.10377 10.6049 9.10377H9.62283C8.98158 9.10377 8.4599 8.5751 8.4599 7.92529V7.78049C8.4599 7.13432 8.98158 6.60869 9.62283 6.60869H10.5515C11.0104 6.60869 11.3838 6.97596 11.3838 7.4274C11.3838 7.85803 11.7329 8.20713 12.1636 8.20713C12.5942 8.20713 12.9433 7.85803 12.9433 7.4274C12.9433 6.186 11.9815 5.16436 10.7601 5.05885V4.15252C10.7601 3.72193 10.411 3.37283 9.98037 3.37283ZM19.2201 1.81338C18.7895 1.81338 18.4404 2.16248 18.4404 2.59311V4.70244C17.6689 3.47162 16.6357 2.42006 15.4056 1.62197C13.7901 0.573965 11.9141 0.0200195 9.98037 0.0200195C9.9508 0.0200195 9.92177 0.0220117 9.89302 0.0252148C9.87232 0.0274805 9.85134 0.0306445 9.83076 0.0347461C9.74545 0.0513477 9.66537 0.0820898 9.59248 0.124043C9.57951 0.131426 9.56673 0.139121 9.55427 0.147246C9.52763 0.164668 9.50213 0.183574 9.47787 0.204082C9.46216 0.217168 9.44697 0.231035 9.43252 0.245293C9.43029 0.24752 9.42806 0.249707 9.42587 0.251934C9.41162 0.266348 9.39775 0.281582 9.38466 0.297285C9.38103 0.301582 9.37744 0.305879 9.37392 0.310215C9.36252 0.324356 9.35146 0.33916 9.34095 0.354317C9.33646 0.360723 9.33209 0.367129 9.32787 0.373691C9.31974 0.386152 9.31205 0.398965 9.30466 0.411895C9.26263 0.484942 9.23189 0.565215 9.21529 0.650723C9.21134 0.670801 9.20841 0.691231 9.20603 0.711387C9.2056 0.715332 9.20494 0.71916 9.20455 0.723067C9.20177 0.748848 9.2006 0.774512 9.2006 0.799785C9.2006 0.825059 9.20177 0.850723 9.20447 0.876387C9.20486 0.880371 9.20552 0.884278 9.20595 0.888223C9.20834 0.90834 9.21127 0.928692 9.21521 0.948652C9.23177 1.03424 9.26256 1.11459 9.30463 1.18772C9.31201 1.20064 9.31966 1.21342 9.32779 1.22584C9.33209 1.23244 9.3365 1.23889 9.34095 1.24533C9.35134 1.26033 9.36228 1.27498 9.37357 1.289C9.37728 1.29361 9.38107 1.29814 9.38482 1.3026C9.39771 1.31807 9.41138 1.33303 9.42545 1.34729C9.42791 1.34975 9.43037 1.35221 9.43283 1.35467C9.44713 1.36881 9.4622 1.38252 9.47775 1.39549C9.48209 1.39912 9.48638 1.40275 9.49076 1.40627C9.50478 1.41764 9.51951 1.42857 9.53459 1.439C9.54134 1.44373 9.5481 1.4483 9.55502 1.45275C9.56713 1.46064 9.57959 1.46814 9.59216 1.47533C9.66537 1.51752 9.74584 1.54834 9.83154 1.56494C9.85185 1.56897 9.87248 1.57205 9.89287 1.57432C9.89673 1.57475 9.90056 1.57533 9.90439 1.57568C9.92986 1.57834 9.95525 1.57951 9.98033 1.57951C12.9292 1.57951 15.6653 3.14393 17.1805 5.63139L15.3983 5.63408C14.9677 5.63475 14.6191 5.98432 14.6197 6.41498C14.6204 6.84522 14.9693 7.19354 15.3994 7.19354C15.3998 7.19354 15.4003 7.19354 15.4006 7.19354L17.6815 7.1901C17.684 7.1901 17.6865 7.1901 17.6891 7.1901C18.306 7.1901 18.8838 6.9519 19.3169 6.51885C19.7599 6.07584 20.0025 5.48111 19.9999 4.84748V2.59311C19.9999 2.16248 19.6508 1.81338 19.2201 1.81338ZM19.0123 12.105C18.6029 11.9721 18.1628 12.1962 18.0299 12.6056C17.8969 13.0153 18.1207 13.4551 18.5304 13.5884C18.6104 13.6142 18.6919 13.6266 18.7718 13.6266C19.1004 13.6266 19.4061 13.4172 19.5129 13.0878C19.6463 12.6781 19.4221 12.2383 19.0123 12.105ZM17.9219 14.7794C17.5737 14.526 17.086 14.6028 16.8326 14.951C16.5792 15.2991 16.656 15.7868 17.0042 16.0402C17.1426 16.1408 17.3032 16.1896 17.4622 16.1896C17.7032 16.1896 17.9406 16.0781 18.0934 15.8687C18.3469 15.5206 18.2701 15.0328 17.9219 14.7794ZM12.6225 18.0118C12.2127 18.1447 11.9886 18.5845 12.1215 18.9942C12.2287 19.3237 12.5344 19.533 12.863 19.5334C12.9429 19.5334 13.024 19.521 13.104 19.4948C13.5137 19.3619 13.7379 18.9221 13.6049 18.5124C13.472 18.103 13.0319 17.8789 12.6225 18.0118ZM14.9687 16.8145C14.6201 17.0679 14.5433 17.5556 14.7968 17.9038C14.9496 18.1135 15.187 18.2246 15.4279 18.2246C15.587 18.2246 15.7476 18.1763 15.886 18.0753C16.2342 17.8219 16.311 17.3342 16.0579 16.986C15.8045 16.6379 15.3168 16.5611 14.9687 16.8145ZM19.9847 9.84807C19.9796 9.8235 19.9734 9.79854 19.966 9.77401C19.9585 9.74983 19.95 9.72565 19.9402 9.70229C19.9304 9.67889 19.9195 9.65549 19.9075 9.63326C19.8958 9.61065 19.8825 9.58881 19.8685 9.56776C19.8545 9.54631 19.8388 9.52565 19.8229 9.50615C19.8069 9.48627 19.7894 9.46717 19.7714 9.44924C19.7535 9.43131 19.7344 9.41377 19.7145 9.3978C19.695 9.38143 19.6744 9.36623 19.6529 9.35217C19.6319 9.33815 19.6096 9.32487 19.5874 9.31319C19.5652 9.30112 19.5418 9.29018 19.5184 9.28045C19.495 9.27069 19.4708 9.26213 19.4467 9.25471C19.4221 9.24729 19.3972 9.24108 19.3726 9.236C19.3476 9.23092 19.3219 9.22701 19.297 9.22471C19.2459 9.21963 19.1944 9.21963 19.1434 9.22471C19.1184 9.22705 19.0927 9.23096 19.0678 9.236C19.0432 9.24108 19.0182 9.24729 18.9937 9.25471C18.9695 9.26213 18.9453 9.27069 18.922 9.28045C18.8986 9.29022 18.8752 9.30112 18.8529 9.31319C18.8307 9.32487 18.8085 9.33815 18.7874 9.35217C18.766 9.36619 18.7453 9.38143 18.7258 9.3978C18.706 9.41377 18.6869 9.43131 18.6689 9.44924C18.651 9.46717 18.6335 9.48627 18.6175 9.50615C18.6015 9.52565 18.5859 9.54631 18.5719 9.56776C18.5578 9.58881 18.5445 9.61065 18.5329 9.63326C18.5208 9.65549 18.5099 9.67889 18.5001 9.70229C18.4904 9.72569 18.4818 9.74987 18.4744 9.77401C18.467 9.79858 18.4608 9.82354 18.4557 9.84807C18.4506 9.87303 18.4467 9.89873 18.4444 9.92369C18.4417 9.94944 18.4405 9.97514 18.4405 10.0005C18.4405 10.0258 18.4417 10.0515 18.4444 10.0773C18.4467 10.1022 18.4506 10.128 18.4557 10.1529C18.4608 10.1775 18.467 10.2024 18.4744 10.227C18.4818 10.2512 18.4904 10.2753 18.5001 10.2987C18.5099 10.3221 18.5208 10.3455 18.5329 10.3677C18.5445 10.3899 18.5578 10.4122 18.5719 10.4332C18.5859 10.4547 18.6015 10.4753 18.6175 10.4948C18.6335 10.5147 18.651 10.5338 18.6689 10.5517C18.6869 10.5697 18.706 10.5872 18.7258 10.6032C18.7453 10.6192 18.766 10.6347 18.7874 10.6488C18.8085 10.6628 18.8307 10.6761 18.8529 10.6878C18.8752 10.6999 18.8986 10.7108 18.922 10.7205C18.9454 10.7303 18.9695 10.7388 18.9937 10.7463C19.0183 10.7537 19.0432 10.7599 19.0678 10.765C19.0927 10.7701 19.1184 10.774 19.1434 10.7763C19.1691 10.779 19.1948 10.7802 19.2202 10.7802C19.2455 10.7802 19.2712 10.779 19.297 10.7763C19.3219 10.7739 19.3476 10.77 19.3726 10.765C19.3972 10.7599 19.4221 10.7537 19.4467 10.7463C19.4708 10.7388 19.495 10.7303 19.5184 10.7205C19.5418 10.7108 19.5652 10.6999 19.5874 10.6878C19.6096 10.6761 19.6319 10.6628 19.6529 10.6488C19.6744 10.6348 19.695 10.6192 19.7145 10.6032C19.7344 10.5872 19.7535 10.5697 19.7714 10.5517C19.7894 10.5338 19.8069 10.5147 19.8229 10.4948C19.8388 10.4753 19.8544 10.4547 19.8685 10.4332C19.8825 10.4122 19.8958 10.3899 19.9075 10.3677C19.9195 10.3455 19.9305 10.3221 19.9402 10.2987C19.95 10.2753 19.9585 10.2511 19.966 10.227C19.9734 10.2024 19.9796 10.1775 19.9847 10.1529C19.9897 10.128 19.9936 10.1022 19.996 10.0773C19.9987 10.0515 19.9999 10.0258 19.9999 10.0005C19.9999 9.97514 19.9987 9.94944 19.996 9.92369C19.9936 9.89873 19.9897 9.87303 19.9847 9.84807ZM10.6263 19.6903C10.6374 19.6765 10.6481 19.6621 10.6583 19.6474C10.6631 19.6406 10.6678 19.6337 10.6722 19.6267C10.6804 19.6143 10.6881 19.6015 10.6954 19.5886C10.7374 19.5155 10.7681 19.4351 10.7846 19.3494C10.7885 19.3295 10.7916 19.3094 10.7938 19.2892C10.7943 19.2849 10.7949 19.2808 10.7953 19.2765C10.7979 19.2519 10.799 19.2265 10.799 19.202C10.799 19.2017 10.7991 19.2015 10.7991 19.2013C10.7991 19.201 10.799 19.2008 10.799 19.2005C10.799 19.176 10.7979 19.151 10.7953 19.1261C10.7949 19.1217 10.7943 19.1174 10.7938 19.1131C10.7915 19.0933 10.7885 19.0732 10.7846 19.0534C10.7681 18.9671 10.737 18.8861 10.6945 18.8124C10.6877 18.8005 10.6806 18.7888 10.6732 18.7773C10.6683 18.7697 10.6632 18.7622 10.6581 18.7548C10.648 18.7403 10.6375 18.7262 10.6266 18.7127C10.6226 18.7077 10.6185 18.7028 10.6144 18.698C10.6019 18.683 10.5886 18.6685 10.5751 18.6546C10.5721 18.6516 10.5691 18.6486 10.5661 18.6456C10.5523 18.6321 10.5378 18.6189 10.5229 18.6064C10.5178 18.6021 10.5128 18.5979 10.5076 18.5938C10.4942 18.583 10.4802 18.5725 10.4658 18.5625C10.4585 18.5574 10.4511 18.5525 10.4437 18.5476C10.432 18.5401 10.4201 18.5329 10.408 18.526C10.3346 18.4836 10.2539 18.4527 10.1679 18.4361C10.1478 18.4321 10.1273 18.429 10.107 18.4268C10.0782 18.4236 10.0491 18.4216 10.0194 18.4216C7.07052 18.4216 4.33435 16.8572 2.81916 14.3697L4.60146 14.367C5.03209 14.3664 5.38064 14.0167 5.38002 13.5861C5.37935 13.1559 5.03037 12.8076 4.60029 12.8076C4.5999 12.8076 4.59947 12.8076 4.59908 12.8076L2.31822 12.811C2.31568 12.811 2.31314 12.811 2.3106 12.811C1.69369 12.811 1.11591 13.0492 0.682829 13.4823C0.239821 13.9253 -0.0027183 14.52 -0.000101108 15.1536V17.4079C-0.000101108 17.8385 0.349 18.1876 0.779625 18.1876C1.21025 18.1876 1.55935 17.8385 1.55935 17.4079V15.2986C2.33084 16.5294 3.36404 17.581 4.5942 18.379C6.20931 19.4268 8.08486 19.9807 10.0181 19.981C10.0185 19.981 10.019 19.981 10.0194 19.981C10.0447 19.981 10.0703 19.9799 10.096 19.9771C10.0995 19.9768 10.1029 19.9762 10.1064 19.9758C10.1271 19.9736 10.1481 19.9704 10.1687 19.9663C10.2542 19.9497 10.3345 19.9189 10.4075 19.8769C10.4201 19.8697 10.4324 19.8622 10.4445 19.8543C10.4515 19.8498 10.4584 19.8451 10.4653 19.8403C10.4802 19.83 10.4947 19.8192 10.5086 19.808C10.5133 19.8042 10.5178 19.8005 10.5222 19.7967C10.5376 19.7839 10.5524 19.7704 10.5665 19.7565C10.5692 19.7538 10.572 19.751 10.5747 19.7483C10.5885 19.7342 10.602 19.7194 10.6147 19.7042C10.6186 19.6996 10.6225 19.695 10.6263 19.6903Z" fill="white"/>
</g>
<defs>
<clipPath id="clip0_202_0">
<rect width="20" height="20" fill="white"/>
</clipPath>
</defs>
</svg>
