<svg width="18" height="18" viewBox="0 0 18 18" fill="none" xmlns="http://www.w3.org/2000/svg">
<g clip-path="url(#clip0_287_10)">
<path d="M15.3691 2.64846C13.6725 0.951926 11.4169 0.0175781 9.01754 0.0175781C9.01364 0.0175781 9.00977 0.0176133 9.00594 0.0176836C8.9981 0.0176133 8.9903 0.0175781 8.98246 0.0175781C6.58315 0.0175781 4.32749 0.951926 2.63088 2.64846C0.934348 4.34507 0 6.60073 0 9.00004C0 11.3993 0.934348 13.655 2.63088 15.3516C4.32749 17.0481 6.58315 17.9825 8.98246 17.9825C8.9903 17.9825 8.9981 17.9825 9.00594 17.9824C9.00981 17.9825 9.01371 17.9825 9.01754 17.9825C10.5507 17.9825 12.0644 17.5893 13.3951 16.8453C13.7334 16.6562 13.8543 16.2287 13.6652 15.8903C13.4761 15.552 13.0485 15.4312 12.7102 15.6203C12.5155 15.7291 12.3161 15.829 12.1128 15.9199C12.2618 15.6879 12.4037 15.4374 12.5378 15.1692C13.2833 13.6781 13.7279 11.758 13.8105 9.70179H16.5642C16.4546 10.8906 16.0672 12.0348 15.4275 13.0459C15.2203 13.3734 15.3178 13.8069 15.6453 14.0141C15.7618 14.0878 15.8916 14.123 16.0199 14.123C16.2525 14.123 16.48 14.0074 16.6136 13.7963C17.5206 12.3626 18 10.704 18 9.00004C18 6.60073 17.0657 4.34507 15.3691 2.64846ZM8.2807 4.11233C7.65151 4.09345 7.03459 4.04944 6.44323 3.98243C6.51857 3.80162 6.59834 3.62682 6.6825 3.45857C7.1441 2.53522 7.70284 1.89274 8.2807 1.60003V4.11233ZM9.68421 1.60003C10.2621 1.89274 10.8208 2.53526 11.2824 3.45857C11.3666 3.62689 11.4464 3.80176 11.5218 3.98268C10.9306 4.04958 10.3138 4.09356 9.68421 4.1124V1.60003ZM12.5378 2.83089C12.4042 2.56377 12.2629 2.3143 12.1147 2.08311C12.8842 2.42905 13.5861 2.89979 14.1942 3.46936C13.8077 3.58225 13.3891 3.68198 12.9457 3.76741C12.822 3.43983 12.6858 3.12687 12.5378 2.83089ZM5.42714 2.83089C5.27917 3.12687 5.14308 3.43969 5.01929 3.76713C4.58617 3.68371 4.17663 3.58657 3.79761 3.47699C4.39464 2.91618 5.08229 2.45085 5.83594 2.10551C5.69289 2.3304 5.55638 2.57235 5.42714 2.83089ZM4.59918 5.11675C4.35076 6.1059 4.1992 7.18204 4.15438 8.29828H1.43571C1.5609 6.94079 2.04564 5.68586 2.79355 4.62987C3.33707 4.8208 3.94425 4.984 4.59918 5.11675ZM4.15438 9.70179C4.19875 10.8059 4.34746 11.8708 4.59113 12.8511C3.93107 12.9851 3.31942 13.1497 2.77383 13.3423C2.03713 12.2921 1.55978 11.0473 1.43568 9.70179H4.15438ZM5.00597 14.1976C5.13327 14.5379 5.27382 14.8626 5.42714 15.1692C5.55641 15.4277 5.69289 15.6697 5.8359 15.8946C5.06985 15.5436 4.37196 15.0685 3.76815 14.4953C4.15259 14.3823 4.56722 14.2828 5.00597 14.1976ZM6.42839 13.9819C7.02243 13.9147 7.64364 13.8709 8.2807 13.8523V16.4C7.70284 16.1073 7.1441 15.4648 6.68246 14.5415C6.59282 14.3622 6.50805 14.1754 6.42839 13.9819ZM9.68421 13.8522C10.3185 13.8706 10.9376 13.9141 11.5363 13.9823C11.4567 14.1757 11.372 14.3623 11.2824 14.5415C10.8208 15.4648 10.2621 16.1073 9.68421 16.4V13.8522ZM8.2807 12.4484C7.48811 12.4706 6.71491 12.53 5.98011 12.6237C5.74724 11.7241 5.60377 10.7351 5.55898 9.70175H8.2807V12.4484ZM5.55898 8.29828C5.60426 7.25238 5.75068 6.25187 5.98862 5.34343C6.71938 5.43611 7.48916 5.49482 8.28067 5.51668V8.29825H5.55898V8.29828ZM9.68421 5.51672C10.4762 5.49489 11.2458 5.43625 11.9763 5.34368C12.2142 6.25205 12.3607 7.25249 12.4059 8.29832H9.68421V5.51672ZM13.3658 5.11699C14.032 4.98196 14.6487 4.81535 15.1995 4.62002C15.9513 5.67809 16.4386 6.93657 16.5643 8.29832H13.8105C13.7657 7.18211 13.6142 6.10608 13.3658 5.11699ZM11.985 12.6229C11.2446 12.5283 10.4747 12.4699 9.68421 12.4482V9.70182H12.4059C12.3611 10.7348 12.2178 11.7235 11.985 12.6229Z" fill="#B76E79"/>
</g>
<defs>
<clipPath id="clip0_287_10">
<rect width="18" height="18" fill="white"/>
</clipPath>
</defs>
</svg>
