<svg width="20" height="20" viewBox="0 0 20 20" fill="none" xmlns="http://www.w3.org/2000/svg">
<g opacity="0.7" clip-path="url(#clip0_28_85)">
<path d="M20 10C20 11.9739 19.4141 13.8936 18.3057 15.5515C18.0659 15.9102 17.5807 16.0065 17.222 15.7668C16.8633 15.5269 16.767 15.0417 17.0067 14.6831C17.9428 13.2829 18.4375 11.6637 18.4375 10C18.4375 5.3476 14.6524 1.5625 10 1.5625C5.3476 1.5625 1.5625 5.3476 1.5625 10C1.5625 14.6524 5.3476 18.4375 10 18.4375C11.5431 18.4375 13.0525 18.0173 14.3648 17.2224C14.7337 16.9989 15.2142 17.1169 15.4378 17.486C15.6613 17.8549 15.5434 18.3353 15.1743 18.5588C13.6179 19.5016 11.8286 20 10 20C7.32895 20 4.81766 18.9598 2.92892 17.0711C1.04019 15.1823 0 12.6711 0 10C0 7.32895 1.04019 4.81766 2.92892 2.92892C4.81766 1.04019 7.32895 0 10 0C12.6711 0 15.1823 1.04019 17.0711 2.92892C18.9598 4.81766 20 7.32895 20 10ZM10.0003 14.8438C9.56879 14.8438 9.21906 15.1935 9.21906 15.625C9.21906 16.0565 9.56879 16.4062 10.0003 16.4062C10.4317 16.4062 10.7816 16.0565 10.7816 15.625C10.7816 15.1935 10.4317 14.8438 10.0003 14.8438ZM11.6405 11.5414C13.1837 10.8826 14.1808 9.37271 14.1803 7.6947C14.1803 7.68158 14.18 7.66846 14.1794 7.65533C14.158 5.36911 12.2914 3.51562 10.0003 3.51562C7.69577 3.51562 5.82092 5.39047 5.82092 7.69485C5.82092 8.12637 6.17065 8.4761 6.60217 8.4761C7.03369 8.4761 7.38342 8.12637 7.38342 7.69485C7.38342 6.25198 8.55728 5.07812 10.0003 5.07812C11.4432 5.07812 12.617 6.25198 12.617 7.69485C12.617 7.70554 12.6172 7.71591 12.6176 7.72644C12.6056 8.7648 11.9839 9.69589 11.0269 10.1045C9.94553 10.5661 9.21906 11.6858 9.21906 12.8906C9.21906 13.3221 9.56879 13.6719 10.0003 13.6719C10.4317 13.6719 10.7816 13.3221 10.7816 12.8906C10.7816 12.303 11.1267 11.7609 11.6405 11.5414Z" fill="#2C2C2C"/>
</g>
<defs>
<clipPath id="clip0_28_85">
<rect width="20" height="20" fill="white"/>
</clipPath>
</defs>
</svg>
