<svg width="20" height="20" viewBox="0 0 20 20" fill="none" xmlns="http://www.w3.org/2000/svg">
<g clip-path="url(#clip0_28_234)">
<path d="M14.7244 1.11359H14.6893C12.1101 1.11359 10.6681 3.00109 9.99988 4.27894C9.31988 3.00105 7.88965 1.11359 5.31047 1.11359H5.26363C2.47336 1.13706 0.147888 3.51691 0.00722436 6.52988C-0.168674 10.2228 2.7782 12.7082 7.18621 16.4597C7.94828 17.1162 8.75722 17.808 9.61301 18.5466L9.99992 18.8865L10.3868 18.5466C11.2309 17.808 12.0516 17.1162 12.8136 16.4597C17.2216 12.7082 20.1682 10.2228 19.9923 6.52988C19.8516 3.51687 17.5146 1.13702 14.7244 1.11359Z" fill="#B76E79"/>
<path d="M19.9927 6.52988C20.1686 10.2228 17.222 12.7082 12.814 16.4597C12.0519 17.1162 11.2312 17.808 10.3872 18.5466L10.0002 18.8865V4.27894C10.6685 3.00105 12.1105 1.11359 14.6897 1.11359H14.7248C17.5151 1.13702 19.852 3.51687 19.9927 6.52988Z" fill="#B76E79"/>
</g>
<defs>
<clipPath id="clip0_28_234">
<rect width="20" height="20" fill="white"/>
</clipPath>
</defs>
</svg>
