<svg width="20" height="14" viewBox="0 0 20 14" fill="none" xmlns="http://www.w3.org/2000/svg">
<path d="M19.2188 6.92188C19.6502 6.92188 20 6.57211 20 6.14062V3.95598C20 3.06148 19.5028 2.25781 18.7023 1.85859C17.9019 1.45937 16.9607 1.54566 16.2462 2.08383L16.2258 2.09918L13.8281 4.16359V3.21094C13.8281 1.48781 12.4263 0.0859375 10.7031 0.0859375H3.125C1.40188 0.0859375 0 1.48781 0 3.21094V10.7891C0 12.5122 1.40188 13.9141 3.125 13.9141H10.7031C12.4263 13.9141 13.8281 12.5122 13.8281 10.7891V9.87547L16.2065 11.9232L16.2463 11.9552C16.6627 12.2689 17.1561 12.4291 17.6538 12.4291C18.01 12.4291 18.3684 12.347 18.7023 12.1805C19.5028 11.7812 20 10.9776 20 10.0831C20 9.6516 19.6502 9.30184 19.2188 9.30184C18.7873 9.30184 18.4375 9.6516 18.4375 10.0831C18.4375 10.3858 18.2758 10.6471 18.005 10.7822C17.7404 10.9141 17.4424 10.8904 17.2035 10.7197L13.8281 7.81359V6.22547L17.2035 3.3193C17.4425 3.14863 17.7404 3.12492 18.005 3.25684C18.2758 3.39191 18.4375 3.65328 18.4375 3.95598V6.14062C18.4375 6.57211 18.7873 6.92188 19.2188 6.92188ZM10.7031 12.3516H3.125C2.26344 12.3516 1.5625 11.6506 1.5625 10.7891V3.21094C1.5625 2.34938 2.26344 1.64844 3.125 1.64844H10.7031C11.5647 1.64844 12.2656 2.34938 12.2656 3.21094C12.2656 3.20945 12.2656 3.21242 12.2656 3.21094V10.7891C12.2656 10.7876 12.2656 10.7905 12.2656 10.7891C12.2656 11.6506 11.5647 12.3516 10.7031 12.3516Z" fill="#B76E79"/>
</svg>
