<svg width="148" height="25" viewBox="0 0 148 25" fill="none" xmlns="http://www.w3.org/2000/svg">
<g clip-path="url(#clip0_747_35)">
<path d="M41.4441 7.04723V9.90156H43.3535V12.5197H41.4441V16.1811C41.4441 16.8635 41.8051 17.2047 42.5268 17.2047C42.763 17.2047 43.0256 17.1719 43.3142 17.1063V19.5866C42.9468 19.7703 42.4283 19.8622 41.759 19.8622C40.7486 19.8622 39.948 19.58 39.3575 19.0157C38.7801 18.4514 38.4913 17.6837 38.4913 16.7126V12.5197H36.759V9.90156H37.2512C37.75 9.90156 38.124 9.75721 38.3732 9.46849C38.6358 9.16666 38.7669 8.77952 38.7669 8.30708V7.04723H41.4441ZM51.5791 9.90156V12.8543C51.3035 12.7887 50.9886 12.7559 50.6342 12.7559C49.9649 12.7559 49.4138 12.9724 48.9807 13.4055C48.5608 13.8386 48.3508 14.5079 48.3508 15.4134V19.685H45.3586V9.90156H48.2523V11.2205C48.4886 10.7218 48.8496 10.3609 49.335 10.1378C49.8206 9.91469 50.3063 9.80314 50.7917 9.80314C51.0937 9.80314 51.3561 9.83595 51.5791 9.90156ZM52.8805 16.9882C52.8805 16.1614 53.1496 15.4987 53.6876 15C54.2256 14.4882 54.9212 14.1667 55.7742 14.0354L58.0773 13.6811C58.5498 13.6155 58.786 13.3924 58.786 13.0118C58.786 12.71 58.6547 12.4606 58.3923 12.2638C58.1429 12.0538 57.7953 11.9488 57.349 11.9488C56.8504 11.9488 56.45 12.0932 56.1482 12.3819C55.8594 12.6575 55.702 12.9921 55.6758 13.3858L53.0773 12.8543C53.1429 12.0407 53.5433 11.2992 54.2781 10.6299C55.0262 9.94749 56.0563 9.60629 57.3687 9.60629C58.8516 9.60629 59.9409 9.96062 60.6364 10.6693C61.3451 11.3779 61.6994 12.2835 61.6994 13.3858V18.1693C61.6994 18.7861 61.7388 19.2913 61.8175 19.685H59.1207C59.0551 19.4226 59.0222 19.0551 59.0222 18.5827C58.4579 19.5013 57.5394 19.9606 56.2663 19.9606C55.2295 19.9606 54.4027 19.6719 53.786 19.0945C53.1823 18.5039 52.8805 17.8018 52.8805 16.9882ZM56.9947 17.7953C57.5065 17.7953 57.9331 17.6443 58.2742 17.3425C58.6153 17.0407 58.786 16.542 58.786 15.8464V15.4134L56.9356 15.7086C56.2008 15.8268 55.8332 16.1876 55.8332 16.7913C55.8332 17.0669 55.9252 17.3031 56.1088 17.5C56.3057 17.6968 56.601 17.7953 56.9947 17.7953ZM73.574 9.90156L69.8535 19.685H66.8417L62.826 9.90156H66.074L68.3378 15.9842L70.4244 9.90156H73.574ZM84.7429 9.90156L81.0224 19.685H78.0106L73.9949 9.90156H77.2429L79.5067 15.9842L81.5933 9.90156H84.7429ZM88.2421 13.622H92.1594C92.1333 13.1758 91.9561 12.7887 91.6279 12.4606C91.313 12.1325 90.834 11.9685 90.1909 11.9685C89.6136 11.9685 89.1541 12.1391 88.813 12.4803C88.4718 12.8215 88.2815 13.2021 88.2421 13.622ZM92.376 16.1614L94.876 16.8701C94.6266 17.7756 94.1083 18.5236 93.3209 19.1142C92.5334 19.6915 91.5492 19.9803 90.3681 19.9803C88.9508 19.9803 87.7435 19.5079 86.746 18.563C85.7618 17.6181 85.2697 16.3517 85.2697 14.7638C85.2697 13.2415 85.7486 12.0013 86.7067 11.0433C87.6777 10.0853 88.8262 9.60629 90.1516 9.60629C91.6738 9.60629 92.8681 10.0525 93.7342 10.9449C94.6136 11.8241 95.0531 13.0512 95.0531 14.626C95.0531 15.1247 95.0334 15.4331 94.9941 15.5512H88.1831C88.2092 16.0892 88.439 16.542 88.872 16.9094C89.3051 17.2638 89.8169 17.4409 90.4075 17.4409C91.4179 17.4409 92.0742 17.0144 92.376 16.1614ZM99.9663 19.685H96.9742V5.43306H99.9663V19.685ZM105.501 19.685H102.607V5.43306H105.54V10.8268C105.763 10.4987 106.13 10.2231 106.642 9.99999C107.154 9.7769 107.731 9.66534 108.375 9.66534C109.766 9.66534 110.868 10.1443 111.682 11.1024C112.508 12.0472 112.922 13.2677 112.922 14.7638C112.922 16.2598 112.482 17.4934 111.603 18.4646C110.737 19.4226 109.621 19.9016 108.256 19.9016C107.627 19.9016 107.069 19.7835 106.583 19.5472C106.098 19.2979 105.737 18.9764 105.501 18.5827V19.685ZM109.93 14.7835C109.93 13.996 109.72 13.3989 109.3 12.9921C108.88 12.5722 108.355 12.3622 107.725 12.3622C107.095 12.3622 106.564 12.5722 106.13 12.9921C105.71 13.3989 105.501 13.996 105.501 14.7835C105.501 15.5577 105.717 16.1614 106.15 16.5945C106.583 17.0144 107.108 17.2244 107.725 17.2244C108.342 17.2244 108.86 17.0144 109.28 16.5945C109.713 16.1614 109.93 15.5577 109.93 14.7835ZM114.262 16.9882C114.262 16.1614 114.531 15.4987 115.069 15C115.607 14.4882 116.302 14.1667 117.156 14.0354L119.459 13.6811C119.931 13.6155 120.167 13.3924 120.167 13.0118C120.167 12.71 120.036 12.4606 119.774 12.2638C119.524 12.0538 119.176 11.9488 118.73 11.9488C118.231 11.9488 117.831 12.0932 117.53 12.3819C117.241 12.6575 117.083 12.9921 117.057 13.3858L114.459 12.8543C114.524 12.0407 114.924 11.2992 115.659 10.6299C116.407 9.94749 117.438 9.60629 118.75 9.60629C120.233 9.60629 121.322 9.96062 122.018 10.6693C122.726 11.3779 123.081 12.2835 123.081 13.3858V18.1693C123.081 18.7861 123.12 19.2913 123.199 19.685H120.502C120.436 19.4226 120.404 19.0551 120.404 18.5827C119.839 19.5013 118.92 19.9606 117.648 19.9606C116.611 19.9606 115.784 19.6719 115.167 19.0945C114.564 18.5039 114.262 17.8018 114.262 16.9882ZM118.376 17.7953C118.888 17.7953 119.314 17.6443 119.655 17.3425C119.997 17.0407 120.167 16.542 120.167 15.8464V15.4134L118.317 15.7086C117.582 15.8268 117.215 16.1876 117.215 16.7913C117.215 17.0669 117.306 17.3031 117.49 17.5C117.687 17.6968 117.982 17.7953 118.376 17.7953ZM128.492 19.685H125.598V5.43306H128.531V10.8268C128.755 10.4987 129.122 10.2231 129.634 9.99999C130.145 9.7769 130.723 9.66534 131.366 9.66534C132.757 9.66534 133.859 10.1443 134.673 11.1024C135.5 12.0472 135.913 13.2677 135.913 14.7638C135.913 16.2598 135.474 17.4934 134.594 18.4646C133.728 19.4226 132.613 19.9016 131.248 19.9016C130.618 19.9016 130.06 19.7835 129.575 19.5472C129.089 19.2979 128.728 18.9764 128.492 18.5827V19.685ZM132.921 14.7835C132.921 13.996 132.711 13.3989 132.291 12.9921C131.871 12.5722 131.346 12.3622 130.716 12.3622C130.086 12.3622 129.555 12.5722 129.122 12.9921C128.702 13.3989 128.492 13.996 128.492 14.7835C128.492 15.5577 128.708 16.1614 129.142 16.5945C129.575 17.0144 130.1 17.2244 130.716 17.2244C131.333 17.2244 131.852 17.0144 132.271 16.5945C132.705 16.1614 132.921 15.5577 132.921 14.7835ZM141.182 23.4449H138.033L140.257 18.3661L136.143 9.90156H139.49L141.871 15.1378L144.037 9.90156H147.206L141.182 23.4449Z" fill="#B76E79"/>
<path d="M41.444 7.04724H41.8377V6.65354H41.444V7.04724ZM41.444 9.90157H41.0503V10.2953H41.444V9.90157ZM43.3534 9.90157H43.7471V9.50787H43.3534V9.90157ZM43.3534 12.5197V12.9134H43.7471V12.5197H43.3534ZM41.444 12.5197V12.126H41.0503V12.5197H41.444ZM43.3141 17.1063H43.7078V16.6131L43.2268 16.7224L43.3141 17.1063ZM43.3141 19.5866L43.4902 19.9388L43.7078 19.8299V19.5866H43.3141ZM39.3574 19.0157L39.0822 19.2973L39.0837 19.2989L39.0855 19.3004L39.3574 19.0157ZM38.4912 12.5197H38.8849V12.126H38.4912V12.5197ZM36.7589 12.5197H36.3652V12.9134H36.7589V12.5197ZM36.7589 9.90157V9.50787H36.3652V9.90157H36.7589ZM38.3731 9.4685L38.0761 9.21016L38.0753 9.21118L38.3731 9.4685ZM38.7668 7.04724V6.65354H38.3731V7.04724H38.7668ZM41.0503 7.04724V9.90157H41.8377V7.04724H41.0503ZM41.444 10.2953H43.3534V9.50787H41.444V10.2953ZM42.9597 9.90157V12.5197H43.7471V9.90157H42.9597ZM43.3534 12.126H41.444V12.9134H43.3534V12.126ZM41.0503 12.5197V16.1811H41.8377V12.5197H41.0503ZM41.0503 16.1811C41.0503 16.5888 41.1591 16.9654 41.4442 17.2349C41.7251 17.5005 42.1105 17.5984 42.5267 17.5984V16.811C42.2211 16.811 42.0652 16.7384 41.9851 16.6627C41.9093 16.591 41.8377 16.4558 41.8377 16.1811H41.0503ZM42.5267 17.5984C42.7985 17.5984 43.0908 17.5608 43.4015 17.4902L43.2268 16.7224C42.9599 16.783 42.7272 16.811 42.5267 16.811V17.5984ZM42.9204 17.1063V19.5866H43.7078V17.1063H42.9204ZM43.1381 19.2345C42.8493 19.3789 42.4013 19.4685 41.7589 19.4685V20.2559C42.4554 20.2559 43.0442 20.1618 43.4902 19.9388L43.1381 19.2345ZM41.7589 19.4685C40.8245 19.4685 40.1302 19.2097 39.6294 18.7311L39.0855 19.3004C39.7656 19.9504 40.6725 20.2559 41.7589 20.2559V19.4685ZM39.6326 18.7342C39.1459 18.2587 38.8849 17.6008 38.8849 16.7126H38.0975C38.0975 17.7666 38.4141 18.6442 39.0822 19.2973L39.6326 18.7342ZM38.8849 16.7126V12.5197H38.0975V16.7126H38.8849ZM38.4912 12.126H36.7589V12.9134H38.4912V12.126ZM37.1526 12.5197V9.90157H36.3652V12.5197H37.1526ZM36.7589 10.2953H37.2511V9.50787H36.7589V10.2953ZM37.2511 10.2953C37.8268 10.2953 38.3255 10.1259 38.6711 9.72582L38.0753 9.21118C37.9221 9.38848 37.6729 9.50787 37.2511 9.50787V10.2953ZM38.6702 9.72685C39.006 9.34077 39.1605 8.85636 39.1605 8.30708H38.3731C38.3731 8.70269 38.2652 8.99256 38.0761 9.21016L38.6702 9.72685ZM39.1605 8.30708V7.04724H38.3731V8.30708H39.1605ZM38.7668 7.44094H41.444V6.65354H38.7668V7.44094ZM51.579 9.90157H51.9727V9.60699L51.6902 9.52388L51.579 9.90157ZM51.579 12.8543L51.4879 13.2373L51.9727 13.3528V12.8543H51.579ZM48.9806 13.4055L48.7022 13.1271L48.7001 13.1293L48.6979 13.1314L48.9806 13.4055ZM48.3507 19.685V20.0787H48.7444V19.685H48.3507ZM45.3585 19.685H44.9648V20.0787H45.3585V19.685ZM45.3585 9.90157V9.50787H44.9648V9.90157H45.3585ZM48.2522 9.90157H48.6459V9.50787H48.2522V9.90157ZM48.2522 11.2205H47.8585L48.6081 11.389L48.2522 11.2205ZM49.3349 10.1378L49.4993 10.4955L49.3349 10.1378ZM51.1853 9.90157V12.8543H51.9727V9.90157H51.1853ZM51.6701 12.4713C51.3583 12.3971 51.0119 12.3622 50.6341 12.3622V13.1496C50.965 13.1496 51.2485 13.1803 51.4879 13.2373L51.6701 12.4713ZM50.6341 12.3622C49.8711 12.3622 49.2164 12.613 48.7022 13.1271L49.2589 13.6839C49.6111 13.3319 50.0585 13.1496 50.6341 13.1496V12.3622ZM48.6979 13.1314C48.178 13.6676 47.957 14.456 47.957 15.4134H48.7444C48.7444 14.5598 48.9432 14.0096 49.2633 13.6796L48.6979 13.1314ZM47.957 15.4134V19.685H48.7444V15.4134H47.957ZM48.3507 19.2913H45.3585V20.0787H48.3507V19.2913ZM45.7522 19.685V9.90157H44.9648V19.685H45.7522ZM45.3585 10.2953H48.2522V9.50787H45.3585V10.2953ZM47.8585 9.90157V11.2205H48.6459V9.90157H47.8585ZM48.6081 11.389C48.8062 10.9709 49.1009 10.6787 49.4993 10.4955L49.1705 9.78004C48.5981 10.0431 48.1709 10.4726 47.8965 11.0519L48.6081 11.389ZM49.4993 10.4955C49.9387 10.2937 50.3684 10.1968 50.7916 10.1968V9.40945C50.2438 9.40945 49.7024 9.53567 49.1705 9.78004L49.4993 10.4955ZM50.7916 10.1968C51.0664 10.1968 51.2898 10.2269 51.468 10.2793L51.6902 9.52388C51.4221 9.44504 51.1205 9.40945 50.7916 9.40945V10.1968ZM53.6875 15L53.9552 15.2888L53.957 15.287L53.9589 15.2853L53.6875 15ZM55.7741 14.0354L55.8339 14.4245L55.7741 14.0354ZM58.0772 13.6811L58.0231 13.2911L58.0203 13.2915L58.0174 13.292L58.0772 13.6811ZM58.3922 12.2638L58.1387 12.5649L58.1471 12.5721L58.156 12.5787L58.3922 12.2638ZM56.1481 12.3819L56.42 12.6667L56.4203 12.6664L56.1481 12.3819ZM55.6757 13.3858L55.5967 13.7715L56.0385 13.8619L56.0686 13.412L55.6757 13.3858ZM53.0772 12.8543L52.6849 12.8227L52.6568 13.1702L52.9983 13.24L53.0772 12.8543ZM54.278 10.6299L54.5432 10.921L54.5434 10.9208L54.278 10.6299ZM60.6363 10.6693L60.3554 10.9451L60.3566 10.9464L60.3579 10.9477L60.6363 10.6693ZM61.8174 19.685V20.0787H62.2977L62.2034 19.6078L61.8174 19.685ZM59.1205 19.685L58.7387 19.7805L58.8133 20.0787H59.1205V19.685ZM59.0221 18.5827H59.4158V17.1896L58.6867 18.3766L59.0221 18.5827ZM53.7859 19.0945L53.5107 19.3759L53.5137 19.3789L53.5168 19.3819L53.7859 19.0945ZM58.2741 17.3425L58.0133 17.0476L58.2741 17.3425ZM58.7859 15.4134H59.1796V14.9519L58.7239 15.0246L58.7859 15.4134ZM56.9355 15.7087L56.8735 15.3199L56.8731 15.3199L56.9355 15.7087ZM56.1087 17.5L55.8209 17.7686L55.8257 17.7736L55.8304 17.7784L56.1087 17.5ZM53.2741 16.9882C53.2741 16.2556 53.5081 15.7031 53.9552 15.2888L53.42 14.7112C52.7908 15.2943 52.4867 16.0672 52.4867 16.9882H53.2741ZM53.9589 15.2853C54.4296 14.8374 55.0471 14.5456 55.8339 14.4245L55.7142 13.6463C54.7951 13.7877 54.0215 14.139 53.4162 14.7147L53.9589 15.2853ZM55.8339 14.4245L58.1371 14.0702L58.0174 13.292L55.7142 13.6463L55.8339 14.4245ZM58.1314 14.0711C58.4127 14.032 58.6796 13.9393 58.879 13.7508C59.0894 13.552 59.1796 13.2902 59.1796 13.0118H58.3922C58.3922 13.114 58.3642 13.154 58.3385 13.1783C58.3018 13.213 58.2144 13.2646 58.0231 13.2911L58.1314 14.0711ZM59.1796 13.0118C59.1796 12.5741 58.98 12.2125 58.6284 11.9488L58.156 12.5787C58.3294 12.7087 58.3922 12.8459 58.3922 13.0118H59.1796ZM58.6457 11.9626C58.3032 11.6741 57.8538 11.5551 57.3489 11.5551V12.3425C57.7365 12.3425 57.9826 12.4336 58.1387 12.5649L58.6457 11.9626ZM57.3489 11.5551C56.7698 11.5551 56.265 11.7253 55.8761 12.0974L56.4203 12.6664C56.6349 12.461 56.9308 12.3425 57.3489 12.3425V11.5551ZM55.8763 12.0971C55.5172 12.4398 55.3158 12.8664 55.2829 13.3596L56.0686 13.412C56.0881 13.1179 56.2016 12.8751 56.42 12.6667L55.8763 12.0971ZM55.7546 13.0001L53.1562 12.4686L52.9983 13.24L55.5967 13.7715L55.7546 13.0001ZM53.4698 12.886C53.5257 12.1925 53.865 11.5385 54.5432 10.921L54.0129 10.3388C53.2211 11.0599 52.7601 11.8888 52.6849 12.8227L53.4698 12.886ZM54.5434 10.9208C55.1995 10.3222 56.1245 10 57.3686 10V9.2126C55.9881 9.2126 54.8526 9.57277 54.0127 10.3391L54.5434 10.9208ZM57.3686 10C58.7977 10 59.7637 10.3421 60.3554 10.9451L60.9174 10.3935C60.118 9.57911 58.9054 9.2126 57.3686 9.2126V10ZM60.3579 10.9477C60.9851 11.5748 61.3056 12.3764 61.3056 13.3858H62.093C62.093 12.1905 61.705 11.1811 60.9146 10.3909L60.3579 10.9477ZM61.3056 13.3858V18.1693H62.093V13.3858H61.3056ZM61.3056 18.1693C61.3056 18.7998 61.3455 19.3334 61.4314 19.7622L62.2034 19.6078C62.1318 19.2492 62.093 18.7724 62.093 18.1693H61.3056ZM61.8174 19.2913H59.1205V20.0787H61.8174V19.2913ZM59.5024 19.5895C59.4485 19.3731 59.4158 19.043 59.4158 18.5827H58.6284C58.6284 19.0672 58.6615 19.472 58.7387 19.7805L59.5024 19.5895ZM58.6867 18.3766C58.2079 19.1559 57.4314 19.5669 56.2662 19.5669V20.3543C57.6471 20.3543 58.7077 19.8467 59.3575 18.7887L58.6867 18.3766ZM56.2662 19.5669C55.3056 19.5669 54.5831 19.3015 54.055 18.8071L53.5168 19.3819C54.2223 20.0423 55.1534 20.3543 56.2662 20.3543V19.5669ZM54.0613 18.813C53.53 18.2934 53.2741 17.6915 53.2741 16.9882H52.4867C52.4867 17.9122 52.8345 18.7144 53.5107 19.3759L54.0613 18.813ZM56.9946 18.189C57.5898 18.189 58.1129 18.0109 58.5349 17.6374L58.0133 17.0476C57.753 17.2779 57.4231 17.4016 56.9946 17.4016V18.189ZM58.5349 17.6374C58.9967 17.2289 59.1796 16.5953 59.1796 15.8465H58.3922C58.3922 16.4886 58.2339 16.8525 58.0133 17.0476L58.5349 17.6374ZM59.1796 15.8465V15.4134H58.3922V15.8465H59.1796ZM58.7239 15.0246L56.8735 15.3199L56.9975 16.0974L58.8479 15.8022L58.7239 15.0246ZM56.8731 15.3199C56.4593 15.3864 56.0955 15.5291 55.8329 15.787C55.5609 16.0542 55.4394 16.4035 55.4394 16.7913H56.2268C56.2268 16.5755 56.2892 16.4425 56.3847 16.3488C56.4894 16.2459 56.6768 16.149 56.9981 16.0974L56.8731 15.3199ZM55.4394 16.7913C55.4394 17.1641 55.5674 17.497 55.8209 17.7686L56.3965 17.2314C56.2826 17.1093 56.2268 16.9698 56.2268 16.7913H55.4394ZM55.8304 17.7784C56.127 18.0751 56.5402 18.189 56.9946 18.189V17.4016C56.6615 17.4016 56.4841 17.3186 56.3871 17.2216L55.8304 17.7784ZM73.5739 9.90157L73.9418 10.0415L74.1448 9.50787H73.5739V9.90157ZM69.8534 19.685V20.0787H70.1249L70.2213 19.825L69.8534 19.685ZM66.8416 19.685L66.4774 19.8344L66.5776 20.0787H66.8416V19.685ZM62.8259 9.90157V9.50787H62.2387L62.4617 10.0511L62.8259 9.90157ZM66.0739 9.90157L66.4428 9.76425L66.3473 9.50787H66.0739V9.90157ZM68.3377 15.9843L67.9686 16.1216L68.3528 17.1536L68.7101 16.112L68.3377 15.9843ZM70.4243 9.90157V9.50787H70.143L70.0518 9.77382L70.4243 9.90157ZM73.2058 9.76163L69.4853 19.5451L70.2213 19.825L73.9418 10.0415L73.2058 9.76163ZM69.8534 19.2913H66.8416V20.0787H69.8534V19.2913ZM67.2058 19.5356L63.19 9.75208L62.4617 10.0511L66.4774 19.8344L67.2058 19.5356ZM62.8259 10.2953H66.0739V9.50787H62.8259V10.2953ZM65.7048 10.0389L67.9686 16.1216L68.7066 15.8469L66.4428 9.76425L65.7048 10.0389ZM68.7101 16.112L70.7967 10.0293L70.0518 9.77382L67.9652 15.8565L68.7101 16.112ZM70.4243 10.2953H73.5739V9.50787H70.4243V10.2953ZM84.7428 9.90157L85.1107 10.0415L85.3136 9.50787H84.7428V9.90157ZM81.0223 19.685V20.0787H81.2938L81.3902 19.825L81.0223 19.685ZM78.0105 19.685L77.6463 19.8344L77.7465 20.0787H78.0105V19.685ZM73.9948 9.90157V9.50787H73.4075L73.6306 10.0511L73.9948 9.90157ZM77.2428 9.90157L77.6117 9.76425L77.5164 9.50787H77.2428V9.90157ZM79.5066 15.9843L79.1377 16.1216L79.5217 17.1536L79.879 16.112L79.5066 15.9843ZM81.5932 9.90157V9.50787H81.3121L81.2207 9.77382L81.5932 9.90157ZM84.3749 9.76163L80.6544 19.5451L81.3902 19.825L85.1107 10.0415L84.3749 9.76163ZM81.0223 19.2913H78.0105V20.0787H81.0223V19.2913ZM78.3747 19.5356L74.3589 9.75208L73.6306 10.0511L77.6463 19.8344L78.3747 19.5356ZM73.9948 10.2953H77.2428V9.50787H73.9948V10.2953ZM76.8739 10.0389L79.1377 16.1216L79.8755 15.8469L77.6117 9.76425L76.8739 10.0389ZM79.879 16.112L81.9656 10.0293L81.2207 9.77382L79.1341 15.8565L79.879 16.112ZM81.5932 10.2953H84.7428V9.50787H81.5932V10.2953ZM88.242 13.622L87.8501 13.5853L87.8097 14.0157H88.242V13.622ZM92.1593 13.622V14.0157H92.5768L92.5522 13.5989L92.1593 13.622ZM91.6278 12.4606L91.3438 12.7333L91.3465 12.7362L91.3495 12.739L91.6278 12.4606ZM88.8129 12.4803L88.5345 12.2019L88.8129 12.4803ZM92.3758 16.1614L92.4831 15.7826L92.1278 15.6819L92.0046 16.0301L92.3758 16.1614ZM94.8758 16.8701L95.2554 16.9746L95.3591 16.5979L94.9831 16.4913L94.8758 16.8701ZM93.3207 19.1142L93.5536 19.4317L93.5552 19.4304L93.5569 19.4291L93.3207 19.1142ZM86.7459 18.563L86.4733 18.847L86.4751 18.8488L86.7459 18.563ZM86.7066 11.0433L86.43 10.763L86.4282 10.7649L86.7066 11.0433ZM93.7341 10.9449L93.4516 11.2191L93.4536 11.2212L93.4558 11.2233L93.7341 10.9449ZM94.994 15.5512V15.9449H95.2776L95.3674 15.6757L94.994 15.5512ZM88.1829 15.5512V15.1575H87.7696L87.7896 15.5704L88.1829 15.5512ZM88.8719 16.9094L88.6172 17.2096L88.6199 17.2119L88.6225 17.2142L88.8719 16.9094ZM88.242 14.0157H92.1593V13.2283H88.242V14.0157ZM92.5522 13.5989C92.5201 13.0525 92.2997 12.5757 91.9062 12.1822L91.3495 12.739C91.6121 13.0018 91.7459 13.2992 91.7662 13.6452L92.5522 13.5989ZM91.9119 12.188C91.4963 11.7551 90.8959 11.5748 90.1908 11.5748V12.3622C90.7717 12.3622 91.1294 12.51 91.3438 12.7333L91.9119 12.188ZM90.1908 11.5748C89.531 11.5748 88.9636 11.7727 88.5345 12.2019L89.0912 12.7587C89.3444 12.5055 89.6957 12.3622 90.1908 12.3622V11.5748ZM88.5345 12.2019C88.1383 12.5981 87.8991 13.061 87.8501 13.5853L88.6339 13.6588C88.6634 13.3432 88.805 13.0449 89.0912 12.7587L88.5345 12.2019ZM92.2684 16.5402L94.7684 17.2489L94.9831 16.4913L92.4831 15.7826L92.2684 16.5402ZM94.4963 16.7655C94.2713 17.5828 93.8058 18.2583 93.0845 18.7992L93.5569 19.4291C94.4105 18.7889 94.9818 17.9684 95.2554 16.9746L94.4963 16.7655ZM93.0879 18.7967C92.3812 19.3149 91.4833 19.5866 90.368 19.5866V20.374C91.6148 20.374 92.6855 20.0683 93.5536 19.4317L93.0879 18.7967ZM90.368 19.5866C89.0479 19.5866 87.9384 19.1504 87.0166 18.2772L86.4751 18.8488C87.5481 19.8654 88.8534 20.374 90.368 20.374V19.5866ZM87.0186 18.279C86.1245 17.4206 85.6633 16.2636 85.6633 14.7638H84.8759C84.8759 16.4398 85.3989 17.8156 86.4733 18.847L87.0186 18.279ZM85.6633 14.7638C85.6633 13.3318 86.1101 12.1965 86.9849 11.3217L86.4282 10.7649C85.3869 11.8062 84.8759 13.1511 84.8759 14.7638H85.6633ZM86.9829 11.3236C87.8829 10.4359 88.9327 10 90.1514 10V9.2126C88.7192 9.2126 87.4725 9.73472 86.43 10.763L86.9829 11.3236ZM90.1514 10C91.5928 10 92.6756 10.4196 93.4516 11.2191L94.0166 10.6707C93.0603 9.68535 91.7546 9.2126 90.1514 9.2126V10ZM93.4558 11.2233C94.2428 12.0103 94.6593 13.1263 94.6593 14.626H95.4467C95.4467 12.976 94.9839 11.638 94.0125 10.6665L93.4558 11.2233ZM94.6593 14.626C94.6593 14.8714 94.6544 15.0638 94.6453 15.2062C94.6408 15.2774 94.6355 15.3323 94.6298 15.3729C94.6237 15.4169 94.6192 15.4308 94.6205 15.4267L95.3674 15.6757C95.4052 15.5627 95.4213 15.4091 95.4312 15.2564C95.4418 15.0904 95.4467 14.8793 95.4467 14.626H94.6593ZM94.994 15.1575H88.1829V15.9449H94.994V15.1575ZM87.7896 15.5704C87.8215 16.2237 88.1062 16.776 88.6172 17.2096L89.1266 16.6093C88.7715 16.308 88.5967 15.9548 88.576 15.532L87.7896 15.5704ZM88.6225 17.2142C89.1302 17.6294 89.7314 17.8346 90.4073 17.8346V17.0472C89.9022 17.0472 89.4798 16.8982 89.1211 16.6047L88.6225 17.2142ZM90.4073 17.8346C90.9668 17.8346 91.4638 17.7164 91.8719 17.4512C92.2835 17.1835 92.5719 16.7876 92.7469 16.2928L92.0046 16.0301C91.878 16.3882 91.6873 16.6321 91.4428 16.791C91.1947 16.9522 90.8583 17.0472 90.4073 17.0472V17.8346ZM99.9662 19.685V20.0787H100.36V19.685H99.9662ZM96.9741 19.685H96.5804V20.0787H96.9741V19.685ZM96.9741 5.43307V5.03937H96.5804V5.43307H96.9741ZM99.9662 5.43307H100.36V5.03937H99.9662V5.43307ZM99.9662 19.2913H96.9741V20.0787H99.9662V19.2913ZM97.3678 19.685V5.43307H96.5804V19.685H97.3678ZM96.9741 5.82677H99.9662V5.03937H96.9741V5.82677ZM99.5725 5.43307V19.685H100.36V5.43307H99.5725ZM105.5 19.685V20.0787H105.894V19.685H105.5ZM102.607 19.685H102.213V20.0787H102.607V19.685ZM102.607 5.43307V5.03937H102.213V5.43307H102.607ZM105.54 5.43307H105.934V5.03937H105.54V5.43307ZM105.54 10.8268H105.146V12.1059L105.865 11.0481L105.54 10.8268ZM106.642 10L106.485 9.63909L106.642 10ZM111.682 11.1024L111.381 11.3572L111.383 11.3594L111.385 11.3616L111.682 11.1024ZM111.603 18.4646L111.311 18.2003L111.311 18.2005L111.603 18.4646ZM106.583 19.5472L106.403 19.8974L106.407 19.8994L106.411 19.9012L106.583 19.5472ZM105.5 18.5827L105.838 18.3801L105.107 17.1613V18.5827H105.5ZM109.3 12.9921L109.021 13.2705L109.023 13.2727L109.026 13.2749L109.3 12.9921ZM106.13 12.9921L106.404 13.2749L106.404 13.2748L106.13 12.9921ZM106.15 16.5945L105.872 16.8729L105.874 16.875L105.876 16.8771L106.15 16.5945ZM109.28 16.5945L109.558 16.8729L109.28 16.5945ZM105.5 19.2913H102.607V20.0787H105.5V19.2913ZM103 19.685V5.43307H102.213V19.685H103ZM102.607 5.82677H105.54V5.03937H102.607V5.82677ZM105.146 5.43307V10.8268H105.934V5.43307H105.146ZM105.865 11.0481C106.033 10.8017 106.329 10.5659 106.799 10.3609L106.485 9.63909C105.931 9.88033 105.493 10.1956 105.214 10.6054L105.865 11.0481ZM106.799 10.3609C107.255 10.1625 107.777 10.0591 108.374 10.0591V9.27165C107.685 9.27165 107.053 9.39132 106.485 9.63909L106.799 10.3609ZM108.374 10.0591C109.664 10.0591 110.651 10.4974 111.381 11.3572L111.982 10.8475C111.085 9.79136 109.867 9.27165 108.374 9.27165V10.0591ZM111.385 11.3616C112.137 12.2215 112.528 13.3439 112.528 14.7638H113.315C113.315 13.1916 112.879 11.873 111.978 10.8431L111.385 11.3616ZM112.528 14.7638C112.528 16.177 112.115 17.3119 111.311 18.2003L111.895 18.7288C112.849 17.675 113.315 16.3427 113.315 14.7638H112.528ZM111.311 18.2005C110.524 19.0708 109.517 19.5079 108.256 19.5079V20.2953C109.725 20.2953 110.949 19.7744 111.895 18.7286L111.311 18.2005ZM108.256 19.5079C107.676 19.5079 107.179 19.3993 106.755 19.1932L106.411 19.9012C106.958 20.1675 107.577 20.2953 108.256 20.2953V19.5079ZM106.763 19.197C106.33 18.9748 106.03 18.6998 105.838 18.3801L105.163 18.7852C105.443 19.2529 105.865 19.621 106.403 19.8974L106.763 19.197ZM105.107 18.5827V19.685H105.894V18.5827H105.107ZM110.323 14.7835C110.323 13.9277 110.094 13.2133 109.573 12.7093L109.026 13.2749C109.345 13.5846 109.536 14.0644 109.536 14.7835H110.323ZM109.578 12.7137C109.079 12.2151 108.452 11.9685 107.725 11.9685V12.7559C108.257 12.7559 108.68 12.9292 109.021 13.2705L109.578 12.7137ZM107.725 11.9685C106.997 11.9685 106.366 12.2149 105.856 12.7095L106.404 13.2748C106.76 12.9295 107.192 12.7559 107.725 12.7559V11.9685ZM105.856 12.7093C105.336 13.2133 105.107 13.9277 105.107 14.7835H105.894C105.894 14.0644 106.085 13.5846 106.404 13.2749L105.856 12.7093ZM105.107 14.7835C105.107 15.6331 105.346 16.3477 105.872 16.8729L106.428 16.3161C106.087 15.9751 105.894 15.4824 105.894 14.7835H105.107ZM105.876 16.8771C106.384 17.3701 107.008 17.6181 107.725 17.6181V16.8307C107.208 16.8307 106.782 16.6588 106.424 16.3118L105.876 16.8771ZM107.725 17.6181C108.441 17.6181 109.061 17.3698 109.558 16.8729L109.001 16.3161C108.659 16.6591 108.242 16.8307 107.725 16.8307V17.6181ZM109.558 16.8729C110.084 16.3477 110.323 15.6331 110.323 14.7835H109.536C109.536 15.4824 109.342 15.9751 109.001 16.3161L109.558 16.8729ZM115.069 15L115.336 15.2888L115.338 15.287L115.34 15.2853L115.069 15ZM117.155 14.0354L117.215 14.4245L117.155 14.0354ZM119.459 13.6811L119.404 13.2911L119.401 13.2915L119.398 13.292L119.459 13.6811ZM119.773 12.2638L119.52 12.5649L119.528 12.5721L119.537 12.5787L119.773 12.2638ZM117.529 12.3819L117.801 12.6667L117.801 12.6664L117.529 12.3819ZM117.057 13.3858L116.978 13.7715L117.42 13.8619L117.45 13.412L117.057 13.3858ZM114.459 12.8543L114.066 12.8227L114.038 13.1702L114.38 13.24L114.459 12.8543ZM115.659 10.6299L115.924 10.921L115.924 10.9208L115.659 10.6299ZM122.018 10.6693L121.736 10.9451L121.738 10.9464L121.739 10.9477L122.018 10.6693ZM123.199 19.685V20.0787H123.679L123.585 19.6078L123.199 19.685ZM120.502 19.685L120.12 19.7805L120.194 20.0787H120.502V19.685ZM120.403 18.5827H120.797V17.1896L120.068 18.3766L120.403 18.5827ZM115.167 19.0945L114.892 19.3759L114.895 19.3789L114.898 19.3819L115.167 19.0945ZM119.655 17.3425L119.394 17.0476L119.655 17.3425ZM120.167 15.4134H120.561V14.9519L120.105 15.0246L120.167 15.4134ZM118.317 15.7087L118.255 15.3199L118.254 15.3199L118.317 15.7087ZM117.49 17.5L117.202 17.7686L117.207 17.7736L117.211 17.7784L117.49 17.5ZM114.655 16.9882C114.655 16.2556 114.889 15.7031 115.336 15.2888L114.801 14.7112C114.172 15.2943 113.868 16.0672 113.868 16.9882H114.655ZM115.34 15.2853C115.811 14.8374 116.428 14.5456 117.215 14.4245L117.095 13.6463C116.176 13.7877 115.403 14.139 114.797 14.7147L115.34 15.2853ZM117.215 14.4245L119.518 14.0702L119.398 13.292L117.095 13.6463L117.215 14.4245ZM119.513 14.0711C119.794 14.032 120.061 13.9393 120.26 13.7508C120.471 13.552 120.561 13.2902 120.561 13.0118H119.773C119.773 13.114 119.745 13.154 119.72 13.1783C119.683 13.213 119.596 13.2646 119.404 13.2911L119.513 14.0711ZM120.561 13.0118C120.561 12.5741 120.361 12.2125 120.01 11.9488L119.537 12.5787C119.71 12.7087 119.773 12.8459 119.773 13.0118H120.561ZM120.027 11.9626C119.684 11.6741 119.235 11.5551 118.73 11.5551V12.3425C119.118 12.3425 119.364 12.4336 119.52 12.5649L120.027 11.9626ZM118.73 11.5551C118.151 11.5551 117.646 11.7253 117.257 12.0974L117.801 12.6664C118.016 12.461 118.312 12.3425 118.73 12.3425V11.5551ZM117.258 12.0971C116.898 12.4398 116.697 12.8664 116.664 13.3596L117.45 13.412C117.469 13.1179 117.583 12.8751 117.801 12.6667L117.258 12.0971ZM117.136 13.0001L114.537 12.4686L114.38 13.24L116.978 13.7715L117.136 13.0001ZM114.851 12.886C114.907 12.1925 115.246 11.5385 115.924 10.921L115.394 10.3388C114.602 11.0599 114.141 11.8888 114.066 12.8227L114.851 12.886ZM115.924 10.9208C116.581 10.3222 117.506 10 118.75 10V9.2126C117.369 9.2126 116.234 9.57277 115.394 10.3391L115.924 10.9208ZM118.75 10C120.179 10 121.145 10.3421 121.736 10.9451L122.298 10.3935C121.499 9.57911 120.287 9.2126 118.75 9.2126V10ZM121.739 10.9477C122.366 11.5748 122.687 12.3764 122.687 13.3858H123.474C123.474 12.1905 123.086 11.1811 122.296 10.3909L121.739 10.9477ZM122.687 13.3858V18.1693H123.474V13.3858H122.687ZM122.687 18.1693C122.687 18.7998 122.727 19.3334 122.812 19.7622L123.585 19.6078C123.513 19.2492 123.474 18.7724 123.474 18.1693H122.687ZM123.199 19.2913H120.502V20.0787H123.199V19.2913ZM120.884 19.5895C120.83 19.3731 120.797 19.043 120.797 18.5827H120.01C120.01 19.0672 120.043 19.472 120.12 19.7805L120.884 19.5895ZM120.068 18.3766C119.589 19.1559 118.812 19.5669 117.647 19.5669V20.3543C119.028 20.3543 120.089 19.8467 120.739 18.7887L120.068 18.3766ZM117.647 19.5669C116.687 19.5669 115.964 19.3015 115.436 18.8071L114.898 19.3819C115.604 20.0423 116.535 20.3543 117.647 20.3543V19.5669ZM115.442 18.813C114.911 18.2934 114.655 17.6915 114.655 16.9882H113.868C113.868 17.9122 114.216 18.7144 114.892 19.3759L115.442 18.813ZM118.376 18.189C118.971 18.189 119.494 18.0109 119.916 17.6374L119.394 17.0476C119.134 17.2779 118.804 17.4016 118.376 17.4016V18.189ZM119.916 17.6374C120.378 17.2289 120.561 16.5953 120.561 15.8465H119.773C119.773 16.4886 119.615 16.8525 119.394 17.0476L119.916 17.6374ZM120.561 15.8465V15.4134H119.773V15.8465H120.561ZM120.105 15.0246L118.255 15.3199L118.379 16.0974L120.229 15.8022L120.105 15.0246ZM118.254 15.3199C117.841 15.3864 117.477 15.5291 117.214 15.787C116.942 16.0542 116.821 16.4035 116.821 16.7913H117.608C117.608 16.5755 117.67 16.4425 117.766 16.3488C117.871 16.2459 118.058 16.149 118.379 16.0974L118.254 15.3199ZM116.821 16.7913C116.821 17.1641 116.949 17.497 117.202 17.7686L117.778 17.2314C117.664 17.1093 117.608 16.9698 117.608 16.7913H116.821ZM117.211 17.7784C117.508 18.0751 117.921 18.189 118.376 18.189V17.4016C118.043 17.4016 117.865 17.3186 117.768 17.2216L117.211 17.7784ZM128.492 19.685V20.0787H128.885V19.685H128.492ZM125.598 19.685H125.204V20.0787H125.598V19.685ZM125.598 5.43307V5.03937H125.204V5.43307H125.598ZM128.531 5.43307H128.925V5.03937H128.531V5.43307ZM128.531 10.8268H128.137V12.1059L128.857 11.0481L128.531 10.8268ZM129.634 10L129.476 9.63909L129.634 10ZM134.673 11.1024L134.373 11.3572L134.375 11.3594L134.377 11.3616L134.673 11.1024ZM134.594 18.4646L134.302 18.2003L134.302 18.2005L134.594 18.4646ZM129.574 19.5472L129.395 19.8974L129.398 19.8994L129.402 19.9012L129.574 19.5472ZM128.492 18.5827L128.829 18.3801L128.098 17.1613V18.5827H128.492ZM132.291 12.9921L132.013 13.2705L132.015 13.2727L132.017 13.2749L132.291 12.9921ZM129.122 12.9921L129.396 13.2749L129.396 13.2748L129.122 12.9921ZM129.141 16.5945L128.863 16.8729L128.865 16.875L128.867 16.8771L129.141 16.5945ZM132.271 16.5945L132.55 16.8729L132.271 16.5945ZM128.492 19.2913H125.598V20.0787H128.492V19.2913ZM125.992 19.685V5.43307H125.204V19.685H125.992ZM125.598 5.82677H128.531V5.03937H125.598V5.82677ZM128.137 5.43307V10.8268H128.925V5.43307H128.137ZM128.857 11.0481C129.024 10.8017 129.321 10.5659 129.791 10.3609L129.476 9.63909C128.923 9.88033 128.484 10.1956 128.206 10.6054L128.857 11.0481ZM129.791 10.3609C130.246 10.1625 130.769 10.0591 131.366 10.0591V9.27165C130.677 9.27165 130.045 9.39132 129.476 9.63909L129.791 10.3609ZM131.366 10.0591C132.655 10.0591 133.643 10.4974 134.373 11.3572L134.973 10.8475C134.076 9.79136 132.859 9.27165 131.366 9.27165V10.0591ZM134.377 11.3616C135.129 12.2215 135.519 13.3439 135.519 14.7638H136.307C136.307 13.1916 135.87 11.873 134.969 10.8431L134.377 11.3616ZM135.519 14.7638C135.519 16.177 135.107 17.3119 134.302 18.2003L134.886 18.7288C135.84 17.675 136.307 16.3427 136.307 14.7638H135.519ZM134.302 18.2005C133.515 19.0708 132.509 19.5079 131.248 19.5079V20.2953C132.717 20.2953 133.941 19.7744 134.886 18.7286L134.302 18.2005ZM131.248 19.5079C130.668 19.5079 130.17 19.3993 129.747 19.1932L129.402 19.9012C129.95 20.1675 130.568 20.2953 131.248 20.2953V19.5079ZM129.754 19.197C129.322 18.9748 129.021 18.6998 128.829 18.3801L128.154 18.7852C128.435 19.2529 128.856 19.621 129.395 19.8974L129.754 19.197ZM128.098 18.5827V19.685H128.885V18.5827H128.098ZM133.315 14.7835C133.315 13.9277 133.085 13.2133 132.565 12.7093L132.017 13.2749C132.337 13.5846 132.527 14.0644 132.527 14.7835H133.315ZM132.57 12.7137C132.071 12.2151 131.444 11.9685 130.716 11.9685V12.7559C131.249 12.7559 131.671 12.9292 132.013 13.2705L132.57 12.7137ZM130.716 11.9685C129.989 11.9685 129.358 12.2149 128.848 12.7095L129.396 13.2748C129.752 12.9295 130.184 12.7559 130.716 12.7559V11.9685ZM128.848 12.7093C128.328 13.2133 128.098 13.9277 128.098 14.7835H128.885C128.885 14.0644 129.076 13.5846 129.396 13.2749L128.848 12.7093ZM128.098 14.7835C128.098 15.6331 128.338 16.3477 128.863 16.8729L129.42 16.3161C129.079 15.9751 128.885 15.4824 128.885 14.7835H128.098ZM128.867 16.8771C129.376 17.3701 130 17.6181 130.716 17.6181V16.8307C130.199 16.8307 129.773 16.6588 129.416 16.3118L128.867 16.8771ZM130.716 17.6181C131.433 17.6181 132.053 17.3698 132.55 16.8729L131.993 16.3161C131.65 16.6591 131.233 16.8307 130.716 16.8307V17.6181ZM132.55 16.8729C133.075 16.3477 133.315 15.6331 133.315 14.7835H132.527C132.527 15.4824 132.334 15.9751 131.993 16.3161L132.55 16.8729ZM141.182 23.4449V23.8386H141.438L141.542 23.6049L141.182 23.4449ZM138.033 23.4449L137.672 23.287L137.431 23.8386H138.033V23.4449ZM140.257 18.3661L140.618 18.5241L140.691 18.3576L140.611 18.194L140.257 18.3661ZM136.143 9.90157V9.50787H135.514L135.789 10.0737L136.143 9.90157ZM139.489 9.90157L139.848 9.73856L139.743 9.50787H139.489V9.90157ZM141.871 15.1378L141.513 15.3008L141.889 16.1264L142.235 15.2882L141.871 15.1378ZM144.037 9.90157V9.50787H143.773L143.673 9.75112L144.037 9.90157ZM147.206 9.90157L147.566 10.0616L147.812 9.50787H147.206V9.90157ZM141.182 23.0512H138.033V23.8386H141.182V23.0512ZM138.393 23.6028L140.618 18.5241L139.896 18.2082L137.672 23.287L138.393 23.6028ZM140.611 18.194L136.497 9.72947L135.789 10.0737L139.903 18.5382L140.611 18.194ZM136.143 10.2953H139.489V9.50787H136.143V10.2953ZM139.131 10.0646L141.513 15.3008L142.23 14.9748L139.848 9.73856L139.131 10.0646ZM142.235 15.2882L144.401 10.052L143.673 9.75112L141.508 14.9873L142.235 15.2882ZM144.037 10.2953H147.206V9.50787H144.037V10.2953ZM146.846 9.74157L140.823 23.2848L141.542 23.6049L147.566 10.0616L146.846 9.74157Z" fill="#B76E79"/>
<mask id="mask0_747_35" style="mask-type:alpha" maskUnits="userSpaceOnUse" x="0" y="4" width="31" height="20">
<path d="M30.637 4.13383H0V23.8189H30.637V4.13383Z" fill="white"/>
<path fill-rule="evenodd" clip-rule="evenodd" d="M10.5987 21.8966C10.6999 21.9852 10.8257 22.0293 10.952 22.0293C11.0784 22.0293 11.2042 21.9852 11.3054 21.8966C12.0866 21.2135 12.8295 20.5803 13.5283 19.9846L13.6382 19.8909C14.2298 19.3869 14.7914 18.9083 15.3185 18.4479C15.8457 18.9084 16.4073 19.3869 16.999 19.8911L17.1087 19.9846C17.8076 20.5803 18.5505 21.2135 19.3317 21.8966C19.4329 21.9852 19.5587 22.0293 19.685 22.0293C19.8114 22.0293 19.9372 21.9852 20.0384 21.8966C20.8195 21.2135 21.5624 20.5803 22.2614 19.9846L22.3713 19.8909C26.2545 16.582 28.8474 14.3725 28.8474 11.1672C28.8474 8.17778 26.7344 5.92337 23.9799 5.92337C21.8089 5.92337 20.4153 7.44012 19.685 8.80587C19.5176 8.49278 19.3153 8.17174 19.0768 7.86286C18.797 7.48221 18.4678 7.14756 18.098 6.86815C17.3837 6.30979 16.4859 5.92337 15.3901 5.92337C15.3662 5.92337 15.3423 5.92355 15.3185 5.92388C15.2947 5.92355 15.2709 5.92337 15.247 5.92337C14.1511 5.92337 13.2534 6.30979 12.5391 6.86815C12.1693 7.14756 11.8401 7.48221 11.5603 7.86286C11.3218 8.17174 11.1195 8.49278 10.952 8.80587C10.2217 7.44012 8.82817 5.92337 6.65713 5.92337C3.90254 5.92337 1.78955 8.17778 1.78955 11.1672C1.78955 14.3725 4.3826 16.582 8.26596 19.8911L8.37573 19.9846C9.07459 20.5803 9.8175 21.2135 10.5987 21.8966ZM11.5603 7.86286C10.9064 8.75233 10.5225 9.89302 10.5225 11.1672C10.5225 13.8841 12.3857 15.8857 15.3185 18.4479C18.2514 15.8857 20.1146 13.8842 20.1146 11.1672C20.1146 9.89302 19.7307 8.75233 19.0768 7.86286C18.8 7.50445 18.4745 7.16243 18.098 6.86815C17.3223 6.28195 16.3684 5.9388 15.3185 5.92388C14.2687 5.9388 13.3147 6.28195 12.5391 6.86815C12.1626 7.16243 11.837 7.50445 11.5603 7.86286Z" fill="black"/>
</mask>
<g mask="url(#mask0_747_35)">
<path d="M10.5987 21.8966L11.7777 20.5506L11.7772 20.55L11.7767 20.5496L10.5987 21.8966ZM11.3054 21.8966L10.1273 20.5496L10.1268 20.55L10.1263 20.5506L11.3054 21.8966ZM13.5283 19.9846L12.3677 18.6225L12.3676 18.6226L13.5283 19.9846ZM13.6382 19.8909L12.4776 18.5289V18.5289L13.6382 19.8909ZM16.999 19.8911L18.1596 18.529L18.1596 18.529L16.999 19.8911ZM17.1087 19.9846L18.2695 18.6226L18.2694 18.6225L17.1087 19.9846ZM19.3317 21.8966L20.5106 20.5506L20.5102 20.55L20.5096 20.5496L19.3317 21.8966ZM20.0384 21.8966L18.8603 20.5496L18.8598 20.55L18.8593 20.5506L20.0384 21.8966ZM22.2614 19.9846L21.1006 18.6225V18.6226L22.2614 19.9846ZM22.3713 19.8909L21.2106 18.5289V18.5289L22.3713 19.8909ZM19.685 8.80588L18.1069 9.64976L19.685 12.6009L21.2632 9.64976L19.685 8.80588ZM10.952 8.80588L9.37394 9.64976L10.952 12.6009L12.5301 9.64976L10.952 8.80588ZM8.26596 19.8911L9.42665 18.529L9.42661 18.529L8.26596 19.8911ZM8.37573 19.9846L9.5365 18.6226L9.53644 18.6225L8.37573 19.9846ZM10.952 20.2397C11.2429 20.2397 11.5403 20.3425 11.7777 20.5506L9.41961 23.2429C9.85937 23.6281 10.4085 23.8189 10.952 23.8189V20.2397ZM10.1263 20.5506C10.3637 20.3425 10.6612 20.2397 10.952 20.2397V23.8189C11.4956 23.8189 12.0447 23.6281 12.4845 23.2429L10.1263 20.5506ZM12.3676 18.6226C11.6694 19.2176 10.9183 19.8579 10.1273 20.5496L12.4835 23.2439C13.2549 22.5693 13.9895 21.9429 14.6891 21.3466L12.3676 18.6226ZM12.4776 18.5289L12.3677 18.6225L14.689 21.3466L14.7989 21.2531L12.4776 18.5289ZM14.1412 17.1002C13.6239 17.552 13.071 18.0232 12.4776 18.5289L14.7989 21.2531C15.3886 20.7506 15.959 20.2645 16.4959 19.7954L14.1412 17.1002ZM18.1596 18.529C17.5662 18.0233 17.0132 17.552 16.4959 17.1002L14.1412 19.7954C14.6781 20.2647 15.2485 20.7506 15.8383 21.2531L18.1596 18.529ZM18.2694 18.6225L18.1596 18.529L15.8383 21.2531L15.948 21.3466L18.2694 18.6225ZM20.5096 20.5496C19.7187 19.8579 18.9676 19.2176 18.2695 18.6226L15.948 21.3466C16.6475 21.9429 17.3822 22.5693 18.1536 23.2439L20.5096 20.5496ZM19.685 20.2397C19.9758 20.2397 20.2732 20.3425 20.5106 20.5506L18.1526 23.2429C18.5924 23.6281 19.1415 23.8189 19.685 23.8189V20.2397ZM18.8593 20.5506C19.0967 20.3425 19.3942 20.2397 19.685 20.2397V23.8189C20.2285 23.8189 20.7778 23.6281 21.2175 23.2429L18.8593 20.5506ZM21.1006 18.6226C20.4024 19.2176 19.6513 19.8579 18.8603 20.5496L21.2165 23.2439C21.9878 22.5693 22.7224 21.9429 23.422 21.3466L21.1006 18.6226ZM21.2106 18.5289L21.1006 18.6225L23.422 21.3466L23.5319 21.2531L21.2106 18.5289ZM27.0579 11.1673C27.0579 12.2169 26.6575 13.1793 25.6882 14.3477C24.6752 15.569 23.1931 16.8395 21.2106 18.5289L23.5319 21.2531C25.4327 19.6335 27.1888 18.1447 28.4429 16.6328C29.7411 15.0678 30.637 13.3229 30.637 11.1673H27.0579ZM23.9799 7.71293C25.6278 7.71293 27.0579 9.04338 27.0579 11.1673H30.637C30.637 7.31218 27.8413 4.13383 23.9799 4.13383V7.71293ZM21.2632 9.64976C21.8524 8.54771 22.7652 7.71293 23.9799 7.71293V4.13383C20.8526 4.13383 18.9783 6.33254 18.1069 7.962L21.2632 9.64976ZM17.6604 8.95659C17.8323 9.17919 17.9816 9.41533 18.1069 9.64976L21.2632 7.962C21.0535 7.57023 20.7984 7.16431 20.4931 6.76911L17.6604 8.95659ZM17.0191 8.2959C17.2479 8.4688 17.4556 8.6788 17.6349 8.92277L20.5187 6.80295C20.1384 6.28563 19.6876 5.82635 19.1769 5.44045L17.0191 8.2959ZM15.3901 7.71293C16.0329 7.71293 16.5513 7.93051 16.9959 8.27811L19.2001 5.45822C18.2161 4.68907 16.939 4.13383 15.3901 4.13383V7.71293ZM15.344 7.71326C15.3593 7.71305 15.3747 7.71293 15.3901 7.71293V4.13383C15.3577 4.13383 15.3254 4.13407 15.2931 4.13452L15.344 7.71326ZM15.2469 7.71293C15.2624 7.71293 15.2778 7.71305 15.2931 7.71326L15.344 4.13452C15.3117 4.13407 15.2793 4.13383 15.2469 4.13383V7.71293ZM13.6411 8.27811C14.0858 7.93051 14.6042 7.71293 15.2469 7.71293V4.13383C13.6981 4.13383 12.421 4.68907 11.437 5.45822L13.6411 8.27811ZM13.0022 8.92277C13.1815 8.6788 13.3892 8.4688 13.618 8.2959L11.4601 5.44045C10.9494 5.82635 10.4986 6.28563 10.1183 6.80295L13.0022 8.92277ZM12.5301 9.64976C12.6555 9.41533 12.8048 9.17919 12.9767 8.95659L10.1439 6.76911C9.83868 7.16431 9.58346 7.57023 9.37394 7.962L12.5301 9.64976ZM6.65712 7.71293C7.87187 7.71293 8.78464 8.54771 9.37394 9.64976L12.5301 7.962C11.6588 6.33254 9.78447 4.13383 6.65712 4.13383V7.71293ZM3.57909 11.1673C3.57909 9.04338 5.00931 7.71293 6.65712 7.71293V4.13383C2.79577 4.13383 0 7.31218 0 11.1673H3.57909ZM9.42661 18.529C7.44398 16.8396 5.96199 15.5691 4.94886 14.3477C3.97963 13.1793 3.57909 12.2169 3.57909 11.1673H0C0 13.3229 0.89597 15.0678 2.19413 16.6328C3.44837 18.1448 5.20459 19.6335 7.10529 21.2531L9.42661 18.529ZM9.53644 18.6225L9.42665 18.529L7.10529 21.2531L7.21502 21.3466L9.53644 18.6225ZM11.7767 20.5496C10.9858 19.8579 10.2346 19.2176 9.5365 18.6226L7.21496 21.3466C7.91453 21.9429 8.64921 22.5693 9.42061 23.2439L11.7767 20.5496ZM12.3121 11.1673C12.3121 10.2556 12.5851 9.49021 13.0022 8.92277L10.1183 6.80295C9.22779 8.01446 8.73299 9.53051 8.73299 11.1673H12.3121ZM16.4959 17.1002C13.4846 14.4695 12.3121 12.9678 12.3121 11.1673H8.73299C8.73299 14.8005 11.2867 17.3019 14.1412 19.7954L16.4959 17.1002ZM18.325 11.1673C18.325 12.9678 17.1524 14.4695 14.1412 17.1002L16.4959 19.7954C19.3504 17.3019 21.9041 14.8005 21.9041 11.1673H18.325ZM17.6349 8.92277C18.052 9.49021 18.325 10.2556 18.325 11.1673H21.9041C21.9041 9.53051 21.4093 8.01446 20.5187 6.80295L17.6349 8.92277ZM16.9959 8.27811C17.2379 8.4672 17.4606 8.69791 17.6604 8.95659L20.4931 6.76911C20.1394 6.31104 19.711 5.85767 19.2001 5.45822L16.9959 8.27811ZM15.2931 7.71326C15.9588 7.72273 16.5444 7.93712 17.0191 8.2959L19.1769 5.44045C18.1003 4.62679 16.778 4.15492 15.344 4.13452L15.2931 7.71326ZM13.618 8.2959C14.0927 7.93712 14.6783 7.72273 15.344 7.71326L15.2931 4.13452C13.8591 4.15492 12.5368 4.62679 11.4601 5.44045L13.618 8.2959ZM12.9767 8.95659C13.1764 8.69791 13.3992 8.4672 13.6411 8.27811L11.437 5.45822C10.9259 5.85767 10.4976 6.31104 10.1439 6.76911L12.9767 8.95659Z" fill="#B76E79"/>
</g>
</g>
<defs>
<clipPath id="clip0_747_35">
<rect width="147.835" height="25" fill="white"/>
</clipPath>
</defs>
</svg>
