<svg width="20" height="20" viewBox="0 0 20 20" fill="none" xmlns="http://www.w3.org/2000/svg">
<g opacity="0.7" clip-path="url(#clip0_89_0)">
<path d="M8.4375 20H3.125C1.40182 20 0 18.5982 0 16.875V3.125C0 1.40182 1.40182 0 3.125 0H8.4375C10.1607 0 11.5625 1.40182 11.5625 3.125V5.3125C11.5625 5.74402 11.2128 6.09375 10.7812 6.09375C10.3497 6.09375 10 5.74402 10 5.3125V3.125C10 2.26349 9.29901 1.5625 8.4375 1.5625H3.125C2.26349 1.5625 1.5625 2.26349 1.5625 3.125V16.875C1.5625 17.7365 2.26349 18.4375 3.125 18.4375H8.4375C9.29901 18.4375 10 17.7365 10 16.875V14.7266C10 14.295 10.3497 13.9453 10.7812 13.9453C11.2128 13.9453 11.5625 14.295 11.5625 14.7266V16.875C11.5625 18.5982 10.1607 20 8.4375 20ZM15.7295 15.2184L19.3088 11.6602C19.754 11.2175 19.9992 10.6279 19.9992 10.0002C19.9992 9.37225 19.754 8.78265 19.3088 8.34L15.7295 4.7818C15.2902 4.34509 14.6362 4.21661 14.0636 4.45496C13.4932 4.69208 13.1247 5.24368 13.1247 5.85999V9.2189H3.90625C3.47473 9.2189 3.125 9.56863 3.125 10.0002C3.125 10.4317 3.47473 10.7814 3.90625 10.7814H13.1247C13.9864 10.7814 14.6872 10.0804 14.6872 9.2189V5.94894L18.2071 9.44809C18.3553 9.59534 18.4367 9.79126 18.4367 10.0002C18.4367 10.2089 18.3553 10.405 18.2071 10.5521L14.6872 14.0514V13.2814C14.6872 12.8499 14.3375 12.5002 13.9059 12.5002C13.4744 12.5002 13.1247 12.8499 13.1247 13.2814V14.1402C13.1247 14.7565 13.4933 15.3081 14.0637 15.5453C14.2548 15.6248 14.455 15.6635 14.6532 15.6635C15.0488 15.6635 15.4369 15.5093 15.7295 15.2184Z" fill="#2C2C2C"/>
</g>
<defs>
<clipPath id="clip0_89_0">
<rect width="20" height="20" fill="white"/>
</clipPath>
</defs>
</svg>
