<svg width="20" height="20" viewBox="0 0 20 20" fill="none" xmlns="http://www.w3.org/2000/svg">
<path d="M18.6157 12.0593C18.6234 12.0685 18.6312 12.0775 18.6392 12.0864C18.6395 12.0867 18.6397 12.087 18.64 12.0873C18.6409 12.0884 18.6419 12.0894 18.6429 12.0905C18.714 12.1682 18.7976 12.2284 18.888 12.2705C18.9809 12.3139 19.0838 12.3396 19.1923 12.3432C19.1943 12.3433 19.1963 12.3434 19.1982 12.3434C19.1986 12.3434 19.1989 12.3434 19.1993 12.3435C19.2551 12.3449 19.3111 12.3404 19.3663 12.3298L19.3684 12.3294C19.3708 12.3289 19.3732 12.3285 19.3757 12.328C19.3766 12.3278 19.3777 12.3275 19.3787 12.3273C19.3808 12.3269 19.3829 12.3265 19.385 12.326C19.3862 12.3257 19.3873 12.3255 19.3885 12.3252C19.3904 12.3248 19.3923 12.3244 19.3943 12.3239C19.3956 12.3236 19.397 12.3233 19.3983 12.323C19.4 12.3226 19.4018 12.3221 19.4035 12.3218C19.405 12.3214 19.4064 12.321 19.4079 12.3207C19.4095 12.3203 19.4111 12.3198 19.4127 12.3195C19.4142 12.3191 19.4157 12.3187 19.4171 12.3183C19.4188 12.3179 19.4204 12.3174 19.422 12.317C19.4235 12.3166 19.425 12.3162 19.4265 12.3158L19.4311 12.3145C19.4327 12.3141 19.4343 12.3136 19.4359 12.3132C19.4374 12.3127 19.4389 12.3123 19.4405 12.3118C19.4417 12.3115 19.443 12.3111 19.4443 12.3107C19.4462 12.3101 19.4481 12.3095 19.45 12.3089C19.4511 12.3086 19.4521 12.3083 19.4531 12.308C19.4551 12.3074 19.457 12.3068 19.4589 12.3061C19.4601 12.3057 19.4613 12.3054 19.4625 12.305C19.4644 12.3043 19.4663 12.3037 19.4682 12.303C19.4691 12.3027 19.47 12.3024 19.4709 12.3021C19.4731 12.3014 19.4753 12.3007 19.4774 12.2999C19.4782 12.2996 19.4791 12.2993 19.4799 12.2991C19.4821 12.2983 19.4843 12.2975 19.4865 12.2967C19.4872 12.2964 19.4879 12.2962 19.4886 12.2959C19.491 12.295 19.4934 12.2941 19.4958 12.2932L19.497 12.2927C19.4996 12.2917 19.5023 12.2907 19.505 12.2896C19.5051 12.2896 19.5053 12.2895 19.5054 12.2895C19.5083 12.2883 19.5111 12.2872 19.514 12.286C19.5487 12.2718 19.5827 12.255 19.6157 12.2355C19.6161 12.2352 19.6166 12.235 19.6171 12.2347C19.6193 12.2334 19.6215 12.232 19.6238 12.2307C19.6659 12.2051 19.7054 12.1757 19.7418 12.1428C19.7424 12.1422 19.743 12.1416 19.7437 12.1411C19.7443 12.1405 19.7449 12.14 19.7455 12.1395C19.8238 12.068 19.8845 11.9839 19.9268 11.8929C19.9704 11.7997 19.9961 11.6964 19.9995 11.5875C19.9996 11.5861 19.9996 11.5848 19.9996 11.5834C19.9996 11.5825 19.9997 11.5816 19.9997 11.5807C19.9997 11.578 19.9998 11.5754 19.9998 11.5727C19.9998 11.5726 19.9998 11.5726 19.9998 11.5725C19.9999 11.5684 19.9999 11.5643 19.9999 11.5601V4.53125C19.9999 2.80813 18.598 1.40625 16.8749 1.40625H3.125C1.40188 1.40625 0 2.80809 0 4.53125V15.4688C0 17.1919 1.40188 18.5938 3.125 18.5938H10.5224C10.5243 18.5938 10.5261 18.5938 10.5279 18.5938C10.5304 18.5938 10.5328 18.5938 10.5353 18.5938H16.875C18.5981 18.5938 20 17.1919 20 15.4688C20 15.0373 19.6502 14.6875 19.2188 14.6875C18.7873 14.6875 18.4375 15.0373 18.4375 15.4688C18.4375 16.3303 17.7366 17.0312 16.875 17.0312H10.9115L9.11523 14.7009L14.785 7.4893L18.6157 12.0593ZM14.7534 5.46883C14.5181 5.4725 14.2969 5.58211 14.1515 5.76711L8.13125 13.4244L6.0875 10.773C5.93961 10.5811 5.71102 10.4688 5.46875 10.4688H5.46836C5.22594 10.4689 4.9973 10.5815 4.84949 10.7737L3.13016 13.0088C2.86711 13.3508 2.93105 13.8413 3.27305 14.1044C3.61512 14.3675 4.10559 14.3035 4.36863 13.9615L5.46938 12.5305L8.93875 17.0313H3.125C2.26344 17.0313 1.5625 16.3304 1.5625 15.4688V4.53129C1.5625 3.66973 2.26344 2.96879 3.125 2.96879H16.875C17.7366 2.96879 18.4375 3.66973 18.4375 4.53129V9.41438L15.3643 5.74816C15.2132 5.56773 14.9892 5.46527 14.7534 5.46883ZM5.46875 4.21875C4.17641 4.21875 3.125 5.27016 3.125 6.5625C3.125 7.85484 4.17641 8.90625 5.46875 8.90625C6.76109 8.90625 7.8125 7.85484 7.8125 6.5625C7.8125 5.27016 6.76109 4.21875 5.46875 4.21875ZM5.46875 7.34375C5.03797 7.34375 4.6875 6.99328 4.6875 6.5625C4.6875 6.13172 5.03797 5.78125 5.46875 5.78125C5.89953 5.78125 6.25 6.13172 6.25 6.5625C6.25 6.99328 5.89953 7.34375 5.46875 7.34375Z" fill="#B76E79"/>
</svg>
