<svg width="20" height="20" viewBox="0 0 20 20" fill="none" xmlns="http://www.w3.org/2000/svg">
<path d="M19.2188 11.25C19.6502 11.25 20 10.9002 20 10.4688V4.6875C20 2.96438 18.5981 1.5625 16.875 1.5625H3.125C1.40188 1.5625 0 2.96438 0 4.6875V15.3125C0 17.0356 1.40188 18.4375 3.125 18.4375H16.875C18.5981 18.4375 20 17.0356 20 15.3125V15.1562C20 14.9197 19.8929 14.6959 19.7086 14.5476L13.794 9.78723L18.4375 6.8998V10.4688C18.4375 10.9002 18.7873 11.25 19.2188 11.25ZM1.5625 6.8998L6.20477 9.78648L1.5625 13.5125V6.8998ZM18.4239 15.5193C18.3224 16.2835 17.6665 16.875 16.875 16.875H3.125C2.3291 16.875 1.67027 16.2768 1.57449 15.5064L7.61133 10.6611L8.3498 11.1203C9.36766 11.7533 10.6323 11.7532 11.6502 11.1203L12.3881 10.6614L18.4239 15.5193ZM10.8251 9.79344C10.3162 10.1099 9.68387 10.1099 9.17492 9.79344L1.58441 5.07348C1.57715 5.06895 1.56984 5.06461 1.5625 5.06035V4.6875C1.5625 3.82594 2.26344 3.125 3.125 3.125H16.875C17.7366 3.125 18.4375 3.82594 18.4375 4.6875V5.05984L10.8251 9.79344Z" fill="#B76E79"/>
</svg>
