<svg width="20" height="20" viewBox="0 0 20 20" fill="none" xmlns="http://www.w3.org/2000/svg">
<path d="M5.89844 10V4.10156C5.89844 1.83996 7.7384 0 10 0C12.2616 0 14.1016 1.83996 14.1016 4.10156V6.09375C14.1016 6.52523 13.7518 6.875 13.3203 6.875C12.8888 6.875 12.5391 6.52523 12.5391 6.09375V4.10156C12.5391 2.70152 11.4 1.5625 10 1.5625C8.59996 1.5625 7.46094 2.70152 7.46094 4.10156V10C7.46094 11.4 8.59996 12.5391 10 12.5391C11.4 12.5391 12.5391 11.4 12.5391 10C12.5391 9.56852 12.8888 9.21875 13.3203 9.21875C13.7518 9.21875 14.1016 9.56852 14.1016 10C14.1016 12.2616 12.2616 14.1016 10 14.1016C7.7384 14.1016 5.89844 12.2616 5.89844 10ZM17.2266 10C17.2266 9.56852 16.8768 9.21875 16.4453 9.21875C16.0138 9.21875 15.6641 9.56852 15.6641 10C15.6641 13.1232 13.1232 15.6641 10 15.6641C6.87684 15.6641 4.33594 13.1232 4.33594 10C4.33594 9.56852 3.98617 9.21875 3.55469 9.21875C3.1232 9.21875 2.77344 9.56852 2.77344 10C2.77344 13.7208 5.60004 16.7939 9.21875 17.1846V18.4375H6.91406C6.48258 18.4375 6.13281 18.7873 6.13281 19.2188C6.13281 19.6502 6.48258 20 6.91406 20H13.1641C13.5955 20 13.9453 19.6502 13.9453 19.2188C13.9453 18.7873 13.5955 18.4375 13.1641 18.4375H10.7812V17.1846C14.4 16.7939 17.2266 13.7208 17.2266 10Z" fill="#818488" fill-opacity="0.7"/>
</svg>
