<svg width="18" height="18" viewBox="0 0 18 18" fill="none" xmlns="http://www.w3.org/2000/svg">
<g id="alarm (1) 1" clip-path="url(#clip0_287_14)">
<path id="Vector" d="M15.596 12.8298C15.2143 12.9013 14.9629 13.2687 15.0344 13.6504C15.0874 13.9335 14.963 14.1353 14.8841 14.2304C14.8054 14.3253 14.6304 14.4844 14.3434 14.4844H3.67021C3.38316 14.4844 3.20822 14.3253 3.1295 14.2304C3.05061 14.1353 2.92612 13.9335 2.97921 13.6504C3.17865 12.5861 3.57884 11.8861 3.96584 11.2091C4.43587 10.3871 4.92188 9.53698 4.92188 8.22656V7.17188C4.92188 4.95468 6.72409 3.12637 8.9403 3.09421H9.07323C11.2819 3.12627 13.0781 4.95457 13.0781 7.17188V8.22656C13.0781 9.34182 13.4429 10.1093 13.7849 10.741C13.9122 10.9762 14.154 11.1096 14.4039 11.1096C14.5169 11.1096 14.6316 11.0823 14.7379 11.0247C15.0795 10.8399 15.2064 10.4132 15.0216 10.0717C14.6814 9.44304 14.4844 8.93957 14.4844 8.22656V7.17188C14.4844 5.72481 13.9239 4.35807 12.9061 3.32346C12.0338 2.43675 10.9139 1.88346 9.70312 1.73074V0.703125C9.70312 0.314789 9.38834 0 9 0C8.61166 0 8.29688 0.314789 8.29688 0.703125V1.73282C5.6089 2.08157 3.51562 4.40089 3.51562 7.17188V8.22656C3.51562 9.16337 3.17556 9.75818 2.74504 10.5112C2.32091 11.2532 1.84015 12.0941 1.59701 13.3914C1.48096 14.0107 1.64514 14.6438 2.04746 15.1286C2.44944 15.6129 3.04091 15.8906 3.67021 15.8906H6.9042C6.9042 17.0537 7.85046 18 9.01357 18C10.1767 18 11.1229 17.0537 11.1229 15.8906H14.3434C14.9727 15.8906 15.5642 15.6129 15.9661 15.1286C16.3684 14.6438 16.5326 14.0107 16.4166 13.3914C16.3451 13.0097 15.9777 12.7582 15.596 12.8298ZM9.01361 16.5938C8.6259 16.5938 8.31048 16.2783 8.31048 15.8906H9.71673C9.71673 16.2783 9.40131 16.5938 9.01361 16.5938ZM1.40625 7.87521C1.01791 7.87521 0.703125 7.56042 0.703125 7.17209C0.703125 5.12754 1.45378 3.16301 2.81679 1.64039C3.07579 1.35109 3.5203 1.32648 3.80964 1.58548C4.09894 1.84447 4.12355 2.28899 3.86455 2.57832C2.7327 3.84272 2.10938 5.47411 2.10938 7.17209C2.10938 7.56042 1.79459 7.87521 1.40625 7.87521ZM17.2969 7.17209C17.2969 7.56042 16.9821 7.87521 16.5938 7.87521C16.2054 7.87521 15.8906 7.56042 15.8906 7.17209C15.8906 5.47411 15.2673 3.84268 14.1354 2.57832C13.8765 2.28899 13.901 1.84447 14.1904 1.58548C14.4797 1.32648 14.9242 1.35105 15.1832 1.64039C16.5462 3.16301 17.2969 5.12754 17.2969 7.17209Z" fill="#B76E79"/>
</g>
<defs>
<clipPath id="clip0_287_14">
<rect width="18" height="18" fill="white"/>
</clipPath>
</defs>
</svg>
