<svg width="20" height="20" viewBox="0 0 20 20" fill="none" xmlns="http://www.w3.org/2000/svg">
<g opacity="0.7">
<path d="M18.2332 14.8793C18.1538 14.4552 17.7456 14.1758 17.3215 14.2553C16.8974 14.3348 16.618 14.743 16.6974 15.1671C16.7564 15.4817 16.6181 15.7059 16.5304 15.8116C16.443 15.917 16.2486 16.0938 15.9297 16.0938H4.07059C3.75165 16.0938 3.55727 15.917 3.46981 15.8116C3.38215 15.7059 3.24383 15.4817 3.30282 15.1671C3.52442 13.9846 3.96907 13.2068 4.39907 12.4546C4.9213 11.5412 5.4613 10.5966 5.4613 9.14059V7.96871C5.4613 5.50516 7.46376 3.47371 9.92622 3.43797H10.0739C12.5281 3.47363 14.5238 5.50508 14.5238 7.96875V9.14062C14.5238 10.3798 14.9292 11.2325 15.3091 11.9345C15.4506 12.1957 15.7193 12.344 15.9969 12.344C16.1225 12.344 16.2499 12.3137 16.3681 12.2497C16.7475 12.0443 16.8886 11.5702 16.6833 11.1908C16.3052 10.4923 16.0863 9.93285 16.0863 9.14062V7.96875C16.0863 6.3609 15.4636 4.8423 14.3327 3.69273C13.3635 2.70754 12.1191 2.09273 10.7738 1.92305V0.78125C10.7738 0.349766 10.4241 0 9.99259 0C9.5611 0 9.21133 0.349766 9.21133 0.78125V1.92535C6.22469 2.31285 3.89883 4.88988 3.89883 7.96875V9.14062C3.89883 10.1815 3.52098 10.8424 3.04262 11.6791C2.57137 12.5035 2.03719 13.4379 1.76704 14.8793C1.63809 15.5674 1.82051 16.2709 2.26755 16.8095C2.71415 17.3477 3.37137 17.6562 4.07059 17.6562H7.66391C7.66391 18.9486 8.71532 20 10.0077 20C11.3 20 12.3514 18.9486 12.3514 17.6562H15.9297C16.6289 17.6562 17.2861 17.3477 17.7327 16.8095C18.1797 16.271 18.3622 15.5674 18.2332 14.8793ZM10.0077 18.4375C9.57688 18.4375 9.22641 18.087 9.22641 17.6562H10.7889C10.7889 18.087 10.4385 18.4375 10.0077 18.4375Z" fill="#2C2C2C"/>
</g>
</svg>
