<svg width="18" height="18" viewBox="0 0 18 18" fill="none" xmlns="http://www.w3.org/2000/svg">
<g clip-path="url(#clip0_287_18)">
<path d="M15.1875 0.595459H2.8125C1.26169 0.595459 0 1.85715 0 3.40796V11.0017C0 12.5525 1.26169 13.8142 2.8125 13.8142H7.48828C7.87662 13.8142 8.19141 13.4994 8.19141 13.1111C8.19141 12.7227 7.87662 12.408 7.48828 12.408H2.8125C2.03709 12.408 1.40625 11.7771 1.40625 11.0017V5.7326H16.5938V7.13885C16.5938 7.52718 16.9085 7.84197 17.2969 7.84197C17.6852 7.84197 18 7.52718 18 7.13885V3.40796C18 1.85715 16.7383 0.595459 15.1875 0.595459ZM1.40625 4.32631V3.40796C1.40625 2.63255 2.03709 2.00171 2.8125 2.00171H15.1875C15.9629 2.00171 16.5938 2.63255 16.5938 3.40796V4.32631C16.5938 4.32635 1.40625 4.32635 1.40625 4.32631ZM17.5837 9.58586L14.1325 8.04377C14.0182 7.99269 13.8974 7.9744 13.7812 7.98544C13.665 7.97451 13.5443 7.99269 13.43 8.04377L9.97879 9.58586C9.72555 9.69903 9.5625 9.95043 9.5625 10.2278V12.9053C9.5625 14.005 9.99696 15.1275 10.7545 15.9849C11.5633 16.9003 12.6214 17.4045 13.7338 17.4045H13.8287C14.9411 17.4045 15.9991 16.9003 16.808 15.9849C17.5655 15.1275 18 14.005 18 12.9053V10.2278C18 9.95043 17.8369 9.69899 17.5837 9.58586ZM16.5938 12.9053C16.5938 14.3653 15.4112 15.9982 13.8287 15.9982H13.7338C12.1513 15.9982 10.9688 14.3653 10.9688 12.9053V10.6837L13.7813 9.42703L16.5938 10.6837V12.9053H16.5938Z" fill="#B76E79"/>
</g>
<defs>
<clipPath id="clip0_287_18">
<rect width="18" height="18" fill="white"/>
</clipPath>
</defs>
</svg>
