<svg width="18" height="18" viewBox="0 0 18 18" fill="none" xmlns="http://www.w3.org/2000/svg">
<g clip-path="url(#clip0_287_23)">
<path d="M9.00005 18C7.93376 18 6.89082 17.7489 5.90015 17.2538C4.97526 16.7915 4.13815 16.1391 3.412 15.3146C1.96835 13.6755 1.14038 11.5337 1.14038 9.43855V3.89473C1.14038 3.61819 1.30277 3.36749 1.55508 3.25439L8.67792 0.0613971C8.85971 -0.0201303 9.06759 -0.0204467 9.24966 0.0603424L16.4426 3.25334C16.6962 3.36591 16.8597 3.61731 16.8597 3.89473V9.43859C16.8597 10.9831 16.4203 12.5387 15.5892 13.9374C15.3912 14.2706 14.9606 14.3802 14.6274 14.1822C14.2942 13.9842 14.1846 13.5536 14.3826 13.2205C15.085 12.0386 15.4562 10.7308 15.4562 9.43855V4.35099L8.96637 1.47014L2.54392 4.34919V9.43859C2.54392 13.1848 5.62115 16.5965 9.00005 16.5965C10.1943 16.5965 11.3619 16.2062 12.3766 15.4677C12.6899 15.2397 13.1288 15.3088 13.3569 15.6221C13.585 15.9355 13.5158 16.3744 13.2025 16.6024C11.9463 17.5168 10.4931 18 9.00005 18Z" fill="#B76E79"/>
</g>
<defs>
<clipPath id="clip0_287_23">
<rect width="18" height="18" fill="white"/>
</clipPath>
</defs>
</svg>
