<svg width="16" height="20" viewBox="0 0 16 20" fill="none" xmlns="http://www.w3.org/2000/svg">
<path opacity="0.7" d="M2.35496 20C1.73121 20 1.12379 19.7535 0.682578 19.32C0.242422 18.8876 0 18.3014 0 17.6696V3.12496C3.90625e-05 1.40188 1.40188 0 3.125 0H12.0311C13.7542 0 15.1561 1.40188 15.1561 3.12496V13.7889C15.1561 14.2204 14.8063 14.5702 14.3748 14.5702C13.9434 14.5702 13.5936 14.2204 13.5936 13.7889V3.12496C13.5936 2.2634 12.8927 1.56246 12.0311 1.56246H3.125C2.26344 1.56246 1.5625 2.2634 1.5625 3.12496V17.6697C1.5625 17.885 1.63488 18.0653 1.77766 18.2055C1.92934 18.3546 2.14992 18.4419 2.36906 18.4374C2.58656 18.4336 2.76145 18.3607 2.90367 18.2145L7.01824 13.9862C7.16531 13.8351 7.36727 13.7498 7.57812 13.7498C7.78898 13.7498 7.99094 13.8351 8.13801 13.9862L12.2525 18.2145C12.3958 18.3618 12.5694 18.4346 12.7833 18.4374C13 18.4391 13.2216 18.3517 13.3744 18.2009C13.5199 18.0572 13.5937 17.8739 13.5937 17.6561C13.5937 17.2246 13.9435 16.8748 14.375 16.8748C14.8064 16.8748 15.1562 17.2246 15.1562 17.6561C15.1562 18.2889 14.9133 18.8772 14.4722 19.3127C14.0219 19.7574 13.3977 20.0063 12.7635 19.9998C12.1316 19.9918 11.5677 19.7512 11.1327 19.3042L7.57809 15.6513L4.02348 19.3042C3.59156 19.748 3.02902 19.9885 2.39656 19.9996C2.38273 19.9999 2.36883 20 2.35496 20Z" fill="#2C2C2C"/>
</svg>
