<svg width="20" height="20" viewBox="0 0 20 20" fill="none" xmlns="http://www.w3.org/2000/svg">
<g clip-path="url(#clip0_60_147)">
<path d="M14.6771 12.9095C15.6612 11.5655 16.2499 9.91468 16.2499 8.12504C16.2499 3.64508 12.6049 6.10352e-05 8.12494 6.10352e-05C3.64498 6.10352e-05 0 3.64508 0 8.12504C0 12.605 3.64502 16.25 8.12498 16.25C9.91462 16.25 11.5656 15.6613 12.9096 14.6771L18.2324 19.9999L20 18.2324C20 18.2323 14.6771 12.9095 14.6771 12.9095ZM8.12498 13.75C5.02318 13.75 2.50001 11.2268 2.50001 8.12504C2.50001 5.02324 5.02318 2.50007 8.12498 2.50007C11.2268 2.50007 13.75 5.02324 13.75 8.12504C13.75 11.2268 11.2267 13.75 8.12498 13.75Z" fill="#818488" fill-opacity="0.7"/>
</g>
<defs>
<clipPath id="clip0_60_147">
<rect width="20" height="20" fill="white"/>
</clipPath>
</defs>
</svg>
