<svg width="18" height="18" viewBox="0 0 18 18" fill="none" xmlns="http://www.w3.org/2000/svg">
<path d="M16.1719 12.7266C16.5602 12.7266 16.875 12.4118 16.875 12.0234V9.42188C16.875 7.87106 15.6133 6.60938 14.0625 6.60938H13.2174V4.12966C13.2174 1.85256 11.3249 0 8.9987 0C6.67248 0 4.77995 1.85256 4.77995 4.12966V6.60938H3.9375C2.38669 6.60938 1.125 7.87106 1.125 9.42188V15.1875C1.125 16.7383 2.38669 18 3.9375 18H14.0625C15.6133 18 16.875 16.7383 16.875 15.1875C16.875 14.7992 16.5602 14.4844 16.1719 14.4844C15.7835 14.4844 15.4688 14.7992 15.4688 15.1875C15.4688 15.9629 14.8379 16.5938 14.0625 16.5938H3.9375C3.16209 16.5938 2.53125 15.9629 2.53125 15.1875V9.42188C2.53125 8.64647 3.16209 8.01562 3.9375 8.01562H14.0625C14.8379 8.01562 15.4688 8.64647 15.4688 9.42188V12.0234C15.4688 12.4118 15.7835 12.7266 16.1719 12.7266ZM6.1862 4.12966C6.1862 2.62796 7.44789 1.40625 8.9987 1.40625C10.5495 1.40625 11.8112 2.62796 11.8112 4.12966V6.60938H6.1862V4.12966ZM9 11.4961C9.38834 11.4961 9.70312 11.8109 9.70312 12.1992C9.70312 12.5876 9.38834 12.9023 9 12.9023C8.61166 12.9023 8.29688 12.5876 8.29688 12.1992C8.29688 11.8109 8.61166 11.4961 9 11.4961Z" fill="#B76E79"/>
</svg>
