<svg width="20" height="20" viewBox="0 0 20 20" fill="none" xmlns="http://www.w3.org/2000/svg">
<g opacity="0.7" clip-path="url(#clip0_28_100)">
<path d="M10 14.5312C7.50145 14.5312 5.46875 12.4985 5.46875 10C5.46875 7.50148 7.50145 5.46875 10 5.46875C12.4986 5.46875 14.5312 7.50148 14.5312 10C14.5312 10.433 14.4701 10.8616 14.3495 11.274C14.2284 11.6881 13.7946 11.9257 13.3804 11.8045C12.9662 11.6834 12.7287 11.2495 12.8498 10.8354C12.9287 10.5656 12.9688 10.2845 12.9688 10C12.9688 8.36301 11.637 7.03125 10 7.03125C8.36305 7.03125 7.03125 8.36301 7.03125 10C7.03125 11.637 8.36305 12.9688 10 12.9688C10.3065 12.9688 10.6083 12.9224 10.8971 12.831C11.3084 12.7008 11.7475 12.9287 11.8777 13.3401C12.0079 13.7515 11.78 14.1905 11.3686 14.3207C10.9271 14.4604 10.4667 14.5312 10 14.5312ZM12.7344 17.6562V17.2627C12.7344 17.1593 12.7995 17.0655 12.8996 17.0242L12.9148 17.0179C13.0162 16.9758 13.1289 16.9959 13.2021 17.0691L13.4803 17.3473C13.923 17.79 14.5115 18.0338 15.1376 18.0338C15.7636 18.0338 16.3522 17.79 16.7949 17.3473L17.3473 16.7948C17.79 16.3521 18.0338 15.7636 18.0338 15.1376C18.0338 14.5115 17.79 13.923 17.3473 13.4803L17.0691 13.2021C16.9959 13.1289 16.9758 13.0161 17.0179 12.9148L17.0238 12.9005C17.0655 12.7996 17.1593 12.7344 17.2628 12.7344H17.6562C18.9486 12.7344 20 11.683 20 10.3907V9.60941C20 8.31707 18.9486 7.26566 17.6562 7.26566H17.2628C17.1593 7.26566 17.0654 7.20047 17.0248 7.10211L17.0179 7.08523C16.9758 6.98391 16.9959 6.87113 17.0691 6.79793L17.3473 6.51973C18.2611 5.6059 18.2611 4.11898 17.3473 3.20516L16.7949 2.65273C16.3522 2.21004 15.7636 1.96625 15.1376 1.96625C14.5115 1.96625 13.9229 2.21004 13.4803 2.65273L13.2021 2.9309C13.1289 3.00414 13.016 3.02422 12.9151 2.9823L12.9004 2.97621C12.7995 2.93457 12.7343 2.84078 12.7343 2.73727V2.34375C12.7343 1.05141 11.6829 0 10.3906 0H9.60934C8.31699 0 7.26559 1.05141 7.26559 2.34375V2.73727C7.26559 2.84074 7.20043 2.93453 7.10039 2.97582L7.08512 2.98215C6.98387 3.02426 6.87102 3.00414 6.79785 2.93094L6.51965 2.65273C6.07699 2.21004 5.48844 1.96625 4.86234 1.96625C4.23633 1.96625 3.64773 2.21004 3.20504 2.65273L2.6527 3.20516C1.73887 4.11898 1.73887 5.6059 2.65273 6.51977L2.9309 6.79793C3.0041 6.87117 3.02422 6.98395 2.98094 7.08816L2.97621 7.09957C2.93457 7.20047 2.8407 7.26566 2.73723 7.26566H2.34375C1.05141 7.26566 0 8.31707 0 9.60941V10.3907C0 11.683 1.05141 12.7344 2.34375 12.7344H2.73723C2.8407 12.7344 2.93453 12.7996 2.9752 12.898L2.98215 12.9148C3.02422 13.0162 3.00414 13.1289 2.9309 13.2021L2.65273 13.4804C2.21004 13.923 1.96625 14.5116 1.96625 15.1377C1.96625 15.7637 2.21004 16.3523 2.6527 16.7949L3.20512 17.3473C3.64781 17.79 4.23637 18.0338 4.86242 18.0338C5.48848 18.0338 6.07707 17.79 6.51973 17.3473L6.79789 17.0692C6.87105 16.9959 6.98398 16.9759 7.08488 17.0178L7.09961 17.0239C7.20051 17.0655 7.26566 17.1593 7.26566 17.2628V17.6562C7.26566 18.9486 8.31707 20 9.60941 20H10.3907C11.683 20 12.7344 18.9486 12.7344 17.6562ZM5.69301 15.9642L5.4148 16.2425C5.26727 16.39 5.07109 16.4713 4.86238 16.4713C4.65371 16.4713 4.45754 16.39 4.30996 16.2424L3.75754 15.69C3.60996 15.5424 3.52871 15.3463 3.52871 15.1376C3.52871 14.9289 3.60996 14.7327 3.75754 14.5852L4.03574 14.307C4.55762 13.785 4.71051 13.0037 4.42543 12.3163L4.42035 12.304C4.13637 11.6163 3.4757 11.1719 2.73723 11.1719H2.34375C1.91297 11.1719 1.5625 10.8214 1.5625 10.3906V9.60938C1.5625 9.17859 1.91297 8.82812 2.34375 8.82812H2.73723C3.47566 8.82812 4.13633 8.38375 4.42145 7.69344L4.42508 7.68457C4.71074 6.99691 4.55789 6.2152 4.03574 5.69301L3.75758 5.41484C3.45293 5.11023 3.45293 4.61461 3.75758 4.30996L4.30996 3.75754C4.45754 3.61 4.65375 3.52871 4.86242 3.52871C5.07113 3.52871 5.26727 3.60996 5.41484 3.75754L5.69309 4.03578C6.21531 4.55793 6.99707 4.7107 7.68492 4.42492L7.69594 4.42035C8.38371 4.13641 8.82812 3.47574 8.82812 2.73727V2.34375C8.82812 1.91297 9.17859 1.5625 9.60938 1.5625H10.3906C10.8214 1.5625 11.1719 1.91297 11.1719 2.34375V2.73727C11.1719 3.47574 11.6163 4.13641 12.3049 4.42078L12.3155 4.42516C13.003 4.7107 13.7848 4.55789 14.307 4.03582L14.5852 3.75758C14.7327 3.61004 14.9289 3.52879 15.1376 3.52879C15.3463 3.52879 15.5425 3.61008 15.69 3.75762L16.2425 4.31004C16.5471 4.61465 16.5471 5.11027 16.2425 5.41488L15.9643 5.69313C15.4421 6.21527 15.2893 6.99699 15.5738 7.6818L15.5796 7.69605C15.8636 8.38375 16.5243 8.82812 17.2628 8.82812H17.6562C18.087 8.82812 18.4375 9.17859 18.4375 9.60938V10.3906C18.4375 10.8214 18.087 11.1719 17.6562 11.1719H17.2628C16.5243 11.1719 15.8637 11.6163 15.5796 12.304L15.5745 12.3163C15.2894 13.0037 15.4423 13.785 15.9642 14.307L16.2425 14.5852C16.39 14.7327 16.4713 14.9289 16.4713 15.1376C16.4713 15.3463 16.39 15.5424 16.2424 15.69L15.69 16.2424C15.5425 16.39 15.3463 16.4713 15.1376 16.4713C14.9289 16.4713 14.7327 16.39 14.5852 16.2424L14.3069 15.9642C13.7847 15.4421 13.003 15.2893 12.3151 15.575L12.3041 15.5796C11.6163 15.8636 11.1719 16.5243 11.1719 17.2627V17.6562C11.1719 18.087 10.8214 18.4375 10.3906 18.4375H9.60938C9.17859 18.4375 8.82812 18.087 8.82812 17.6562V17.2627C8.82812 16.5243 8.38371 15.8636 7.69508 15.5792L7.68453 15.5748C7.45445 15.4793 7.21395 15.4328 6.97606 15.4328C6.50301 15.4329 6.04051 15.6168 5.69301 15.9642Z" fill="#2C2C2C"/>
</g>
<defs>
<clipPath id="clip0_28_100">
<rect width="20" height="20" fill="white"/>
</clipPath>
</defs>
</svg>
