<svg width="20" height="20" viewBox="0 0 20 20" fill="none" xmlns="http://www.w3.org/2000/svg">
<g opacity="0.7" clip-path="url(#clip0_28_79)">
<path d="M19.2188 13.75C19.6502 13.75 20 13.4002 20 12.9688V5.9375C20 5.50602 19.6502 5.15625 19.2188 5.15625H14.2969V4.29688C14.2969 1.92758 12.3693 0 10 0C7.6307 0 5.70312 1.92758 5.70312 4.29688V5.15625H0.78125C0.349766 5.15625 0 5.50602 0 5.9375V16.875C0 18.5981 1.40188 20 3.125 20H16.875C18.5981 20 20 18.5981 20 16.875C20 16.4435 19.6502 16.0938 19.2188 16.0938C18.7873 16.0938 18.4375 16.4435 18.4375 16.875C18.4375 17.7366 17.7366 18.4375 16.875 18.4375H3.125C2.26344 18.4375 1.5625 17.7366 1.5625 16.875V6.71875H5.70312V9.64844C5.70312 10.0799 6.05289 10.4297 6.48438 10.4297C6.91586 10.4297 7.26562 10.0799 7.26562 9.64844V4.29688C7.26562 2.78914 8.49223 1.5625 10 1.5625C11.5078 1.5625 12.7344 2.78914 12.7344 4.29688V5.15625H9.60938C9.17789 5.15625 8.82812 5.50602 8.82812 5.9375C8.82812 6.36898 9.17789 6.71875 9.60938 6.71875H12.7344V9.64844C12.7344 10.0799 13.0841 10.4297 13.5156 10.4297C13.9471 10.4297 14.2969 10.0799 14.2969 9.64844V6.71875H18.4375V12.9688C18.4375 13.4002 18.7873 13.75 19.2188 13.75Z" fill="#2C2C2C"/>
</g>
<defs>
<clipPath id="clip0_28_79">
<rect width="20" height="20" fill="white"/>
</clipPath>
</defs>
</svg>
