<svg width="28" height="28" viewBox="0 0 28 28" fill="none" xmlns="http://www.w3.org/2000/svg">
<path fill-rule="evenodd" clip-rule="evenodd" d="M11.6023 27.8251L13.5912 26.9343C13.8513 26.8178 14.1487 26.8178 14.4088 26.9343L16.3977 27.8251C17.2626 28.2125 18.2807 27.9397 18.8361 27.1717L20.1131 25.4058C20.2801 25.1749 20.5377 25.0262 20.8212 24.997L22.989 24.774C23.9318 24.6771 24.6771 23.9318 24.774 22.989L24.997 20.8212C25.0262 20.5377 25.1749 20.2801 25.4058 20.1131L27.1717 18.8361C27.9397 18.2807 28.2125 17.2626 27.8251 16.3977L26.9343 14.4088C26.8178 14.1487 26.8178 13.8513 26.9343 13.5912L27.8251 11.6023C28.2125 10.7374 27.9397 9.71927 27.1717 9.16391L25.4058 7.88691C25.1749 7.71991 25.0262 7.46232 24.997 7.17883L24.774 5.01101C24.6771 4.06823 23.9318 3.32293 22.989 3.22596L20.8212 3.003C20.5377 2.97385 20.2801 2.82513 20.1131 2.59419L18.8361 0.828289C18.2807 0.0603033 17.2626 -0.212497 16.3977 0.174917L14.4088 1.06574C14.1487 1.18223 13.8513 1.18223 13.5912 1.06574L11.6023 0.174917C10.7374 -0.212497 9.71927 0.0603033 9.16391 0.828289L7.88691 2.59419C7.71991 2.82513 7.46232 2.97385 7.17883 3.003L5.01101 3.22596C4.06823 3.32293 3.32293 4.06823 3.22596 5.01101L3.003 7.17883C2.97385 7.46232 2.82513 7.71991 2.59419 7.88691L0.828289 9.16391C0.0603033 9.71927 -0.212497 10.7374 0.174917 11.6023L1.06574 13.5912C1.18223 13.8513 1.18223 14.1487 1.06574 14.4088L0.174917 16.3977C-0.212497 17.2626 0.0603033 18.2807 0.828289 18.8361L2.59419 20.1131C2.82513 20.2801 2.97385 20.5377 3.003 20.8212L3.22596 22.989C3.32293 23.9318 4.06823 24.6771 5.01101 24.774L7.17883 24.997C7.46232 25.0262 7.71991 25.1749 7.88691 25.4058L9.16391 27.1717C9.71927 27.9397 10.7374 28.2125 11.6023 27.8251ZM6.89922 13.8054L8.59643 12.1082L12.5968 16.1085L19.6457 9.05961L21.3429 10.7568L12.5968 19.5029L6.89922 13.8054Z" fill="#B76E79"/>
</svg>
